<svg width="23" height="27" viewBox="0 0 23 27" fill="none" xmlns="http://www.w3.org/2000/svg">
<path d="M0.00103345 4.87464C-0.0120976 4.2339 0.100021 3.59699 0.330705 3.00189C0.561388 2.40679 0.905914 1.86568 1.34374 1.41082C1.78157 0.955958 2.30373 0.596663 2.8791 0.354355C3.45447 0.112046 4.07126 -0.00831564 4.6927 0.00044619C9.23113 0.0432456 13.768 0.000446191 18.3064 0.0169075C21.0202 0.0169075 22.9741 2.02354 22.9885 4.82361C23.0066 8.43632 23.0034 12.0485 22.9789 15.6601C22.9765 16.2817 22.8717 16.8985 22.6692 17.484C22.0051 19.3474 20.3385 20.5162 18.3894 20.5244C14.6316 20.5376 10.8738 20.5376 7.11596 20.5244C6.97868 20.5107 6.84062 20.5407 6.72043 20.6105C6.60024 20.6803 6.50372 20.7864 6.4439 20.9145C5.54835 22.424 4.64003 23.927 3.68381 25.3953C3.35622 25.8802 2.95078 26.3038 2.48495 26.648C1.46808 27.4102 0.28678 26.8768 0.090429 25.6044C0.0351622 25.2648 0.00527574 24.9214 0.00103345 24.5772C0.00103345 21.3266 0.00103345 18.0755 0.00103345 14.8239C0.00103345 11.5069 0.0090152 8.18995 0.00103345 4.87464ZM4.87469 19.0956C5.20992 18.4733 5.64094 18.2083 6.32417 18.2116C10.2911 18.228 14.258 18.2116 18.225 18.2231C19.3217 18.2231 20.1406 17.7836 20.5716 16.7218C20.6838 16.4166 20.738 16.0918 20.7312 15.7654C20.7419 12.1033 20.7419 8.44071 20.7312 4.77752C20.7312 3.296 19.7606 2.31655 18.3191 2.30832C13.7695 2.30613 9.21729 2.30503 4.66237 2.30503C3.27834 2.30503 2.31893 3.25649 2.23592 4.6804C2.21677 5.02444 2.22634 5.37012 2.22634 5.71417C2.22634 11.4317 2.22634 17.1482 2.22634 22.8636V23.3903L2.39875 23.4578C3.23204 22.0043 4.0829 20.5639 4.87469 19.0956Z" fill="#FFFFFC"/>
<path d="M11.5262 13.005C10.827 13.005 10.7983 12.9836 10.7776 12.2906C10.7472 11.3391 11.1399 10.5506 11.6891 9.82137C12.0147 9.42018 12.3043 8.98932 12.5543 8.5341C12.9566 7.73244 12.7315 6.9818 12.0754 6.69702C11.2389 6.33816 10.2316 6.73817 9.96341 7.54642C9.90432 7.71592 9.86937 7.89335 9.85965 8.07318C9.84848 8.40241 9.71598 8.54398 9.38074 8.59665C8.56182 8.72505 8.54107 8.72999 8.55384 7.88388C8.56341 6.78756 9.07425 5.92663 10.1071 5.5974C10.7937 5.35494 11.5208 5.25808 12.2446 5.31262C14.0006 5.5151 14.8099 7.16452 14.0261 8.80571C13.7481 9.33978 13.4129 9.84004 13.0268 10.2971C12.4952 10.9687 12.1329 11.6881 12.1951 12.5803C12.2382 13.1926 11.7737 12.9457 11.5262 13.005Z" fill="#FFFFFC"/>
<path d="M12.3488 14.4042C12.3546 14.5237 12.3369 14.6432 12.2966 14.7554C12.2563 14.8676 12.1944 14.9702 12.1146 15.057C12.0347 15.1438 11.9386 15.213 11.8321 15.2604C11.7255 15.3078 11.6108 15.3323 11.4947 15.3326C11.3828 15.3338 11.2717 15.3117 11.1682 15.2679C11.0646 15.224 10.9706 15.1592 10.8918 15.0773C10.8129 14.9953 10.7508 14.8979 10.709 14.7908C10.6673 14.6837 10.6467 14.569 10.6487 14.4536C10.6404 14.3344 10.6555 14.2147 10.693 14.1017C10.7305 13.9886 10.7897 13.8844 10.8669 13.7954C10.9442 13.7063 11.038 13.6342 11.1429 13.5833C11.2477 13.5323 11.3614 13.5036 11.4772 13.4989C11.593 13.4956 11.7083 13.5169 11.8159 13.5614C11.9234 13.6058 12.0211 13.6725 12.1027 13.7573C12.1844 13.8421 12.2483 13.9433 12.2906 14.0545C12.333 14.1658 12.3527 14.2848 12.3488 14.4042Z" fill="#FFFFFC"/>
</svg>
