<svg width="23" height="28" viewBox="0 0 23 28" fill="none" xmlns="http://www.w3.org/2000/svg">
<path d="M22.9974 15.0598C22.9974 18.3632 22.9974 21.6661 22.9974 24.9684C22.9966 25.318 22.9693 25.6669 22.916 26.0119C22.7164 27.3047 21.5352 27.8515 20.5216 27.0722C20.0563 26.7225 19.6514 26.2921 19.3244 25.7996C18.3667 24.3078 17.4584 22.781 16.5629 21.2475C16.5033 21.1171 16.4068 21.0092 16.2866 20.9383C16.1663 20.8673 16.0282 20.8369 15.8909 20.8511C12.1333 20.8589 8.37632 20.8589 4.61983 20.8511C2.67081 20.8428 1.00434 19.6554 0.338703 17.7623C0.135285 17.1676 0.0289774 16.5411 0.0242429 15.9094C-0.00448943 12.2403 -0.00768192 8.57061 0.0146655 4.90039C0.0274354 2.05575 1.98124 0.023866 4.69485 0.0171766C9.23297 0.000453294 13.7711 0.043934 18.3076 0.000453293C18.929 -0.00844802 19.5458 0.113829 20.1211 0.359995C20.6964 0.606161 21.2185 0.971176 21.6563 1.43328C22.0941 1.89538 22.4386 2.4451 22.6693 3.04968C22.9 3.65425 23.0121 4.3013 22.999 4.95224C22.9915 8.32032 22.991 11.6895 22.9974 15.0598ZM20.5934 23.8312L20.7674 23.7627V5.80513C20.7674 5.45561 20.7786 5.10442 20.7674 4.7549C20.6876 3.30833 19.7299 2.34841 18.3459 2.34674C13.786 2.34339 9.22818 2.34172 4.6725 2.34172C3.23588 2.34172 2.26377 3.34512 2.26058 4.85022C2.251 8.57061 2.251 12.2916 2.26058 16.0131C2.25635 16.3452 2.31326 16.6751 2.42818 16.9847C2.85917 18.0633 3.67804 18.5115 4.77466 18.5099C8.74132 18.5099 12.7064 18.5099 16.6731 18.4981C17.3578 18.4981 17.7904 18.764 18.1224 19.3962C18.9174 20.8913 19.7682 22.3546 20.5934 23.8312Z" fill="#FFFFFC"/>
<path d="M11.4951 9.03117C11.6781 9.02434 11.8606 9.05661 12.0314 9.12602C12.2023 9.19543 12.3578 9.30052 12.4886 9.4349C12.6194 9.56929 12.7228 9.73015 12.7923 9.90771C12.8619 10.0853 12.8963 10.2758 12.8934 10.4677C12.8929 10.8563 12.7455 11.2288 12.4834 11.5037C12.2213 11.7786 11.8659 11.9335 11.4951 11.9343C11.1336 11.9232 10.7896 11.7687 10.5327 11.502C10.2758 11.2353 10.1251 10.8764 10.1111 10.4978C10.1075 10.3056 10.1407 10.1145 10.2087 9.93596C10.2768 9.7574 10.3783 9.59494 10.5074 9.45821C10.6364 9.32147 10.7903 9.21323 10.9599 9.13988C11.1296 9.06653 11.3115 9.02957 11.4951 9.03117Z" fill="#FFFFFC"/>
<path d="M7.09544 9.01939C7.45737 9.01923 7.80509 9.16694 8.06471 9.43113C8.32433 9.69532 8.47538 10.0552 8.48577 10.4342C8.49421 10.629 8.46522 10.8236 8.40053 11.0065C8.33584 11.1893 8.23676 11.3567 8.10916 11.4987C7.98157 11.6407 7.82806 11.7544 7.65774 11.833C7.48742 11.9117 7.30375 11.9537 7.11763 11.9567C6.93151 11.9596 6.74673 11.9233 6.57424 11.85C6.40175 11.7767 6.24507 11.6678 6.11349 11.5299C5.9819 11.392 5.8781 11.2278 5.80822 11.047C5.73835 10.8663 5.70383 10.6727 5.70671 10.4777C5.70414 10.2857 5.73828 10.0951 5.80712 9.91721C5.87596 9.73929 5.97811 9.57761 6.10754 9.4417C6.23696 9.30579 6.39105 9.1984 6.56072 9.12587C6.73039 9.05334 6.9122 9.01713 7.09544 9.01939Z" fill="#FFFFFC"/>
<path d="M17.2825 10.4726C17.2834 10.6644 17.248 10.8545 17.1783 11.032C17.1087 11.2094 17.0062 11.3706 16.8768 11.5063C16.7474 11.642 16.5937 11.7496 16.4244 11.8227C16.2551 11.8959 16.0737 11.9332 15.8906 11.9326C15.5294 11.9192 15.1864 11.7625 14.9313 11.4942C14.6761 11.226 14.5278 10.8662 14.5162 10.4877C14.5137 10.2955 14.5477 10.1047 14.6162 9.92649C14.6847 9.74824 14.7865 9.58606 14.9154 9.4494C15.0444 9.31274 15.198 9.20434 15.3673 9.1305C15.5367 9.05667 15.7184 9.01888 15.9018 9.01934C16.085 9.014 16.2674 9.04798 16.4376 9.11921C16.6079 9.19044 16.7624 9.2974 16.8918 9.43352C17.0211 9.56964 17.1225 9.73205 17.1897 9.91074C17.2569 10.0894 17.2885 10.2806 17.2825 10.4726Z" fill="#FFFFFC"/>
</svg>
