<svg width="33" height="14" viewBox="0 0 33 14" fill="none" xmlns="http://www.w3.org/2000/svg">
<path fill-rule="evenodd" clip-rule="evenodd" d="M3.43586 12.8188C4.1899 12.6272 7.80328 11.7353 8.4274 11.5056C9.05152 11.276 9.47862 11.0646 9.38936 10.2574C9.30009 9.45012 9.32685 7.41831 9.34249 6.83341C9.35813 6.24852 9.62622 5.92555 10.3787 5.75154C12.4279 5.06258 14.5817 4.73697 16.743 4.78939C18.7515 4.8881 20.7344 5.28308 22.6275 5.96154C23.3671 6.23944 23.3032 6.76681 23.2903 7.21871C23.2774 7.6706 23.2794 8.25704 23.2684 8.78904C23.2819 8.91366 23.3038 9.03723 23.3337 9.15895C23.3727 9.4611 23.4326 9.76017 23.513 10.054C23.5512 10.2704 23.6456 10.4729 23.7868 10.6411C23.928 10.8094 24.111 10.9376 24.3174 11.0127C24.6478 11.0949 27.8742 12.7984 29.11 13.3951C30.3458 13.9918 30.7465 13.5738 31.0533 13.3164C31.3601 13.059 31.7052 12.7694 32.012 12.512C32.2854 12.2923 32.5096 12.0176 32.67 11.7057C32.8304 11.3937 32.9235 11.0516 32.9432 10.7014C33.073 9.65111 32.9793 8.58524 32.6682 7.5737C32.3571 6.56216 31.8358 5.62779 31.1383 4.83188C30.6369 4.25618 30.0595 3.75142 29.4219 3.33153C27.9071 2.38405 26.2369 1.71167 24.4881 1.34539C23.9397 1.21746 16.0475 -1.37392 8.98298 0.992621C1.91843 3.35917 2.49451 4.08466 1.60825 4.97535C0.721997 5.86603 -0.434427 8.82942 0.165361 10.4008C0.47151 11.4614 1.07995 12.4097 1.91633 13.13C2.1647 13.134 2.69296 12.9848 3.43586 12.8188Z" fill="white"/>
</svg>
