<svg width="24" height="24" viewBox="0 0 24 24" fill="none" xmlns="http://www.w3.org/2000/svg">
<path d="M23.7665 9.64976H22.7999V9.59996H12V14.3999H18.7817C17.7923 17.1941 15.1337 19.1999 12 19.1999C8.02377 19.1999 4.79998 15.9761 4.79998 12C4.79998 8.02377 8.02377 4.79998 12 4.79998C13.8353 4.79998 15.5051 5.49238 16.7765 6.62337L20.1707 3.22919C18.0275 1.2318 15.1607 0 12 0C5.37298 0 0 5.37298 0 12C0 18.6269 5.37298 23.9999 12 23.9999C18.6269 23.9999 23.9999 18.6269 23.9999 12C23.9999 11.1954 23.9171 10.41 23.7665 9.64976Z" fill="#FFC107"/>
<path d="M1.38379 6.41458L5.32637 9.30596C6.39317 6.66477 8.97676 4.79998 12.0001 4.79998C13.8355 4.79998 15.5053 5.49238 16.7767 6.62337L20.1709 3.22919C18.0277 1.2318 15.1609 0 12.0001 0C7.39097 0 3.39378 2.60219 1.38379 6.41458Z" fill="#FF3D00"/>
<path d="M11.9999 23.9999C15.0994 23.9999 17.9158 22.8137 20.0452 20.8847L16.3312 17.742C15.1264 18.6546 13.6288 19.2 11.9999 19.2C8.87866 19.2 6.22848 17.2098 5.23008 14.4324L1.31689 17.4474C3.30289 21.3335 7.33607 23.9999 11.9999 23.9999Z" fill="#4CAF50"/>
<path d="M23.7666 9.64965H22.8V9.59985H12V14.3998H18.7818C18.3066 15.742 17.4432 16.8994 16.3296 17.7424C16.3302 17.7418 16.3308 17.7418 16.3314 17.7412L20.0454 20.884C19.7826 21.1228 24 17.9998 24 11.9998C24 11.1952 23.9172 10.4099 23.7666 9.64965Z" fill="#1976D2"/>
</svg>
