<svg width="30" height="30" viewBox="0 0 30 30" fill="none" xmlns="http://www.w3.org/2000/svg">
<path fill-rule="evenodd" clip-rule="evenodd" d="M13.425 6.56255C8.86875 9.48755 6.65625 12.5063 6.65625 17.55C6.95625 17.4563 7.21875 17.4563 7.48125 17.4563C9.8625 17.4563 12.1687 19.0688 12.1687 21.975C12.1687 24.9938 10.2375 26.8688 7.48125 26.8688C3.91875 26.8688 1.875 24.0188 1.875 18.9C1.875 11.775 5.15625 6.6563 11.2875 3.11255L13.425 6.56255ZM26.55 6.56255C21.9937 9.48755 19.7812 12.5063 19.7812 17.55C20.0813 17.4563 20.3438 17.4563 20.6062 17.4563C22.9875 17.4563 25.2937 19.0688 25.2937 21.975C25.2937 24.9938 23.3625 26.8688 20.6062 26.8688C17.0625 26.8688 15.0188 24.0188 15.0188 18.9C15.0188 11.775 18.3 6.6563 24.4312 3.11255L26.5688 6.56255H26.55Z" fill="#E5E5E5"/>
</svg>
