<svg width="49" height="37" viewBox="0 0 49 37" fill="none" xmlns="http://www.w3.org/2000/svg">
<path d="M48.1799 32.635C47.2317 33.6121 46.2935 34.6006 45.3302 35.5613C44.8335 36.0568 44.2889 36.5045 43.7356 37L41.8115 34.9804C41.1299 34.2648 40.4559 33.5417 39.7605 32.8425C39.563 32.6438 39.5391 32.4929 39.6586 32.2401C40.5414 30.3722 41.4142 28.4997 42.2768 26.6226C42.3681 26.4434 42.4212 26.2473 42.4328 26.0466C42.4412 22.6428 42.4412 19.239 42.4328 15.8352C42.4328 15.7886 42.4227 15.7421 42.4089 15.6151L38.1986 17.7932C38.1986 16.8764 38.2124 16.0326 38.186 15.1913C38.177 15.1009 38.1485 15.0134 38.1025 14.9351C38.0565 14.8567 37.994 14.7892 37.9194 14.7373C34.6101 12.8828 30.9614 11.7134 27.1906 11.2988C23.4199 10.8842 19.6042 11.2329 15.9711 12.324C13.9967 12.9342 12.0836 13.7274 10.2567 14.6933C10.1568 14.7308 10.0724 14.8008 10.017 14.892C9.96158 14.9832 9.93839 15.0904 9.95112 15.1963C9.96747 16.0263 9.95112 16.8576 9.95112 17.7844L0 12.5391C0.153423 12.446 0.261574 12.3706 0.37727 12.309C8.14735 8.24534 15.9162 4.18005 23.6837 0.113082C23.8073 0.0376572 23.9496 -0.00151188 24.0943 4.46489e-05C24.2391 0.00160118 24.3805 0.0438206 24.5024 0.121885C32.3069 4.21568 40.1147 8.30193 47.9258 12.3806C48.0076 12.4234 48.0956 12.4536 48.1773 12.49V12.5844C47.3222 13.0346 46.4733 13.4974 45.6069 13.9274C45.3239 14.0683 45.2497 14.2418 45.251 14.5449C45.2623 17.133 45.251 19.7198 45.2585 22.3079C45.2585 23.6396 45.051 25.0204 45.3315 26.2918C45.6119 27.5632 46.3815 28.6887 46.9361 29.8797C47.2606 30.5751 47.5787 31.2718 47.9057 31.966C47.9837 32.132 48.0868 32.2866 48.1773 32.4464L48.1799 32.635Z" fill="black"/>
<path d="M35.3767 28.0336H12.7871V27.5469C12.7871 24.0358 12.7871 20.5234 12.7795 17.011C12.7795 16.679 12.8877 16.5181 13.1782 16.3822C16.5825 14.7837 20.2965 13.9527 24.0574 13.9479C27.8184 13.9431 31.5345 14.7647 34.9428 16.3546C35.2686 16.5055 35.3893 16.6803 35.3868 17.0538C35.3692 20.5511 35.3767 24.0471 35.3767 27.5431V28.0336Z" fill="black"/>
</svg>
