<svg width="20" height="18" viewBox="0 0 20 18" fill="none" xmlns="http://www.w3.org/2000/svg">
<path d="M8.62485 7.49987C8.62485 7.27737 8.69083 7.05987 8.81444 6.87486C8.93806 6.68986 9.11376 6.54567 9.31932 6.46052C9.52488 6.37538 9.75108 6.3531 9.9693 6.3965C10.1875 6.43991 10.388 6.54706 10.5453 6.70439C10.7026 6.86172 10.8098 7.06217 10.8532 7.2804C10.8966 7.49862 10.8743 7.72482 10.7892 7.93038C10.704 8.13594 10.5598 8.31164 10.3748 8.43526C10.1898 8.55887 9.97233 8.62485 9.74983 8.62485C9.45147 8.62485 9.16532 8.50632 8.95435 8.29535C8.74337 8.08438 8.62485 7.79823 8.62485 7.49987ZM13.8748 8.62485C14.0973 8.62485 14.3148 8.55887 14.4998 8.43526C14.6848 8.31164 14.829 8.13594 14.9141 7.93038C14.9993 7.72482 15.0215 7.49862 14.9781 7.2804C14.9347 7.06217 14.8276 6.86172 14.6702 6.70439C14.5129 6.54706 14.3125 6.43991 14.0942 6.3965C13.876 6.3531 13.6498 6.37538 13.4442 6.46052C13.2387 6.54567 13.063 6.68986 12.9394 6.87486C12.8158 7.05987 12.7498 7.27737 12.7498 7.49987C12.7498 7.79823 12.8683 8.08438 13.0793 8.29535C13.2903 8.50632 13.5764 8.62485 13.8748 8.62485ZM19.4997 1.49997V13.4998C19.4997 13.8976 19.3416 14.2791 19.0603 14.5604C18.779 14.8417 18.3975 14.9997 17.9997 14.9997H12.4245L11.0332 17.2769C10.8993 17.4981 10.7105 17.6809 10.4851 17.8076C10.2597 17.9343 10.0054 18.0006 9.74684 18C9.48827 17.9994 9.23424 17.932 9.0094 17.8044C8.78456 17.6767 8.59655 17.493 8.4636 17.2713L7.07519 14.9997H1.49997C1.10216 14.9997 0.720632 14.8417 0.439332 14.5604C0.158032 14.2791 0 13.8976 0 13.4998V1.49997C0 1.10216 0.158032 0.720632 0.439332 0.439332C0.720632 0.158032 1.10216 0 1.49997 0H17.9997C18.3975 0 18.779 0.158032 19.0603 0.439332C19.3416 0.720632 19.4997 1.10216 19.4997 1.49997ZM17.9997 1.49997H1.49997V13.4998H7.07519C7.33341 13.5004 7.58713 13.5674 7.81203 13.6943C8.03692 13.8212 8.22545 14.0038 8.35954 14.2244L9.74983 16.4997L11.1392 14.2198C11.2739 13.9997 11.4628 13.818 11.6878 13.6919C11.9129 13.5659 12.1665 13.4997 12.4245 13.4998H17.9997V1.49997ZM5.6249 8.62485C5.8474 8.62485 6.06491 8.55887 6.24991 8.43526C6.43491 8.31164 6.5791 8.13594 6.66425 7.93038C6.7494 7.72482 6.77167 7.49862 6.72827 7.2804C6.68486 7.06217 6.57772 6.86172 6.42038 6.70439C6.26305 6.54706 6.0626 6.43991 5.84438 6.3965C5.62615 6.3531 5.39995 6.37538 5.19439 6.46052C4.98883 6.54567 4.81313 6.68986 4.68951 6.87486C4.5659 7.05987 4.49992 7.27737 4.49992 7.49987C4.49992 7.79823 4.61845 8.08438 4.82942 8.29535C5.0404 8.50632 5.32654 8.62485 5.6249 8.62485Z" fill="#949699"/>
</svg>
