<svg width="20" height="20" viewBox="0 0 20 20" fill="none" xmlns="http://www.w3.org/2000/svg">
<path d="M13.6464 5.40755L13.6464 5.4075H13.6392H4.0925C3.76288 5.4075 3.42126 5.55439 3.24461 5.8749C3.06484 6.20107 3.12979 6.56908 3.3315 6.85834L4.5 8.88625V12.6183C4.5 13.843 5.40577 14.9333 6.7 14.9333H13.6292V14.9334L13.6372 14.9333C14.246 14.9234 14.827 14.6772 15.2573 14.2466C15.6877 13.816 15.9337 13.2349 15.9433 12.6262L15.9433 12.6262V12.6183L15.9433 7.7325L15.9433 7.73096C15.9414 7.11991 15.6997 6.53403 15.2701 6.09948C14.8405 5.66493 14.2574 5.41645 13.6464 5.40755ZM3.28249 3.28249C5.06408 1.50089 7.48044 0.5 10 0.5C12.5196 0.5 14.9359 1.50089 16.7175 3.28249C18.4991 5.06408 19.5 7.48044 19.5 10C19.5 12.5196 18.4991 14.9359 16.7175 16.7175C14.9359 18.4991 12.5196 19.5 10 19.5C7.48044 19.5 5.06408 18.4991 3.28249 16.7175C1.50089 14.9359 0.5 12.5196 0.5 10C0.5 7.48044 1.50089 5.06408 3.28249 3.28249Z" fill="#363636" stroke="#363636"/>
</svg>
