<svg width="32" height="31" viewBox="0 0 32 31" fill="none" xmlns="http://www.w3.org/2000/svg">
<path d="M8.12734 1.43138C9.45314 1.42699 10.7502 1.81738 11.8534 2.5528C12.9565 3.28823 13.8158 4.3354 14.3216 5.5609C14.9992 7.19934 14.9992 9.03963 14.3216 10.6781C13.9854 11.494 13.4911 12.2353 12.8671 12.8593C12.2431 13.4832 11.5018 13.9776 10.6859 14.3138C9.66867 14.7359 8.56287 14.9002 7.46683 14.792C6.37078 14.6837 5.31847 14.3063 4.40343 13.6934C3.4884 13.0804 2.739 12.2508 2.22187 11.2784C1.70474 10.306 1.43589 9.22085 1.43923 8.11949C1.43876 7.24106 1.61144 6.37115 1.94738 5.5595C2.28332 4.74785 2.77594 4.01037 3.39709 3.38923C4.01823 2.76809 4.75571 2.27546 5.56736 1.93952C6.37901 1.60358 7.24891 1.43091 8.12734 1.43138ZM8.12734 1.11856e-06C6.11071 -0.00105659 4.16579 0.748051 2.67091 2.10161C1.17602 3.45516 0.238067 5.31637 0.0394943 7.3232C-0.159079 9.33003 0.39593 11.339 1.59656 12.9592C2.79719 14.5795 4.55758 15.6953 6.53531 16.0894C8.51304 16.4836 10.5667 16.128 12.2968 15.0919C14.0268 14.0557 15.3096 12.4131 15.8956 10.4835C16.4816 8.55386 16.3289 6.47526 15.4672 4.65202C14.6055 2.82877 13.0964 1.39125 11.2334 0.619072C10.2487 0.210825 9.1933 0.000466833 8.12734 1.11856e-06Z" fill="#949699"/>
<path d="M26.2094 4.43005C26.8391 4.43005 27.4626 4.55408 28.0444 4.79506C28.6262 5.03604 29.1548 5.38924 29.6 5.83451C30.0453 6.27978 30.3985 6.80839 30.6395 7.39016C30.8805 7.97193 31.0045 8.59546 31.0045 9.22517V26.2013C31.0026 27.4728 30.4969 28.6917 29.5982 29.5911C28.6994 30.4905 27.4809 30.9971 26.2094 31H9.23326C7.96144 30.9972 6.74252 30.4907 5.84321 29.5914C4.94389 28.692 4.43741 27.4731 4.43457 26.2013V16.9796C5.14597 17.2733 5.88942 17.4823 6.64963 17.6023V26.1906C6.64903 26.4934 6.70235 26.7939 6.80708 27.078L15.3953 18.6615C15.9843 18.0853 16.7664 17.7486 17.5898 17.7168C18.4132 17.6851 19.2189 17.9606 19.8505 18.4898L20.0402 18.6615L28.6356 27.078C28.7364 26.7967 28.7885 26.5002 28.7894 26.2013V9.22517C28.7876 8.54052 28.5147 7.88446 28.0306 7.40035C27.5465 6.91623 26.8905 6.64342 26.2058 6.64153H17.6176C17.4985 5.88227 17.2895 5.13989 16.9949 4.43005H26.2094ZM17.07 20.1394L16.9448 20.2432L8.37443 28.6275C8.65053 28.7239 8.94081 28.7735 9.23326 28.7742H26.2094C26.5007 28.7735 26.7898 28.7239 27.0646 28.6275L18.4978 20.2432C18.3104 20.0608 18.0645 19.9506 17.8036 19.9319C17.5421 19.9109 17.2818 19.9846 17.07 20.1394ZM22.52 9.59375C23.2902 9.59274 24.0369 9.85891 24.6328 10.3469C25.2288 10.8349 25.6369 11.5144 25.7878 12.2697C25.9387 13.025 25.823 13.8092 25.4603 14.4887C25.0976 15.1682 24.5105 15.7009 23.799 15.9959C23.0876 16.2909 22.2958 16.33 21.5587 16.1065C20.8216 15.883 20.1849 15.4107 19.7571 14.7703C19.3292 14.1298 19.1368 13.3608 19.2126 12.5943C19.2883 11.8278 19.6276 11.1114 20.1726 10.5671C20.7953 9.94456 21.6395 9.59451 22.52 9.59375ZM22.52 11.8088C22.2264 11.8115 21.9454 11.9283 21.7363 12.1344C21.5804 12.2892 21.4742 12.487 21.4315 12.7025C21.3888 12.918 21.4114 13.1414 21.4966 13.344C21.5515 13.4782 21.6331 13.5999 21.7363 13.7018C21.8399 13.803 21.9612 13.8842 22.0942 13.9416C22.2284 13.9956 22.3717 14.0235 22.5164 14.0239C22.6624 14.0246 22.8071 13.9965 22.9422 13.9413C23.0773 13.886 23.2001 13.8046 23.3037 13.7018C23.5089 13.4924 23.6244 13.2113 23.6258 12.9181C23.6248 12.6248 23.5081 12.3437 23.3011 12.136C23.094 11.9283 22.8133 11.8107 22.52 11.8088Z" fill="#949699"/>
<path d="M8.12691 2.95227H7.99451C7.84629 2.9776 7.70982 3.04897 7.60446 3.15624C7.49718 3.2616 7.42581 3.39808 7.40049 3.54629V3.67869V7.38238H3.69322H3.56082C3.41388 7.40842 3.27876 7.47973 3.17435 7.58635C3.06576 7.69123 2.99311 7.82775 2.9668 7.9764V8.10881V8.24121C2.99494 8.38832 3.06661 8.52359 3.17252 8.6295C3.27844 8.73541 3.41371 8.80708 3.56082 8.83523H3.69322H7.38617V12.5497V12.6856C7.41358 12.8327 7.48508 12.9679 7.59118 13.0734C7.69729 13.1789 7.83296 13.2496 7.98019 13.2761H8.1126H8.245C8.39321 13.2507 8.52969 13.1794 8.63505 13.0721C8.73982 12.9663 8.81081 12.8318 8.83902 12.6856V12.5497V8.8567H12.5606H12.693C12.8405 8.82937 12.9764 8.75831 13.0831 8.65273C13.1903 8.54737 13.2617 8.41089 13.287 8.26268V8.13028V7.99787C13.2617 7.84966 13.1903 7.71318 13.0831 7.60782C12.9777 7.50055 12.8412 7.42918 12.693 7.40385H12.5606H8.86407V3.68943V3.55703C8.83512 3.41006 8.76429 3.2746 8.6601 3.16698C8.55474 3.0597 8.41826 2.98833 8.27005 2.96301L8.12691 2.95227Z" fill="#949699"/>
</svg>
