<svg width="361" height="364" viewBox="0 0 361 364" fill="none" xmlns="http://www.w3.org/2000/svg">
<g filter="url(#filter0_dd_311_145)">
<circle cx="181" cy="182" r="165" fill="#FFFFFC"/>
</g>
<path d="M339 279.948H23V280.106H339V279.948Z" fill="#EBEBEB"/>
<path d="M93.5693 285.251H72.6375V285.409H93.5693V285.251Z" fill="#EBEBEB"/>
<path d="M126.332 289.808H107.265V289.966H126.332V289.808Z" fill="#EBEBEB"/>
<path d="M83.1034 291.116H58.9294V291.274H83.1034V291.116Z" fill="#EBEBEB"/>
<path d="M307.337 290.775H297.288V290.933H307.337V290.775Z" fill="#EBEBEB"/>
<path d="M295.259 290.775H270.409V290.933H295.259V290.775Z" fill="#EBEBEB"/>
<path d="M200.169 285.169H181V285.327H200.169V285.169Z" fill="#EBEBEB"/>
<path d="M248.479 285.169H202.912V285.327H248.479V285.169Z" fill="#EBEBEB"/>
<path d="M172.784 251.761H50.7511C49.7951 251.76 48.8788 251.379 48.2034 250.702C47.528 250.025 47.1487 249.108 47.1487 248.152V76.6087C47.1487 75.6527 47.528 74.7358 48.2034 74.0592C48.8788 73.3826 49.7951 73.0017 50.7511 73H172.784C173.741 73 174.659 73.3802 175.336 74.057C176.012 74.7337 176.393 75.6516 176.393 76.6087V248.152C176.393 248.626 176.299 249.096 176.118 249.533C175.937 249.971 175.671 250.369 175.336 250.704C175.001 251.039 174.603 251.305 174.165 251.486C173.727 251.668 173.258 251.761 172.784 251.761ZM50.7511 73.158C49.837 73.1597 48.9609 73.524 48.3151 74.1709C47.6694 74.8179 47.3067 75.6946 47.3067 76.6087V248.152C47.3067 249.067 47.6694 249.943 48.3151 250.59C48.9609 251.237 49.837 251.602 50.7511 251.603H172.784C173.699 251.602 174.575 251.237 175.222 250.591C175.869 249.944 176.233 249.067 176.235 248.152V76.6087C176.233 75.694 175.869 74.8173 175.222 74.1705C174.575 73.5238 173.699 73.1597 172.784 73.158H50.7511Z" fill="#EBEBEB"/>
<path d="M309.492 251.761H187.453C186.496 251.76 185.579 251.379 184.903 250.702C184.227 250.026 183.846 249.109 183.844 248.152V76.6087C183.846 75.6521 184.227 74.7352 184.903 74.0588C185.579 73.3824 186.496 73.0017 187.453 73H309.492C310.447 73.0033 311.362 73.385 312.036 74.0614C312.71 74.7378 313.088 75.6538 313.088 76.6087V248.152C313.088 249.107 312.71 250.023 312.036 250.7C311.362 251.376 310.447 251.758 309.492 251.761ZM187.453 73.158C186.538 73.1597 185.662 73.5238 185.015 74.1705C184.368 74.8173 184.004 75.694 184.002 76.6087V248.152C184.004 249.067 184.368 249.944 185.015 250.591C185.662 251.237 186.538 251.602 187.453 251.603H309.492C310.407 251.602 311.284 251.237 311.93 250.591C312.577 249.944 312.941 249.067 312.943 248.152V76.6087C312.941 75.694 312.577 74.8173 311.93 74.1705C311.284 73.5238 310.407 73.1597 309.492 73.158H187.453Z" fill="#EBEBEB"/>
<path d="M149.773 87.3148H77.0361C74.5875 87.3214 72.2412 88.2971 70.5099 90.0284C68.7785 91.7598 67.8029 94.1061 67.7962 96.5546V108.506C67.4631 108.612 67.1719 108.821 66.9643 109.102C66.7566 109.384 66.643 109.723 66.6397 110.073V130.19C66.639 130.543 66.7508 130.887 66.9587 131.172C67.1667 131.457 67.46 131.669 67.7962 131.776V138.602C67.4799 138.629 67.1854 138.774 66.9711 139.008C66.7568 139.242 66.6385 139.548 66.6397 139.866V150.61C66.6385 150.927 66.7568 151.233 66.9711 151.467C67.1854 151.702 67.4799 151.847 67.7962 151.874V270.709C67.8029 273.157 68.7785 275.503 70.5099 277.235C72.2412 278.966 74.5875 279.942 77.0361 279.948H149.773C152.22 279.94 154.565 278.964 156.295 277.232C158.025 275.501 159 273.156 159.006 270.709V96.5546C159 94.1072 158.025 91.7618 156.295 90.0306C154.565 88.2995 152.22 87.3231 149.773 87.3148Z" fill="#E0E0E0"/>
<path d="M80.2025 279.948H152.933C158.036 279.948 162.173 275.812 162.173 270.709L162.173 96.5609C162.173 91.4579 158.036 87.3211 152.933 87.3211H80.2025C75.0994 87.3211 70.9626 91.4579 70.9626 96.5609L70.9626 270.709C70.9626 275.812 75.0994 279.948 80.2025 279.948Z" fill="#EBEBEB"/>
<path d="M112.453 271.126C112.453 271.939 112.694 272.735 113.147 273.411C113.599 274.088 114.241 274.615 114.993 274.927C115.745 275.238 116.572 275.32 117.37 275.161C118.168 275.002 118.901 274.61 119.477 274.035C120.052 273.459 120.444 272.726 120.603 271.928C120.761 271.13 120.68 270.303 120.369 269.551C120.057 268.799 119.53 268.157 118.853 267.705C118.177 267.253 117.381 267.011 116.567 267.011C115.476 267.011 114.43 267.445 113.658 268.216C112.887 268.988 112.453 270.034 112.453 271.126Z" fill="#E0E0E0"/>
<path d="M70.9626 263.472H162.173L162.173 97.9324H70.9626L70.9626 263.472Z" fill="#FAFAFA"/>
<path d="M139.288 199.994H94.296C92.0151 200.002 89.8298 200.912 88.2163 202.524C86.6028 204.136 85.6919 206.321 85.6819 208.602V231.847C85.6852 234.132 86.5932 236.323 88.2074 237.941C89.8217 239.559 92.0107 240.472 94.296 240.48H127.324L127.078 248.614L135.42 240.48H139.288C141.569 240.472 143.753 239.562 145.366 237.95C146.978 236.337 147.888 234.152 147.896 231.872V208.602C147.888 206.321 146.978 204.137 145.366 202.524C143.753 200.912 141.569 200.002 139.288 199.994ZM93.2532 209.897C93.2541 209.58 93.3175 209.266 93.44 208.973C93.5625 208.68 93.7416 208.414 93.9671 208.19C94.1925 207.966 94.4599 207.789 94.7538 207.669C95.0478 207.549 95.3626 207.488 95.6801 207.489H106.039C106.652 207.521 107.229 207.787 107.652 208.232C108.075 208.677 108.311 209.268 108.311 209.882C108.311 210.496 108.075 211.086 107.652 211.531C107.229 211.976 106.652 212.242 106.039 212.274H95.6801C95.0469 212.274 94.4392 212.024 93.9885 211.58C93.5379 211.135 93.2805 210.531 93.2722 209.897H93.2532ZM136.76 232.39H118.83C118.22 232.359 117.646 232.094 117.225 231.652C116.805 231.209 116.57 230.621 116.57 230.011C116.57 229.4 116.805 228.813 117.225 228.37C117.646 227.927 118.22 227.663 118.83 227.631H136.76C137.37 227.663 137.945 227.927 138.365 228.37C138.786 228.813 139.02 229.4 139.02 230.011C139.02 230.621 138.786 231.209 138.365 231.652C137.945 232.094 137.37 232.359 136.76 232.39ZM136.76 222.329H98.088C97.4578 222.329 96.8534 222.078 96.4077 221.633C95.9621 221.187 95.7117 220.583 95.7117 219.953C95.7117 219.322 95.9621 218.718 96.4077 218.272C96.8534 217.827 97.4578 217.576 98.088 217.576H136.76C137.39 217.576 137.995 217.827 138.44 218.272C138.886 218.718 139.136 219.322 139.136 219.953C139.136 220.583 138.886 221.187 138.44 221.633C137.995 222.078 137.39 222.329 136.76 222.329ZM136.76 212.274H113.863C113.25 212.242 112.672 211.976 112.249 211.531C111.826 211.086 111.59 210.496 111.59 209.882C111.59 209.268 111.826 208.677 112.249 208.232C112.672 207.787 113.25 207.521 113.863 207.489H136.76C137.373 207.521 137.951 207.787 138.374 208.232C138.797 208.677 139.032 209.268 139.032 209.882C139.032 210.496 138.797 211.086 138.374 211.531C137.951 211.976 137.373 212.242 136.76 212.274Z" fill="#E6E6E6"/>
<path d="M116.454 119.168C110.133 119.17 104.033 121.495 99.3137 125.7C94.5949 129.906 91.5862 135.7 90.8598 141.979C90.1334 148.258 91.7399 154.585 95.374 159.758C99.008 164.93 104.416 168.586 110.57 170.031L116.454 177.52L122.338 170.031C128.491 168.586 133.9 164.93 137.534 159.758C141.168 154.585 142.774 148.258 142.048 141.979C141.321 135.7 138.313 129.906 133.594 125.7C128.875 121.495 122.775 119.17 116.454 119.168ZM116.454 155.678C114.329 155.678 112.252 155.048 110.485 153.868C108.718 152.687 107.341 151.009 106.528 149.046C105.714 147.083 105.502 144.922 105.916 142.838C106.331 140.754 107.354 138.84 108.857 137.337C110.359 135.835 112.274 134.811 114.358 134.397C116.442 133.982 118.602 134.195 120.565 135.008C122.529 135.821 124.207 137.198 125.387 138.965C126.568 140.732 127.198 142.809 127.198 144.934C127.198 147.784 126.066 150.517 124.051 152.531C122.036 154.546 119.303 155.678 116.454 155.678Z" fill="#E6E6E6"/>
<path d="M127.033 92.2002C127.033 91.9127 126.948 91.6317 126.788 91.3927C126.629 91.1536 126.402 90.9673 126.136 90.8573C125.87 90.7473 125.578 90.7185 125.296 90.7746C125.014 90.8307 124.755 90.9691 124.552 91.1724C124.349 91.3757 124.21 91.6347 124.154 91.9167C124.098 92.1986 124.127 92.4909 124.237 92.7565C124.347 93.0221 124.533 93.2491 124.772 93.4089C125.011 93.5686 125.292 93.6538 125.58 93.6538C125.965 93.6538 126.335 93.5007 126.608 93.2281C126.88 92.9555 127.033 92.5858 127.033 92.2002Z" fill="#E0E0E0"/>
<path d="M120.556 90.7466H108.478C108.093 90.7483 107.724 90.902 107.452 91.1742C107.18 91.4465 107.026 91.8152 107.024 92.2002C107.024 92.5858 107.178 92.9555 107.45 93.2281C107.723 93.5007 108.092 93.6538 108.478 93.6538H120.556C120.941 93.6522 121.309 93.4985 121.582 93.2263C121.854 92.954 122.007 92.5852 122.009 92.2002C122.007 91.8152 121.854 91.4465 121.582 91.1742C121.309 90.902 120.941 90.7483 120.556 90.7466Z" fill="#E0E0E0"/>
<path d="M203.493 279.948H295.341C299.53 279.948 302.925 276.553 302.925 272.364V93.7801C302.925 89.5916 299.53 86.1961 295.341 86.1961H203.493C199.304 86.1961 195.909 89.5916 195.909 93.7801L195.909 272.364C195.909 276.553 199.304 279.948 203.493 279.948Z" fill="#E0E0E0"/>
<path d="M201.553 279.948H293.401C297.59 279.948 300.985 276.553 300.985 272.364V93.7801C300.985 89.5916 297.59 86.1961 293.401 86.1961H201.553C197.364 86.1961 193.969 89.5916 193.969 93.7801L193.969 272.364C193.969 276.553 197.364 279.948 201.553 279.948Z" fill="#EBEBEB"/>
<path d="M295.929 272.364V97.9324C295.929 96.5362 294.798 95.4044 293.401 95.4044H201.553C200.157 95.4044 199.025 96.5362 199.025 97.9324V272.364C199.025 273.761 200.157 274.892 201.553 274.892H293.401C294.798 274.892 295.929 273.761 295.929 272.364Z" fill="#FAFAFA"/>
<path d="M264.272 191.374C262.087 191.372 259.93 191.875 257.971 192.845C256.012 193.814 254.303 195.222 252.978 196.96L239.668 188.972C240.514 187.119 240.951 185.106 240.951 183.069C240.951 181.032 240.514 179.019 239.668 177.166L252.978 169.178C255.024 171.854 257.953 173.716 261.244 174.432C264.535 175.148 267.973 174.672 270.946 173.089C273.918 171.505 276.232 168.917 277.473 165.786C278.714 162.655 278.803 159.185 277.723 155.995C276.644 152.805 274.465 150.102 271.578 148.368C268.69 146.635 265.28 145.984 261.957 146.531C258.634 147.079 255.613 148.789 253.434 151.356C251.254 153.924 250.058 157.183 250.058 160.551C250.047 162.587 250.478 164.601 251.322 166.454L238.006 174.442C236.202 172.082 233.704 170.346 230.862 169.48C228.02 168.613 224.978 168.659 222.164 169.611C219.35 170.563 216.905 172.374 215.174 174.788C213.442 177.202 212.51 180.098 212.51 183.069C212.51 186.04 213.442 188.936 215.174 191.35C216.905 193.764 219.35 195.575 222.164 196.527C224.978 197.479 228.02 197.525 230.862 196.659C233.704 195.792 236.202 194.056 238.006 191.696L251.322 199.684C250.049 202.477 249.713 205.607 250.367 208.606C251.02 211.605 252.628 214.312 254.948 216.321C257.269 218.331 260.177 219.534 263.239 219.752C266.301 219.97 269.351 219.191 271.933 217.531C274.514 215.871 276.489 213.419 277.561 210.543C278.633 207.667 278.745 204.521 277.88 201.576C277.014 198.631 275.218 196.045 272.761 194.206C270.303 192.367 267.316 191.373 264.247 191.374H264.272Z" fill="#E6E6E6"/>
<path d="M247.474 93.5147C248.807 93.5147 249.888 92.4338 249.888 91.1005C249.888 89.7671 248.807 88.6862 247.474 88.6862C246.14 88.6862 245.059 89.7671 245.059 91.1005C245.059 92.4338 246.14 93.5147 247.474 93.5147Z" fill="white"/>
<path d="M227.547 237.143C226.605 237.137 225.677 236.922 224.829 236.511L115.657 184.485C114.58 183.971 113.671 183.162 113.034 182.153C112.397 181.144 112.059 179.974 112.059 178.781C112.059 177.588 112.397 176.419 113.034 175.409C113.671 174.4 114.58 173.591 115.657 173.077L224.829 121.032C226.343 120.307 228.082 120.213 229.665 120.771C231.248 121.328 232.544 122.492 233.269 124.006C233.994 125.519 234.088 127.259 233.531 128.842C232.973 130.424 231.809 131.721 230.296 132.446L133.063 178.784L230.296 225.116C231.581 225.738 232.618 226.778 233.236 228.065C233.855 229.351 234.02 230.81 233.705 232.202C233.389 233.595 232.611 234.839 231.497 235.733C230.383 236.627 229 237.117 227.572 237.124L227.547 237.143Z" fill="#407BFF"/>
<path d="M260.904 159.041L260.449 158.598C262.311 156.689 264.003 154.621 265.505 152.417L266.029 152.771C264.506 155.006 262.791 157.103 260.904 159.041Z" fill="#407BFF"/>
<path d="M227.553 170.979C251.986 170.979 271.793 151.172 271.793 126.739C271.793 102.306 251.986 82.499 227.553 82.499C203.12 82.499 183.313 102.306 183.313 126.739C183.313 151.172 203.12 170.979 227.553 170.979Z" fill="#407BFF"/>
<path d="M227.553 161.385C246.688 161.385 262.199 145.874 262.199 126.739C262.199 107.604 246.688 92.0927 227.553 92.0927C208.419 92.0927 192.907 107.604 192.907 126.739C192.907 145.874 208.419 161.385 227.553 161.385Z" fill="white"/>
<mask id="mask0_311_145" style="mask-type:luminance" maskUnits="userSpaceOnUse" x="192" y="92" width="71" height="70">
<path d="M227.553 161.385C246.688 161.385 262.199 145.874 262.199 126.739C262.199 107.604 246.688 92.0927 227.553 92.0927C208.419 92.0927 192.907 107.604 192.907 126.739C192.907 145.874 208.419 161.385 227.553 161.385Z" fill="white"/>
</mask>
<g mask="url(#mask0_311_145)">
<path d="M228.482 146.167C228.482 146.167 240.914 148.764 247.676 147.709C254.438 146.653 253.655 137.597 248.308 133.072C242.961 128.546 244.2 129.596 245.464 124.856C246.728 120.116 243.884 116.324 238.512 116.109C233.14 115.894 238.335 109.157 232.824 101.63C227.313 94.1025 217.492 99.7842 216.784 103.153C213.7 103.26 210.464 108.285 212.771 112.829C215.077 117.373 212.139 118.561 210.331 124.028C208.524 129.494 215.747 130.544 214.123 134.228C212.499 137.913 212.366 150.104 228.482 146.167Z" fill="#263238"/>
<path d="M216.392 136.832C216.278 138.728 216.057 140.504 215.804 142.324C215.551 144.144 215.21 145.92 214.818 147.709C214.427 149.497 213.997 151.273 213.434 153.037C212.902 154.817 212.269 156.567 211.538 158.276L210.957 159.54C210.875 159.736 210.723 160.02 210.597 160.26C210.47 160.5 210.325 160.728 210.186 160.962C209.648 161.806 209.048 162.609 208.391 163.363C207.166 164.769 205.849 166.091 204.447 167.32C201.733 169.711 198.845 171.897 195.808 173.861L194.063 171.592C195.296 170.391 196.554 169.159 197.773 167.926C198.993 166.694 200.194 165.443 201.331 164.166C202.453 162.932 203.508 161.639 204.491 160.292C204.955 159.676 205.377 159.03 205.755 158.358C205.831 158.2 205.92 158.042 205.983 157.897C206.046 157.751 206.103 157.637 206.185 157.423L206.621 156.266C207.745 153.092 208.619 149.836 209.238 146.527C209.573 144.858 209.807 143.165 210.059 141.471C210.312 139.777 210.495 138.039 210.647 136.415L216.392 136.832Z" fill="#FFB573"/>
<path d="M212.474 129.88C210.142 130.474 208.511 140.074 208.511 140.074L214.938 144.448C214.938 144.448 221.1 134.765 219.306 132.199C217.441 129.551 215.88 129.039 212.474 129.88Z" fill="#407BFF"/>
<path opacity="0.2" d="M212.474 129.88C210.142 130.474 208.511 140.074 208.511 140.074L214.938 144.448C214.938 144.448 221.1 134.765 219.306 132.199C217.441 129.551 215.88 129.039 212.474 129.88Z" fill="white"/>
<path opacity="0.2" d="M212.688 132.054L210.893 141.73L214.508 144.176L212.688 132.054Z" fill="black"/>
<path d="M212.474 129.88C212.474 129.88 209.781 130.834 215.178 164.046H238.171C237.785 154.686 237.772 148.916 242.241 129.716C239.023 129.061 235.761 128.638 232.483 128.452C229.007 128.202 225.518 128.202 222.042 128.452C217.561 128.869 212.474 129.88 212.474 129.88Z" fill="#407BFF"/>
<path opacity="0.2" d="M212.474 129.88C212.474 129.88 209.781 130.834 215.178 164.046H238.171C237.785 154.686 237.772 148.916 242.241 129.716C239.023 129.061 235.761 128.638 232.483 128.452C229.007 128.202 225.518 128.202 222.042 128.452C217.561 128.869 212.474 129.88 212.474 129.88Z" fill="white"/>
<path d="M231.446 116.703C230.814 120.065 230.132 126.183 232.483 128.458C232.483 128.458 231.56 131.865 225.322 131.865C218.459 131.865 222.042 128.458 222.042 128.458C225.79 127.567 225.689 124.786 225.038 122.176L231.446 116.703Z" fill="#FFB573"/>
<path d="M232.476 128.458C229.003 128.208 225.516 128.208 222.042 128.458L221.359 128.528C219.956 130.164 221.682 132.237 223.142 133.704C223.142 133.704 231.471 132.44 233.854 128.547L232.476 128.458Z" fill="#FFB573"/>
<path opacity="0.2" d="M228.836 118.934L225.044 122.17C225.203 122.779 225.311 123.401 225.367 124.028C227.092 124.028 228.596 122.821 229.203 120.83C229.418 120.109 228.956 119.288 228.836 118.934Z" fill="black"/>
<path d="M231.636 107.76C232.824 113.252 233.45 115.546 231.503 119.086C228.577 124.407 221.574 124.666 218.768 119.642C216.24 115.123 214.724 106.901 219.4 103.267C220.428 102.46 221.644 101.93 222.934 101.726C224.224 101.522 225.545 101.651 226.771 102.101C227.997 102.551 229.088 103.308 229.939 104.298C230.791 105.289 231.375 106.48 231.636 107.76Z" fill="#FFB573"/>
<path d="M223.432 111.628C223.559 112.07 223.432 112.494 223.142 112.57C222.851 112.645 222.51 112.361 222.396 111.938C222.282 111.514 222.396 111.072 222.693 110.996C222.99 110.92 223.344 111.192 223.432 111.628Z" fill="#263238"/>
<path d="M218.465 113.031C218.591 113.467 218.465 113.891 218.174 113.973C217.883 114.055 217.542 113.764 217.428 113.341C217.315 112.917 217.428 112.481 217.725 112.399C218.022 112.317 218.345 112.589 218.465 113.031Z" fill="#263238"/>
<path d="M217.858 112.367H216.714C216.714 112.367 217.492 113.031 217.858 112.367Z" fill="#263238"/>
<path d="M220.222 113.391C220.109 114.494 219.848 115.576 219.444 116.608C219.713 116.706 220 116.743 220.285 116.718C220.57 116.693 220.846 116.606 221.094 116.463L220.222 113.391Z" fill="#ED893E"/>
<path d="M223.976 117.531C223.772 117.625 223.56 117.703 223.344 117.765C223.327 117.769 223.309 117.771 223.292 117.769C223.274 117.766 223.257 117.761 223.242 117.752C223.227 117.743 223.213 117.731 223.203 117.717C223.192 117.703 223.184 117.687 223.18 117.67C223.174 117.653 223.172 117.636 223.173 117.618C223.174 117.601 223.179 117.584 223.188 117.568C223.196 117.553 223.207 117.539 223.221 117.528C223.235 117.518 223.251 117.51 223.268 117.506C223.819 117.364 224.328 117.094 224.756 116.718C225.183 116.343 225.515 115.872 225.727 115.344C225.737 115.311 225.76 115.283 225.791 115.266C225.821 115.25 225.857 115.246 225.891 115.256C225.925 115.267 225.953 115.291 225.969 115.323C225.986 115.355 225.99 115.392 225.979 115.426C225.803 115.893 225.535 116.32 225.191 116.681C224.847 117.043 224.434 117.332 223.976 117.531Z" fill="#263238"/>
<path d="M217.946 103.968C216.746 105.333 229.815 112.374 232.482 111.103C235.149 109.833 232.748 102.805 229.379 101.282C226.011 99.759 221.58 99.8348 217.946 103.968Z" fill="#263238"/>
<path d="M234.493 112.311C234.399 113.392 233.883 114.393 233.058 115.098C231.952 116.014 230.808 115.167 230.625 113.834C230.46 112.62 230.833 110.674 232.179 110.275C232.474 110.195 232.784 110.189 233.081 110.258C233.379 110.327 233.654 110.469 233.884 110.67C234.113 110.872 234.289 111.127 234.395 111.414C234.501 111.7 234.535 112.008 234.493 112.311Z" fill="#FFB573"/>
<path d="M225.145 110.054C225.094 110.079 225.036 110.087 224.98 110.075C224.924 110.064 224.873 110.034 224.836 109.991C223.995 109.081 222.409 109.271 222.396 109.277C222.358 109.283 222.32 109.281 222.283 109.272C222.246 109.262 222.211 109.245 222.182 109.221C222.152 109.197 222.127 109.167 222.11 109.133C222.092 109.099 222.082 109.062 222.08 109.024C222.071 108.953 222.091 108.881 222.134 108.824C222.178 108.767 222.243 108.73 222.314 108.721C222.39 108.721 224.21 108.493 225.215 109.612C225.264 109.663 225.292 109.731 225.292 109.801C225.292 109.872 225.264 109.94 225.215 109.991L225.145 110.054Z" fill="#263238"/>
<path d="M216.329 111.154C216.288 111.177 216.243 111.188 216.196 111.188C216.15 111.188 216.104 111.177 216.063 111.154C216.034 111.134 216.01 111.108 215.991 111.078C215.972 111.049 215.96 111.015 215.954 110.981C215.948 110.946 215.949 110.91 215.957 110.876C215.965 110.842 215.98 110.81 216 110.781C216.234 110.427 216.55 110.133 216.92 109.926C217.291 109.718 217.705 109.602 218.13 109.586C218.202 109.59 218.269 109.62 218.318 109.672C218.368 109.724 218.395 109.793 218.395 109.865C218.392 109.936 218.361 110.002 218.309 110.051C218.257 110.099 218.188 110.125 218.117 110.124C217.781 110.141 217.453 110.237 217.161 110.405C216.869 110.573 216.62 110.808 216.436 111.091C216.406 111.121 216.369 111.142 216.329 111.154Z" fill="#263238"/>
<path d="M244.724 135.796C246.055 139.037 247.193 142.355 248.131 145.731C249.141 149.154 249.826 152.664 250.178 156.216C250.216 156.671 250.229 157.145 250.254 157.612V157.96C250.254 158.08 250.254 158.175 250.254 158.358V158.845L250.21 159.274C250.087 160.261 249.876 161.234 249.578 162.182C249.044 163.881 248.411 165.548 247.682 167.174C246.27 170.34 244.67 173.42 242.892 176.395L240.3 175.163C241.406 172.003 242.519 168.773 243.511 165.607C243.998 164.027 244.459 162.447 244.775 160.911C244.933 160.223 245.037 159.524 245.085 158.819V158.611V158.459C245.085 158.428 245.085 158.314 245.085 158.219L245.053 157.935C245.009 157.549 244.977 157.17 244.92 156.784C244.403 153.585 243.649 150.429 242.664 147.342C241.691 144.182 240.572 141.022 239.416 137.982L244.724 135.796Z" fill="#FFB573"/>
<path d="M242.241 129.741C244.547 130.443 247.297 138.374 247.297 138.374L238.366 144.764C238.366 144.764 235.105 138.14 236.072 135.164C237.096 132.067 239.611 128.945 242.241 129.741Z" fill="#407BFF"/>
<path opacity="0.2" d="M242.241 129.741C244.547 130.443 247.297 138.374 247.297 138.374L238.366 144.764C238.366 144.764 235.105 138.14 236.072 135.164C237.096 132.067 239.611 128.945 242.241 129.741Z" fill="white"/>
<path d="M222.825 110.971H221.681C221.681 110.971 222.459 111.634 222.825 110.971Z" fill="#263238"/>
</g>
<path d="M87.2681 145.168L86.8384 144.707C89.967 141.804 93.4801 139.346 97.279 137.401L97.5697 137.963C93.8234 139.884 90.3574 142.308 87.2681 145.168Z" fill="#407BFF"/>
<path d="M82.4078 150.414L81.9148 150.022C82.6922 149.036 83.5201 148.069 84.3796 147.146L84.841 147.582C84.0067 148.486 83.1914 149.472 82.4078 150.414Z" fill="#407BFF"/>
<path d="M118.381 223.024C142.814 223.024 162.621 203.217 162.621 178.784C162.621 154.351 142.814 134.544 118.381 134.544C93.9483 134.544 74.1414 154.351 74.1414 178.784C74.1414 203.217 93.9483 223.024 118.381 223.024Z" fill="#407BFF"/>
<path d="M118.381 213.431C137.516 213.431 153.027 197.919 153.027 178.784C153.027 159.65 137.516 144.138 118.381 144.138C99.2465 144.138 83.7349 159.65 83.7349 178.784C83.7349 197.919 99.2465 213.431 118.381 213.431Z" fill="white"/>
<mask id="mask1_311_145" style="mask-type:luminance" maskUnits="userSpaceOnUse" x="83" y="144" width="71" height="70">
<path d="M118.381 213.431C137.516 213.431 153.027 197.919 153.027 178.784C153.027 159.65 137.516 144.138 118.381 144.138C99.2465 144.138 83.7349 159.65 83.7349 178.784C83.7349 197.919 99.2465 213.431 118.381 213.431Z" fill="white"/>
</mask>
<g mask="url(#mask1_311_145)">
<path d="M134.004 188.176C135.635 191.968 137.322 195.76 139.022 199.552C139.865 201.443 140.731 203.318 141.62 205.176C142.509 207.035 143.415 208.863 144.337 210.662C144.811 211.541 145.273 212.451 145.772 213.279L146.145 213.911L146.328 214.227C146.309 214.202 146.285 214.181 146.259 214.163C146.177 214.107 146.259 214.208 146.423 214.321C147.043 214.657 147.717 214.883 148.414 214.991C149.315 215.158 150.224 215.274 151.138 215.339C153.034 215.472 155.075 215.472 157.104 215.409L160.169 215.282L163.222 215.08L164.012 218.758C159.839 220.153 155.507 221.019 151.119 221.337C149.936 221.414 148.748 221.404 147.567 221.305C146.169 221.208 144.796 220.884 143.503 220.344C142.608 219.952 141.804 219.38 141.139 218.663C140.94 218.45 140.756 218.222 140.59 217.981L140.356 217.627L139.894 216.932C139.262 215.996 138.713 215.036 138.137 214.126C135.938 210.371 133.985 206.579 132.146 202.75C130.307 198.92 128.601 195.058 126.989 191.089L134.004 188.176Z" fill="#7F3E3B"/>
<path d="M125.024 187.657C123.488 192.138 132.5 205.353 132.5 205.353L141.14 200.569C139.672 196.458 137.938 192.447 135.951 188.561C132.905 182.823 126.705 182.734 125.024 187.657Z" fill="#407BFF"/>
<path opacity="0.5" d="M125.024 187.657C123.488 192.138 132.5 205.353 132.5 205.353L141.14 200.569C139.672 196.458 137.938 192.447 135.951 188.561C132.905 182.823 126.705 182.734 125.024 187.657Z" fill="black"/>
<path opacity="0.2" d="M124.891 188.22C126.825 187.291 129.049 188.068 131.394 191.772C133.739 195.475 135.736 201.662 135.951 203.426L132.5 205.322C132.5 205.322 124.177 193.149 124.891 188.22Z" fill="black"/>
<path d="M130.851 184.232C130.851 184.232 137.291 199.362 132.652 227.537H105.855C105.526 223.422 107.416 203.356 102.777 183.973C105.726 183.404 108.709 183.026 111.707 182.842C115.496 182.624 119.294 182.624 123.083 182.842C125.704 183.107 128.3 183.572 130.851 184.232Z" fill="#407BFF"/>
<path opacity="0.5" d="M130.851 184.232C130.851 184.232 137.291 199.362 132.652 227.537H105.855C105.526 223.422 107.416 203.356 102.777 183.973C105.726 183.404 108.709 183.026 111.707 182.842C115.496 182.624 119.294 182.624 123.083 182.842C125.704 183.107 128.3 183.572 130.851 184.232Z" fill="black"/>
<path d="M123.21 203.577L117.452 197.422L121.655 191.241L127.406 197.397L123.21 203.577Z" fill="white"/>
<path opacity="0.2" d="M108.762 188.757C109.318 191.917 108.579 199.577 105.843 208.393C105.631 200.831 104.751 193.302 103.213 185.894V185.856C104.97 185.679 108.231 185.761 108.762 188.757Z" fill="black"/>
<path d="M112.39 170.012C113.237 173.678 114.185 180.389 111.708 182.835C111.708 182.835 113.275 186.532 120.082 186.539C125.542 186.539 123.096 182.835 123.096 182.835C118.976 181.862 118.976 178.828 119.589 175.978L112.39 170.012Z" fill="#7F3E3B"/>
<path opacity="0.2" d="M115.322 172.445L119.588 175.978C119.433 176.642 119.337 177.319 119.304 178C117.736 177.773 115.512 176.06 115.31 174.423C115.192 173.769 115.196 173.098 115.322 172.445Z" fill="black"/>
<path d="M123.077 159.11C125.352 160.582 125.681 167.661 122.35 168.678C119.02 169.696 118.761 156.323 123.077 159.11Z" fill="#263238"/>
<path d="M110.784 166.169C112.314 170.916 112.965 173.753 116.043 175.694C117.039 176.336 118.191 176.693 119.376 176.726C120.561 176.759 121.732 176.466 122.761 175.879C123.791 175.293 124.64 174.435 125.216 173.399C125.792 172.364 126.073 171.19 126.028 170.006C125.965 165.455 123.5 158.459 118.242 157.58C117.11 157.359 115.939 157.44 114.849 157.815C113.758 158.19 112.785 158.846 112.029 159.717C111.272 160.589 110.759 161.644 110.541 162.776C110.322 163.909 110.406 165.079 110.784 166.169Z" fill="#7F3E3B"/>
<path d="M112.51 161.278C115.038 164.703 115.038 170.126 113.066 170.758C111.094 171.39 105.615 165.07 105.331 161.695C105.103 158.983 106.904 158.983 106.904 158.983C106.904 158.983 103.997 157.296 107.296 155.267C111.019 152.986 120.233 153.201 116.087 149.99C119.089 148.998 120.252 150.913 120.063 152.076C122.275 151.399 122.129 148.998 122.129 148.998C122.129 148.998 128.007 152.284 125.359 156.114C122.711 159.944 117.838 161.176 112.51 161.278Z" fill="#263238"/>
<path d="M109.95 171.952C110.861 172.834 112.076 173.332 113.344 173.343C115.019 173.343 115.354 171.769 114.469 170.442C113.679 169.254 111.853 167.825 110.38 168.457C108.908 169.089 108.844 170.859 109.95 171.952Z" fill="#7F3E3B"/>
<path d="M118.483 165.904C118.584 166.296 118.875 166.568 119.115 166.536C119.355 166.504 119.5 166.119 119.399 165.727C119.298 165.335 119.007 165.063 118.767 165.095C118.527 165.127 118.388 165.512 118.483 165.904Z" fill="#263238"/>
<path d="M122.944 164.931C123.046 165.323 123.336 165.563 123.576 165.563C123.817 165.563 123.962 165.139 123.861 164.747C123.76 164.356 123.475 164.115 123.229 164.115C122.982 164.115 122.856 164.539 122.944 164.931Z" fill="#263238"/>
<path d="M121.592 165.436C122.37 166.532 123.293 167.519 124.335 168.369C124.109 168.621 123.831 168.82 123.519 168.952C123.208 169.084 122.871 169.146 122.533 169.133L121.592 165.436Z" fill="#630F0F"/>
<path d="M120.815 170.562C119.994 170.568 119.198 170.281 118.571 169.753C118.56 169.742 118.551 169.73 118.544 169.716C118.538 169.702 118.534 169.687 118.534 169.672C118.533 169.657 118.536 169.641 118.541 169.627C118.546 169.613 118.554 169.6 118.565 169.588C118.575 169.577 118.588 169.568 118.601 169.562C118.615 169.555 118.63 169.552 118.646 169.551C118.661 169.551 118.676 169.553 118.69 169.558C118.705 169.564 118.718 169.572 118.729 169.582C119.128 169.899 119.593 170.12 120.091 170.229C120.588 170.339 121.103 170.334 121.598 170.214C121.613 170.21 121.629 170.21 121.644 170.212C121.659 170.215 121.674 170.22 121.687 170.229C121.7 170.237 121.711 170.248 121.72 170.26C121.728 170.273 121.734 170.287 121.737 170.303C121.741 170.318 121.742 170.333 121.739 170.348C121.737 170.364 121.731 170.378 121.723 170.391C121.715 170.404 121.704 170.415 121.691 170.424C121.678 170.433 121.664 170.439 121.649 170.442C121.376 170.514 121.096 170.554 120.815 170.562Z" fill="#263238"/>
<path d="M116.719 164.779C116.688 164.785 116.656 164.785 116.624 164.779C116.567 164.753 116.521 164.705 116.498 164.646C116.474 164.587 116.474 164.522 116.498 164.463C116.64 164.118 116.865 163.813 117.153 163.575C117.44 163.337 117.782 163.173 118.147 163.098C118.21 163.089 118.274 163.105 118.325 163.143C118.376 163.181 118.41 163.237 118.419 163.3C118.424 163.331 118.422 163.362 118.414 163.392C118.406 163.422 118.393 163.451 118.374 163.475C118.355 163.5 118.331 163.521 118.304 163.536C118.278 163.552 118.248 163.562 118.217 163.566C117.935 163.632 117.673 163.766 117.453 163.955C117.233 164.144 117.061 164.384 116.953 164.653C116.931 164.694 116.897 164.729 116.855 164.751C116.814 164.774 116.766 164.783 116.719 164.779Z" fill="#263238"/>
<path d="M124.455 162.984C124.42 162.985 124.385 162.979 124.354 162.964C124.322 162.95 124.294 162.929 124.272 162.902C124.085 162.662 123.845 162.468 123.571 162.336C123.297 162.205 122.996 162.139 122.692 162.144C122.658 162.151 122.624 162.152 122.59 162.145C122.556 162.138 122.525 162.124 122.497 162.104C122.469 162.084 122.446 162.058 122.429 162.029C122.412 161.999 122.402 161.966 122.399 161.932C122.395 161.898 122.399 161.863 122.411 161.831C122.422 161.799 122.44 161.769 122.463 161.744C122.487 161.719 122.516 161.7 122.547 161.687C122.579 161.674 122.613 161.668 122.647 161.67C123.028 161.661 123.406 161.741 123.751 161.902C124.096 162.063 124.4 162.301 124.638 162.599C124.682 162.643 124.706 162.704 124.706 162.766C124.706 162.829 124.682 162.889 124.638 162.934C124.613 162.954 124.583 162.97 124.552 162.978C124.52 162.987 124.487 162.989 124.455 162.984Z" fill="#263238"/>
<path d="M108.067 191.184L107.056 193.427C106.708 194.198 106.373 194.97 106.045 195.747C105.381 197.302 104.781 198.863 104.149 200.43C103.517 201.997 103.018 203.59 102.569 205.151C102.329 205.941 102.133 206.725 101.937 207.515L101.678 208.69L101.64 208.836V208.911C101.64 208.911 101.64 208.911 101.64 208.975C101.696 209.437 101.842 209.883 102.07 210.289C102.398 210.924 102.778 211.531 103.207 212.103C104.177 213.408 105.233 214.647 106.367 215.813C108.687 218.227 111.246 220.616 113.812 222.872L111.644 225.944C108.419 224.219 105.356 222.205 102.493 219.927C100.996 218.742 99.5926 217.443 98.2965 216.04C97.599 215.26 96.9649 214.425 96.4005 213.544C95.6727 212.461 95.1698 211.242 94.9216 209.961C94.8453 209.544 94.8072 209.12 94.8079 208.697C94.8082 208.469 94.8208 208.241 94.8458 208.014V207.755V207.578L95.0354 206.15C95.1997 205.214 95.3451 204.254 95.5663 203.356C95.9641 201.534 96.4534 199.732 97.0325 197.959C97.595 196.196 98.2333 194.464 98.9285 192.764C99.2824 191.923 99.649 191.076 100.028 190.236C100.407 189.395 100.799 188.593 101.292 187.708L108.067 191.184Z" fill="#7F3E3B"/>
<path d="M102.777 183.967C98.0561 184.662 93.196 202.023 93.196 202.023L104.572 206.358C104.572 206.358 107.441 198.894 109.401 193.086C111.48 187.013 107.833 183.227 102.777 183.967Z" fill="#407BFF"/>
<path opacity="0.5" d="M102.777 183.967C98.0561 184.662 93.196 202.023 93.196 202.023L104.572 206.358C104.572 206.358 107.441 198.894 109.401 193.086C111.48 187.013 107.833 183.227 102.777 183.967Z" fill="black"/>
</g>
<path d="M227.553 275.063C251.986 275.063 271.793 255.256 271.793 230.823C271.793 206.39 251.986 186.583 227.553 186.583C203.12 186.583 183.313 206.39 183.313 230.823C183.313 255.256 203.12 275.063 227.553 275.063Z" fill="#407BFF"/>
<path d="M227.553 265.469C246.688 265.469 262.199 249.958 262.199 230.823C262.199 211.688 246.688 196.177 227.553 196.177C208.419 196.177 192.907 211.688 192.907 230.823C192.907 249.958 208.419 265.469 227.553 265.469Z" fill="white"/>
<mask id="mask2_311_145" style="mask-type:luminance" maskUnits="userSpaceOnUse" x="192" y="196" width="71" height="70">
<path d="M227.553 265.469C246.688 265.469 262.199 249.958 262.199 230.823C262.199 211.688 246.688 196.177 227.553 196.177C208.419 196.177 192.907 211.688 192.907 230.823C192.907 249.958 208.419 265.469 227.553 265.469Z" fill="white"/>
</mask>
<g mask="url(#mask2_311_145)">
<path d="M215.336 242.319C215.229 244.215 215.014 245.902 214.768 247.678C214.521 249.454 214.192 251.192 213.82 252.937C213.087 256.471 212.029 259.93 210.66 263.27L210.091 264.534L209.952 264.85L209.882 265.002L209.781 265.204C209.586 265.605 209.339 265.978 209.048 266.316C208.353 267.102 207.396 267.61 206.356 267.744C205.576 267.831 204.787 267.749 204.043 267.504C203.001 267.146 202.017 266.638 201.123 265.994C200.348 265.443 199.607 264.846 198.904 264.205C196.289 261.762 193.937 259.051 191.889 256.116L194.07 254.276C195.283 255.42 196.553 256.577 197.824 257.67C199.094 258.764 200.39 259.825 201.698 260.761C202.323 261.221 202.975 261.643 203.651 262.025C204.189 262.347 204.769 262.592 205.376 262.752C205.585 262.796 205.717 262.752 205.623 262.752C205.443 262.769 205.274 262.844 205.142 262.966C205.098 263.011 205.092 263.017 205.098 262.966L205.294 262.448L205.724 261.323C206.798 258.21 207.643 255.023 208.252 251.786C208.58 250.156 208.808 248.506 209.054 246.857C209.301 245.207 209.478 243.507 209.623 241.946L215.336 242.319Z" fill="#FF8B7B"/>
<path d="M211.424 235.462C209.105 236.05 207.481 245.574 207.481 245.574L213.864 249.96C213.864 249.96 219.988 240.334 218.206 237.788C216.354 235.108 214.806 234.602 211.424 235.462Z" fill="#263238"/>
<path opacity="0.2" d="M211.633 237.592L209.851 247.211L213.441 249.644L211.633 237.592Z" fill="black"/>
<path d="M194.132 253.916L191.093 249.113L189.367 254.567C189.367 254.567 191.864 257.184 194.114 256.564L194.132 253.916Z" fill="#FF8B7B"/>
<path d="M211.425 235.462C211.425 235.462 208.745 236.403 214.111 269.413H236.957C236.578 260.116 236.565 254.384 241.008 235.285C237.81 234.627 234.567 234.205 231.307 234.021C227.853 233.771 224.384 233.771 220.93 234.021C216.474 234.425 211.425 235.462 211.425 235.462Z" fill="#263238"/>
<path d="M216.487 211.111C224.665 198.016 248.889 208.754 236.243 221.64C219.337 238.862 216.487 211.111 216.487 211.111Z" fill="#263238"/>
<path d="M221.897 229.635C221.051 229.655 220.216 229.436 219.489 229.003C214.433 225.843 216.961 212.527 217.062 211.939C217.074 211.877 217.11 211.823 217.162 211.787C217.214 211.752 217.278 211.738 217.34 211.749C217.401 211.763 217.454 211.799 217.488 211.851C217.522 211.903 217.535 211.966 217.523 212.027C217.523 212.166 214.932 225.609 219.735 228.573C222.061 230.008 225.784 228.769 230.808 224.895C230.858 224.856 230.921 224.838 230.983 224.845C231.046 224.852 231.103 224.884 231.143 224.933C231.18 224.984 231.195 225.047 231.187 225.109C231.179 225.171 231.147 225.228 231.099 225.268C227.345 228.175 224.26 229.635 221.897 229.635Z" fill="#263238"/>
<path d="M231.825 207.407C234.353 199.767 247.897 202.212 243.132 210.34C238.088 218.948 231.825 207.407 231.825 207.407Z" fill="#263238"/>
<path d="M230.296 222.335C229.664 225.678 228.988 231.815 231.326 234.021C231.326 234.021 230.41 237.408 224.21 237.408C217.39 237.408 220.949 234.021 220.949 234.021C224.671 233.13 224.576 230.368 223.932 227.777L230.296 222.335Z" fill="#FF8B7B"/>
<path d="M223.717 237.402C224.7 238.384 225.467 239.562 225.967 240.859C227.161 240.436 233.323 237.067 233.443 233.907C232.623 233.687 231.792 233.51 230.953 233.376C228.893 235.272 226.413 236.651 223.717 237.402Z" fill="#407BFF"/>
<path d="M223.717 237.402C222.793 238.435 222.028 239.601 221.448 240.859C220.315 240.202 219.463 239.151 219.055 237.906C218.647 236.661 218.711 235.31 219.236 234.109C220.157 233.817 221.114 233.654 222.08 233.623C222.08 233.623 219.046 236.056 223.717 237.402Z" fill="#407BFF"/>
<path opacity="0.2" d="M227.68 224.553L223.888 227.77C224.05 228.375 224.157 228.992 224.21 229.616C225.632 229.407 227.585 227.846 227.737 226.361C227.827 225.76 227.808 225.148 227.68 224.553Z" fill="black"/>
<path d="M233.797 216.217C232.489 221.64 232.053 223.966 228.779 226.291C223.862 229.793 217.485 226.999 217.144 221.286C216.84 216.148 219.04 208.134 224.785 206.902C226.053 206.623 227.372 206.674 228.616 207.049C229.86 207.425 230.987 208.112 231.89 209.045C232.793 209.979 233.442 211.128 233.776 212.383C234.11 213.639 234.117 214.958 233.797 216.217Z" fill="#FF8B7B"/>
<path d="M224.608 215.472C224.525 215.92 224.228 216.243 223.938 216.186C223.647 216.129 223.47 215.731 223.552 215.288C223.634 214.846 223.931 214.517 224.222 214.568C224.513 214.619 224.652 215.029 224.608 215.472Z" fill="#263238"/>
<path d="M219.552 214.568C219.47 215.01 219.173 215.333 218.876 215.282C218.579 215.231 218.414 214.827 218.49 214.378C218.566 213.93 218.876 213.614 219.166 213.664C219.457 213.715 219.602 214.132 219.552 214.568Z" fill="#263238"/>
<path d="M219.267 213.721L218.243 213.222C218.243 213.222 218.648 214.157 219.267 213.721Z" fill="#263238"/>
<path d="M221.353 216.382C220.774 217.33 220.068 218.196 219.255 218.954C219.455 219.156 219.696 219.313 219.962 219.413C220.228 219.514 220.513 219.555 220.797 219.535L221.353 216.382Z" fill="#FF5652"/>
<path d="M222.813 221.64C223.784 221.653 224.722 221.288 225.429 220.623C225.453 220.597 225.467 220.563 225.467 220.528C225.467 220.493 225.453 220.459 225.429 220.433C225.417 220.42 225.402 220.41 225.386 220.403C225.37 220.397 225.352 220.393 225.335 220.393C225.317 220.393 225.299 220.397 225.283 220.403C225.267 220.41 225.252 220.42 225.24 220.433C224.823 220.813 224.323 221.091 223.78 221.242C223.236 221.394 222.665 221.415 222.111 221.305C222.094 221.301 222.076 221.301 222.058 221.305C222.041 221.308 222.024 221.315 222.01 221.325C221.995 221.335 221.982 221.348 221.973 221.363C221.963 221.378 221.956 221.395 221.953 221.413C221.948 221.447 221.956 221.482 221.976 221.51C221.996 221.539 222.027 221.558 222.061 221.564C222.309 221.612 222.56 221.638 222.813 221.64Z" fill="#263238"/>
<path d="M236.015 217.829C233.209 222.493 225.707 212.773 224.462 208.027C222.617 208.937 218.838 211.629 218.774 209.885C218.711 208.141 225.151 205.113 228.596 205.65C232.04 206.188 237.943 214.619 236.015 217.829Z" fill="#263238"/>
<path d="M234.657 220.553C234.239 221.548 233.447 222.338 232.451 222.752C231.124 223.283 230.302 222.12 230.555 220.799C230.763 219.599 231.718 217.873 233.083 217.905C233.389 217.916 233.688 218.004 233.951 218.16C234.215 218.317 234.435 218.537 234.591 218.8C234.748 219.064 234.836 219.362 234.847 219.668C234.859 219.974 234.793 220.279 234.657 220.553Z" fill="#FF8B7B"/>
<path d="M226.314 213.531C226.357 213.534 226.399 213.523 226.434 213.5C226.497 213.469 226.545 213.414 226.567 213.348C226.59 213.281 226.585 213.209 226.555 213.146C226.371 212.764 226.098 212.431 225.759 212.176C225.421 211.921 225.026 211.751 224.608 211.68C224.573 211.676 224.538 211.68 224.504 211.69C224.471 211.7 224.44 211.717 224.413 211.739C224.386 211.761 224.363 211.789 224.347 211.82C224.33 211.851 224.32 211.885 224.317 211.92C224.313 211.954 224.315 211.989 224.325 212.023C224.334 212.056 224.351 212.088 224.372 212.115C224.394 212.142 224.421 212.164 224.452 212.181C224.483 212.197 224.516 212.207 224.551 212.21C224.881 212.272 225.191 212.41 225.457 212.615C225.723 212.819 225.936 213.083 226.081 213.386C226.101 213.43 226.134 213.468 226.176 213.493C226.217 213.519 226.266 213.532 226.314 213.531Z" fill="#263238"/>
<path d="M218.32 212.672C218.393 212.669 218.462 212.64 218.516 212.59C218.739 212.341 219.018 212.148 219.33 212.028C219.642 211.909 219.978 211.865 220.31 211.901C220.345 211.907 220.38 211.907 220.415 211.899C220.449 211.892 220.481 211.878 220.51 211.858C220.539 211.838 220.563 211.813 220.582 211.783C220.601 211.754 220.614 211.721 220.62 211.686C220.627 211.652 220.628 211.617 220.621 211.583C220.615 211.548 220.601 211.516 220.582 211.487C220.562 211.458 220.537 211.433 220.508 211.414C220.479 211.395 220.446 211.382 220.412 211.376C219.992 211.323 219.565 211.372 219.168 211.518C218.771 211.664 218.415 211.904 218.13 212.217C218.081 212.268 218.053 212.336 218.053 212.407C218.053 212.477 218.081 212.545 218.13 212.596C218.155 212.621 218.185 212.64 218.217 212.653C218.25 212.666 218.285 212.672 218.32 212.672Z" fill="#263238"/>
<path d="M224.317 214.619L223.293 214.119C223.293 214.119 223.698 215.055 224.317 214.619Z" fill="#263238"/>
<path d="M243.479 241.308C244.735 244.367 245.82 247.494 246.728 250.674C247.688 253.889 248.379 257.178 248.795 260.508L248.927 261.772L248.991 263.093V263.422V263.636V263.99C248.953 264.436 248.856 264.874 248.7 265.292C248.437 265.959 248.051 266.57 247.562 267.093C246.834 267.847 245.997 268.486 245.078 268.989C244.294 269.433 243.479 269.819 242.639 270.146C239.502 271.347 236.232 272.166 232.9 272.586L232.268 269.811C235.172 268.751 238.003 267.501 240.743 266.07C241.363 265.728 241.965 265.352 242.544 264.945C243.022 264.633 243.448 264.249 243.808 263.807C243.922 263.649 243.941 263.542 243.922 263.567C243.89 263.602 243.873 263.646 243.871 263.693C243.868 263.712 243.868 263.731 243.871 263.75V263.662V263.39L243.751 262.309L243.574 261.21C243.467 260.483 243.296 259.731 243.151 258.991C243.006 258.252 242.822 257.506 242.614 256.76C242.241 255.269 241.798 253.777 241.35 252.286C240.402 249.328 239.359 246.32 238.259 243.438L243.479 241.308Z" fill="#FF8B7B"/>
<path d="M241.04 235.298C243.328 235.993 246.096 243.874 246.096 243.874L237.216 250.225C237.216 250.225 233.98 243.646 234.941 240.688C235.889 237.604 238.398 234.501 241.04 235.298Z" fill="#263238"/>
</g>
<defs>
<filter id="filter0_dd_311_145" x="8" y="11" width="346" height="346" filterUnits="userSpaceOnUse" color-interpolation-filters="sRGB">
<feFlood flood-opacity="0" result="BackgroundImageFix"/>
<feColorMatrix in="SourceAlpha" type="matrix" values="0 0 0 0 0 0 0 0 0 0 0 0 0 0 0 0 0 0 127 0" result="hardAlpha"/>
<feMorphology radius="2" operator="dilate" in="SourceAlpha" result="effect1_dropShadow_311_145"/>
<feOffset dy="2"/>
<feGaussianBlur stdDeviation="3"/>
<feColorMatrix type="matrix" values="0 0 0 0 0.235294 0 0 0 0 0.25098 0 0 0 0 0.262745 0 0 0 0.15 0"/>
<feBlend mode="normal" in2="BackgroundImageFix" result="effect1_dropShadow_311_145"/>
<feColorMatrix in="SourceAlpha" type="matrix" values="0 0 0 0 0 0 0 0 0 0 0 0 0 0 0 0 0 0 127 0" result="hardAlpha"/>
<feOffset dy="1"/>
<feGaussianBlur stdDeviation="1"/>
<feColorMatrix type="matrix" values="0 0 0 0 0.235294 0 0 0 0 0.25098 0 0 0 0 0.262745 0 0 0 0.3 0"/>
<feBlend mode="normal" in2="effect1_dropShadow_311_145" result="effect2_dropShadow_311_145"/>
<feBlend mode="normal" in="SourceGraphic" in2="effect2_dropShadow_311_145" result="shape"/>
</filter>
</defs>
</svg>
