<svg width="361" height="364" viewBox="0 0 361 364" fill="none" xmlns="http://www.w3.org/2000/svg">
<g filter="url(#filter0_dd_311_171)">
<circle cx="181" cy="182" r="165" fill="#FFFFFC"/>
</g>
<path d="M303.892 196.705C302.423 178.351 292.376 166.99 281.352 160.051C264.905 149.702 252.934 133.699 246.504 115.363C241.105 99.9697 229.625 85.3105 206.381 85.3105C197.108 85.2531 188.018 87.8851 180.211 92.8879C172.403 97.8908 166.214 105.05 162.392 113.498C161.298 115.931 159.618 118.056 157.502 119.68C155.386 121.304 152.9 122.378 150.266 122.805L150.047 122.847C147.961 123.2 145.826 123.137 143.765 122.659C141.704 122.181 139.758 121.299 138.04 120.064C130.423 114.55 121.286 111.527 111.883 111.408C102.48 111.29 93.2708 114.083 85.5169 119.403C77.763 124.724 71.8442 132.312 68.5717 141.128C65.2991 149.944 64.833 159.556 67.2371 168.648C70.3003 180.136 68.7536 192.367 62.927 202.732C58.914 209.791 56.8694 217.798 57.0065 225.917C57.415 250.244 87.4793 239.747 111.801 240.315H112.523C116.022 240.366 119.444 241.348 122.437 243.161C125.429 244.974 127.885 247.552 129.55 250.629C137.312 264.684 131.273 300.61 159.183 304.594C164.979 305.423 170.633 303.493 175.76 301.486C189.336 296.158 204.267 294.973 218.293 298.958C225.203 300.912 232.467 301.274 239.537 300.017C246.607 298.76 253.301 295.915 259.113 291.698C264.926 287.481 269.707 282.001 273.096 275.67C276.486 269.339 278.396 262.322 278.682 255.146C278.682 254.75 278.682 254.359 278.682 253.962C278.769 249.701 279.713 245.501 281.457 241.612C283.202 237.724 285.711 234.226 288.836 231.328C298.137 222.672 304.987 210.316 303.892 196.705Z" fill="url(#paint0_linear_311_171)"/>
<path d="M116.305 293.51C126.124 283.691 126.124 267.77 116.305 257.951C106.485 248.131 90.5646 248.131 80.7451 257.951C70.9256 267.77 70.9256 283.691 80.7451 293.51C90.5646 303.33 106.485 303.33 116.305 293.51Z" fill="url(#paint1_linear_311_171)"/>
<path d="M157.21 95.2084C159.917 87.8041 156.108 79.6075 148.704 76.9009C141.3 74.1942 133.103 78.0024 130.397 85.4067C127.69 92.811 131.498 101.008 138.903 103.714C146.307 106.421 154.503 102.613 157.21 95.2084Z" fill="url(#paint2_linear_311_171)"/>
<path d="M287.198 127.506C293.899 119.363 292.729 107.33 284.587 100.63C276.444 93.9294 264.411 95.0987 257.711 103.241C251.01 111.384 252.18 123.417 260.322 130.117C268.465 136.818 280.498 135.648 287.198 127.506Z" fill="url(#paint3_linear_311_171)"/>
<path d="M81.8195 293.582L81.2866 293.351C86.023 282.416 96.3366 271.558 109.545 263.565C123.589 255.063 139.225 250.96 151.374 252.577L151.297 253.169C139.272 251.564 123.778 255.644 109.853 264.074C96.7392 272.002 86.5204 282.76 81.8195 293.582Z" fill="#0C5572"/>
<path d="M81.4997 293.274C81.4997 293.274 74.2589 302.949 77.8231 312.812C77.8231 312.8 83.2048 309.301 81.4997 293.274Z" fill="#0C5572"/>
<path d="M86.0702 285.619C86.0702 285.619 84.3947 296.169 91.2447 302.41C91.2447 302.41 94.0096 297.46 86.0702 285.619Z" fill="#0C5572"/>
<path d="M85.6085 285.767C85.6085 285.767 74.9516 285.086 69.3804 292.493C69.3804 292.493 74.5786 294.778 85.6085 285.767Z" fill="#0C5572"/>
<path d="M92.9321 276.377C92.9321 276.377 89.5693 288.579 96.8456 296.827C96.8456 296.827 100.741 291.344 92.9321 276.377Z" fill="#0C5572"/>
<path d="M92.3697 276.496C92.3697 276.496 79.9367 274.305 72.3821 282.298C72.3998 282.298 78.2019 285.672 92.3697 276.496Z" fill="#0C5572"/>
<path d="M102.902 267.935C102.902 267.935 97.189 280.883 103.844 291.161C103.844 291.161 109.054 285.749 102.902 267.935Z" fill="#0C5572"/>
<path d="M102.263 267.97C102.263 267.97 88.8528 263.494 79.2261 271.084C79.2261 271.084 85.0992 275.767 102.263 267.97Z" fill="#0C5572"/>
<path d="M116.158 259.877C116.158 259.877 107.052 272.31 111.747 284.855C111.747 284.855 118.58 280.291 116.158 259.877Z" fill="#0C5572"/>
<path d="M115.466 259.764C115.466 259.764 102.216 251.872 90.1614 257.71C90.1614 257.71 95.3537 264.074 115.466 259.764Z" fill="#0C5572"/>
<path d="M129.87 254.548C129.87 254.548 119.835 268.272 125.01 282.079C125.01 282.067 132.523 277.064 129.87 254.548Z" fill="#0C5572"/>
<path d="M130.735 254.75C130.735 254.75 117.917 243.583 103.719 247.568C103.719 247.568 108.083 255.484 130.735 254.75Z" fill="#0C5572"/>
<path d="M283.436 106.678L283.981 106.464C288.35 117.56 288.747 132.515 285.059 147.511C281.139 163.455 272.987 177.416 263.248 184.858L262.898 184.396C272.531 177.025 280.601 163.189 284.49 147.375C288.149 132.497 287.764 117.66 283.436 106.678Z" fill="#0C5572"/>
<path d="M283.886 106.672C283.886 106.672 282.163 94.7123 272.673 90.2423C272.673 90.2423 271.329 96.5477 283.886 106.672Z" fill="#0C5572"/>
<path d="M286.059 115.322C286.059 115.322 279.789 106.672 270.536 107.104C270.536 107.104 272.087 112.569 286.059 115.322Z" fill="#0C5572"/>
<path d="M286.284 114.889C286.284 114.889 294.301 107.832 293.004 98.6613C293.004 98.6613 287.711 100.716 286.284 114.889Z" fill="#0C5572"/>
<path d="M287.741 126.707C287.741 126.707 281.477 115.7 270.524 115.014C270.524 115.014 271.643 121.621 287.741 126.707Z" fill="#0C5572"/>
<path d="M288.06 126.227C288.06 126.227 298.421 118.957 298.09 108.004C298.09 108.004 291.589 109.721 288.06 126.227Z" fill="#0C5572"/>
<path d="M286.663 139.726C286.663 139.726 281.56 126.541 269.553 123.989C269.553 123.989 269.719 131.479 286.663 139.726Z" fill="#0C5572"/>
<path d="M287.095 139.246C287.095 139.246 299.747 132.929 301.18 120.757C301.18 120.757 293.714 121.621 287.095 139.246Z" fill="#0C5572"/>
<path d="M282.992 154.776C282.992 154.776 280.624 139.536 268.446 133.995C268.446 134.013 266.847 142.053 282.992 154.776Z" fill="#0C5572"/>
<path d="M283.561 154.385C283.561 154.385 298.516 150.602 302.891 137.956C302.891 137.956 294.733 137.115 283.561 154.385Z" fill="#0C5572"/>
<path d="M277.06 168.257C277.06 168.257 274.455 151.46 261.033 145.356C261.033 145.356 259.269 154.213 277.06 168.257Z" fill="#0C5572"/>
<path d="M276.302 168.73C276.302 168.73 293.265 167.546 300.488 154.705C300.488 154.705 291.808 152.194 276.302 168.73Z" fill="#0C5572"/>
<path d="M250.607 169.577L249.032 168.002C248.56 167.53 248 167.156 247.383 166.901C246.767 166.646 246.106 166.515 245.438 166.516H214.741C213.801 166.516 212.871 166.331 212.004 165.972C211.136 165.612 210.348 165.086 209.683 164.421C209.019 163.757 208.492 162.969 208.133 162.101C207.774 161.233 207.589 160.303 207.589 159.364V144.764C207.587 143.824 207.771 142.893 208.13 142.025C208.489 141.156 209.015 140.366 209.68 139.702C210.344 139.037 211.133 138.509 212.001 138.15C212.87 137.79 213.801 137.606 214.741 137.606H246.552C247.49 137.606 248.42 137.79 249.288 138.149C250.156 138.507 250.944 139.034 251.608 139.697C252.273 140.361 252.799 141.149 253.159 142.016C253.518 142.884 253.703 143.814 253.703 144.752V168.275C253.728 168.644 253.637 169.011 253.443 169.326C253.249 169.641 252.961 169.887 252.62 170.031C252.279 170.174 251.902 170.207 251.541 170.126C251.18 170.045 250.854 169.853 250.607 169.577Z" fill="url(#paint4_linear_311_171)"/>
<path d="M221.922 152.331C221.924 152.542 221.862 152.749 221.745 152.925C221.629 153.101 221.462 153.239 221.267 153.32C221.072 153.401 220.858 153.423 220.65 153.382C220.443 153.341 220.253 153.24 220.103 153.09C219.954 152.941 219.852 152.75 219.811 152.543C219.77 152.336 219.792 152.121 219.873 151.926C219.955 151.731 220.092 151.565 220.268 151.448C220.444 151.331 220.651 151.27 220.863 151.271C221.002 151.271 221.14 151.298 221.268 151.352C221.397 151.405 221.514 151.483 221.612 151.581C221.71 151.68 221.788 151.797 221.842 151.925C221.895 152.054 221.922 152.191 221.922 152.331Z" fill="white"/>
<path d="M231.703 152.331C231.703 152.54 231.641 152.745 231.524 152.919C231.408 153.094 231.242 153.23 231.049 153.31C230.855 153.39 230.642 153.411 230.437 153.37C230.231 153.329 230.042 153.228 229.894 153.08C229.746 152.932 229.645 152.743 229.604 152.537C229.563 152.332 229.584 152.119 229.664 151.925C229.744 151.732 229.88 151.566 230.054 151.45C230.229 151.333 230.434 151.271 230.643 151.271C230.924 151.271 231.194 151.383 231.393 151.581C231.591 151.78 231.703 152.05 231.703 152.331Z" fill="white"/>
<path d="M241.49 152.331C241.49 152.54 241.428 152.745 241.311 152.919C241.195 153.094 241.029 153.23 240.835 153.31C240.642 153.39 240.429 153.411 240.223 153.37C240.018 153.329 239.829 153.228 239.681 153.08C239.532 152.932 239.431 152.743 239.39 152.537C239.35 152.332 239.371 152.119 239.451 151.925C239.531 151.732 239.667 151.566 239.841 151.45C240.015 151.333 240.22 151.271 240.43 151.271C240.711 151.271 240.981 151.383 241.179 151.581C241.378 151.78 241.49 152.05 241.49 152.331Z" fill="white"/>
<path d="M177.418 120.318L179.194 118.542C179.729 118.012 180.364 117.592 181.062 117.308C181.76 117.023 182.508 116.88 183.261 116.885H217.973C220.118 116.883 222.174 116.03 223.69 114.514C225.207 112.998 226.059 110.942 226.061 108.797V92.3026C226.059 90.1587 225.206 88.1032 223.69 86.5878C222.173 85.0724 220.117 84.2211 217.973 84.2211H182.024C179.881 84.2211 177.825 85.0726 176.309 86.5881C174.794 88.1037 173.942 90.1593 173.942 92.3026V118.874C173.942 119.277 174.061 119.671 174.284 120.006C174.507 120.341 174.825 120.603 175.197 120.758C175.569 120.912 175.979 120.953 176.374 120.875C176.769 120.797 177.133 120.603 177.418 120.318Z" fill="url(#paint5_linear_311_171)"/>
<path d="M191.272 100.745C191.278 100.956 191.22 101.164 191.107 101.343C190.994 101.521 190.83 101.661 190.637 101.746C190.444 101.83 190.229 101.855 190.022 101.817C189.814 101.779 189.623 101.68 189.472 101.533C189.321 101.385 189.217 101.196 189.174 100.989C189.132 100.782 189.152 100.568 189.232 100.372C189.312 100.177 189.449 100.01 189.625 99.8931C189.8 99.776 190.007 99.714 190.218 99.7151C190.493 99.7165 190.757 99.8248 190.953 100.017C191.15 100.209 191.264 100.47 191.272 100.745Z" fill="white"/>
<path d="M201.058 100.745C201.064 100.956 201.007 101.164 200.894 101.342C200.781 101.52 200.618 101.66 200.425 101.745C200.232 101.83 200.018 101.855 199.811 101.818C199.603 101.78 199.411 101.682 199.26 101.535C199.109 101.388 199.005 101.199 198.962 100.993C198.918 100.786 198.938 100.572 199.017 100.376C199.096 100.181 199.232 100.014 199.407 99.896C199.582 99.7781 199.788 99.7152 199.999 99.7151C200.275 99.715 200.54 99.8226 200.738 100.015C200.936 100.207 201.051 100.469 201.058 100.745Z" fill="white"/>
<path d="M210.845 100.745C210.851 100.956 210.794 101.164 210.681 101.342C210.568 101.52 210.405 101.66 210.212 101.745C210.019 101.83 209.805 101.855 209.597 101.818C209.39 101.78 209.198 101.682 209.047 101.535C208.896 101.388 208.792 101.199 208.748 100.993C208.705 100.786 208.724 100.572 208.804 100.376C208.883 100.181 209.019 100.014 209.193 99.896C209.368 99.7781 209.574 99.7152 209.785 99.7151C210.061 99.715 210.326 99.8226 210.524 100.015C210.722 100.207 210.837 100.469 210.845 100.745Z" fill="white"/>
<path d="M276.722 175.841H141.232C137.278 175.841 134.074 179.046 134.074 182.999V270.362C134.074 274.315 137.278 277.52 141.232 277.52H276.722C280.676 277.52 283.88 274.315 283.88 270.362V182.999C283.88 179.046 280.676 175.841 276.722 175.841Z" fill="url(#paint6_linear_311_171)"/>
<g style="mix-blend-mode:multiply" opacity="0.63">
<path d="M141.238 175.841C140.297 175.84 139.366 176.025 138.497 176.384C137.627 176.744 136.838 177.271 136.172 177.935C135.507 178.6 134.979 179.39 134.619 180.258C134.259 181.127 134.074 182.058 134.074 182.999V247.953H153.161C159.184 247.947 164.957 245.55 169.214 241.289C173.47 237.028 175.861 231.252 175.861 225.23V175.841H141.238Z" fill="#04303D"/>
</g>
<path d="M276.722 190.897H141.237C139.547 190.897 138.177 192.267 138.177 193.958V270.362C138.177 272.052 139.547 273.423 141.237 273.423H276.722C278.413 273.423 279.783 272.052 279.783 270.362V193.958C279.783 192.267 278.413 190.897 276.722 190.897Z" fill="url(#paint7_linear_311_171)"/>
<path d="M224.45 203.78C224.479 202.232 224.647 200.691 224.953 199.174C225.765 194.982 227.914 182.91 217.849 177.73C205.783 171.525 200.502 180.915 200.502 180.915C200.502 180.915 188.536 183.502 192.805 198.984C193.427 201.17 193.787 203.422 193.877 205.692C193.96 207.51 193.837 209.331 193.51 211.121C193.398 211.691 193.415 212.279 193.558 212.841C193.702 213.404 193.968 213.927 194.339 214.374C194.709 214.821 195.174 215.181 195.701 215.426C196.227 215.671 196.801 215.796 197.382 215.793H221.691C222.315 215.793 222.93 215.644 223.485 215.36C224.04 215.076 224.52 214.664 224.885 214.158C225.25 213.652 225.489 213.067 225.583 212.451C225.678 211.834 225.624 211.204 225.427 210.612C224.719 208.406 224.388 206.096 224.45 203.78Z" fill="url(#paint8_linear_311_171)"/>
<path d="M180.662 273.524L190.81 237.296L185.339 224.916C185.339 224.916 179.75 227.551 177.613 231.825C176.299 234.448 172.634 256.721 169.999 273.524H180.662Z" fill="#FFC392"/>
<path d="M247.99 273.524C245.356 256.721 241.685 234.448 240.376 231.825C238.239 227.551 232.65 224.916 232.65 224.916L227.209 239.054L237.274 273.524H247.99Z" fill="#FFC392"/>
<path d="M214.676 213.436V220.494H203.977V213.525C205.624 214.411 207.468 214.867 209.338 214.851C211.208 214.836 213.044 214.349 214.676 213.436Z" fill="#FFC392"/>
<path d="M203.977 213.519V217.072C208.921 218.392 213.059 217.664 214.676 214.502V213.43C213.043 214.341 211.206 214.826 209.336 214.839C207.466 214.853 205.623 214.395 203.977 213.507V213.519Z" fill="#F99F5D"/>
<path d="M186.879 247.556C186.175 250.953 186.475 254.481 187.743 257.71L189.519 262.298C190.396 264.53 190.703 271.049 190.342 273.547H227.564C227.233 271.072 227.511 264.554 228.387 262.298L230.164 257.71C231.445 254.485 231.76 250.957 231.069 247.556L229.992 242.34L232.644 224.916L214.237 219.901H203.717L185.31 224.91L187.962 242.334L186.879 247.556Z" fill="url(#paint9_linear_311_171)"/>
<path d="M231.069 247.556C231.768 250.954 231.466 254.481 230.199 257.71L228.423 262.298C227.553 264.536 227.268 271.049 227.6 273.547H190.366C190.703 271.072 190.419 264.56 189.543 262.298L187.767 257.71C186.502 254.48 186.202 250.953 186.902 247.556L187.986 242.34L185.333 224.916L191.769 223.14L194.285 222.459L203.758 219.884H214.279L225.528 222.939L226.996 223.341L232.715 224.892L230.063 242.316L231.069 247.556Z" fill="url(#paint10_linear_311_171)"/>
<path d="M203.136 190.086C200.472 187.564 198.293 195.485 198.293 195.485V203.46C198.293 209.481 203.178 215.331 209.205 215.331C215.232 215.331 220.111 209.481 220.111 203.46V194.443C217.144 195.223 214.028 195.232 211.058 194.469C208.087 193.706 205.36 192.198 203.136 190.086Z" fill="#FFC392"/>
<path d="M198.459 205.384C195.203 204.715 194.978 199.689 196.221 198.28C197.026 197.362 197.844 197.919 198.323 198.428V203.478C198.313 204.116 198.359 204.754 198.459 205.384Z" fill="#F99F5D"/>
<path d="M219.951 205.373C220.057 204.741 220.11 204.101 220.111 203.46V198.357C220.596 197.859 221.383 197.38 222.153 198.262C223.373 199.683 223.183 204.68 219.951 205.373Z" fill="#F99F5D"/>
<path d="M206.937 198.351C206.245 197.84 205.406 197.565 204.546 197.565C203.685 197.565 202.847 197.84 202.154 198.351C201.887 198.552 201.822 198.878 201.988 199.032L202.041 199.085C202.132 199.157 202.245 199.196 202.361 199.196C202.477 199.196 202.59 199.157 202.681 199.085C203.22 198.684 203.874 198.468 204.546 198.468C205.217 198.468 205.871 198.684 206.411 199.085C206.502 199.157 206.614 199.196 206.73 199.196C206.846 199.196 206.959 199.157 207.05 199.085L207.103 199.032C207.263 198.878 207.204 198.552 206.937 198.351Z" fill="#3B2823"/>
<path d="M204.421 201.394C204.85 201.394 205.197 201.047 205.197 200.618C205.197 200.19 204.85 199.843 204.421 199.843C203.993 199.843 203.646 200.19 203.646 200.618C203.646 201.047 203.993 201.394 204.421 201.394Z" fill="#3B2823"/>
<path d="M215.972 198.351C215.28 197.841 214.443 197.565 213.583 197.565C212.723 197.565 211.886 197.841 211.194 198.351C210.928 198.552 210.863 198.878 211.023 199.032L211.076 199.085C211.168 199.156 211.282 199.195 211.399 199.195C211.515 199.195 211.629 199.156 211.721 199.085C212.26 198.684 212.914 198.468 213.586 198.468C214.258 198.468 214.912 198.684 215.451 199.085C215.542 199.157 215.655 199.196 215.771 199.196C215.887 199.196 216 199.157 216.091 199.085L216.144 199.032C216.304 198.878 216.268 198.552 215.972 198.351Z" fill="#3B2823"/>
<path d="M214.291 200.618C214.289 200.771 214.243 200.921 214.157 201.048C214.071 201.174 213.95 201.273 213.808 201.331C213.666 201.388 213.51 201.403 213.36 201.372C213.21 201.342 213.072 201.267 212.965 201.159C212.857 201.05 212.783 200.912 212.754 200.762C212.725 200.611 212.74 200.456 212.799 200.314C212.858 200.173 212.957 200.052 213.085 199.967C213.212 199.882 213.362 199.837 213.515 199.837C213.617 199.837 213.719 199.857 213.813 199.896C213.908 199.936 213.994 199.993 214.066 200.066C214.138 200.139 214.195 200.225 214.233 200.32C214.272 200.414 214.291 200.516 214.291 200.618Z" fill="#3B2823"/>
<path d="M210.312 206.095C210.242 205.795 210.073 205.528 209.832 205.337C209.592 205.146 209.293 205.042 208.986 205.042C208.678 205.042 208.38 205.146 208.139 205.337C207.898 205.528 207.729 205.795 207.66 206.095C207.66 206.462 208.252 206.533 208.986 206.533C209.72 206.533 210.312 206.462 210.312 206.095Z" fill="#F99F5D"/>
<path d="M208.317 209.31C208.699 209.512 209.137 209.578 209.561 209.497C209.985 209.416 210.369 209.194 210.65 208.866C210.682 208.823 210.728 208.793 210.78 208.781C210.832 208.769 210.887 208.776 210.934 208.801C210.955 208.819 210.972 208.843 210.984 208.869C210.996 208.895 211.002 208.923 211.002 208.952C211.002 208.98 210.996 209.008 210.984 209.034C210.972 209.06 210.955 209.084 210.934 209.102C210.599 209.494 210.142 209.76 209.636 209.857C209.13 209.954 208.607 209.876 208.151 209.635C208.027 209.57 207.98 209.434 208.039 209.357C208.073 209.32 208.119 209.294 208.17 209.286C208.22 209.277 208.272 209.286 208.317 209.31Z" fill="#3B2823"/>
<g style="mix-blend-mode:multiply" opacity="0.35">
<path d="M203.912 203.354C203.912 202.797 203.095 202.341 202.083 202.341C201.07 202.341 200.253 202.797 200.253 203.354C200.253 203.91 201.07 204.36 202.083 204.36C203.095 204.36 203.912 203.916 203.912 203.354Z" fill="#F99F5D"/>
<path d="M218.867 203.354C218.867 202.797 218.05 202.341 217.038 202.341C216.026 202.341 215.208 202.797 215.208 203.354C215.208 203.91 216.031 204.36 217.038 204.36C218.044 204.36 218.867 203.916 218.867 203.354Z" fill="#F99F5D"/>
</g>
<path d="M226.925 223.365C225.232 231.742 218.044 238.847 209.359 238.847C200.673 238.847 193.374 231.654 191.745 223.175L194.262 222.495L203.734 219.919H214.255L225.504 222.974L226.925 223.365Z" fill="#FFC392"/>
<path d="M210.866 269.581C215.265 268.536 217.985 264.122 216.94 259.722C215.895 255.322 211.481 252.603 207.082 253.648C202.682 254.693 199.962 259.106 201.007 263.506C202.052 267.906 206.466 270.626 210.866 269.581Z" fill="#E51C1C"/>
<path d="M210.496 259.291H205.274C205.052 259.291 204.871 259.471 204.871 259.693V264.074C204.871 264.297 205.052 264.477 205.274 264.477H210.496C210.718 264.477 210.898 264.297 210.898 264.074V259.693C210.898 259.471 210.718 259.291 210.496 259.291Z" fill="white"/>
<path d="M213.592 260.646L212.088 260.895C212.017 260.908 211.953 260.945 211.906 261C211.86 261.055 211.834 261.125 211.834 261.197V262.381C211.834 262.454 211.859 262.525 211.906 262.581C211.952 262.637 212.017 262.675 212.088 262.689L213.592 262.938C213.637 262.945 213.682 262.942 213.725 262.929C213.769 262.917 213.809 262.896 213.843 262.866C213.877 262.837 213.905 262.801 213.924 262.76C213.943 262.719 213.953 262.675 213.953 262.63V260.948C213.953 260.904 213.943 260.859 213.924 260.819C213.905 260.778 213.877 260.742 213.843 260.714C213.808 260.685 213.768 260.664 213.725 260.652C213.682 260.641 213.636 260.639 213.592 260.646Z" fill="white"/>
<path d="M153.161 94.6176H94.9451C88.8437 94.6176 83.8975 99.5638 83.8975 105.665V225.26C83.8975 231.361 88.8437 236.307 94.9451 236.307H153.161C159.263 236.307 164.209 231.361 164.209 225.26V105.665C164.209 99.5638 159.263 94.6176 153.161 94.6176Z" fill="url(#paint11_linear_311_171)"/>
<path d="M161.083 105.665V225.23C161.08 227.33 160.244 229.343 158.759 230.828C157.275 232.313 155.261 233.148 153.161 233.152H94.9451C92.8451 233.148 90.832 232.313 89.3471 230.828C87.8622 229.343 87.0266 227.33 87.0234 225.23V105.636C87.0328 103.54 87.8714 101.534 89.3558 100.055C90.8402 98.5762 92.8497 97.7451 94.9451 97.7436H104.075L105.04 101.645C105.221 102.378 105.642 103.03 106.237 103.495C106.831 103.961 107.564 104.214 108.32 104.215H139.787C140.542 104.214 141.275 103.961 141.87 103.495C142.464 103.03 142.886 102.378 143.067 101.645L144.038 97.7436H153.167C155.267 97.7467 157.279 98.5825 158.763 100.068C160.247 101.553 161.082 103.566 161.083 105.665Z" fill="url(#paint12_linear_311_171)"/>
<path d="M144.808 94.6176H103.299L105.039 101.645C105.22 102.379 105.641 103.031 106.236 103.497C106.83 103.962 107.564 104.215 108.319 104.215H139.787C140.542 104.214 141.275 103.961 141.87 103.495C142.464 103.03 142.886 102.378 143.067 101.645L144.808 94.6176Z" fill="url(#paint13_linear_311_171)"/>
<mask id="mask0_311_171" style="mask-type:luminance" maskUnits="userSpaceOnUse" x="87" y="97" width="75" height="137">
<path d="M161.083 105.665V225.23C161.08 227.33 160.244 229.343 158.759 230.828C157.275 232.313 155.261 233.148 153.161 233.152H94.9451C92.8451 233.148 90.832 232.313 89.3471 230.828C87.8622 229.343 87.0266 227.33 87.0234 225.23V105.636C87.0328 103.54 87.8714 101.534 89.3558 100.055C90.8402 98.5762 92.8497 97.7451 94.9451 97.7436H104.075L105.04 101.645C105.221 102.378 105.642 103.03 106.237 103.495C106.831 103.961 107.564 104.214 108.32 104.215H139.787C140.542 104.214 141.275 103.961 141.87 103.495C142.464 103.03 142.886 102.378 143.067 101.645L144.038 97.7436H153.167C155.267 97.7467 157.279 98.5825 158.763 100.068C160.247 101.553 161.082 103.566 161.083 105.665Z" fill="white"/>
</mask>
<g mask="url(#mask0_311_171)">
<path d="M172.214 182.815L159.259 166.718C157.535 164.58 155.155 163.069 152.486 162.419L129.621 157.239H117.526L95.2114 163.657C93.4619 164.156 91.8541 165.059 90.5173 166.293C89.1805 167.527 88.152 169.057 87.5147 170.761L80.4634 192.886L97.8578 200.743L102.754 186.385L100.439 233.205H148.395L147.803 186.362L161.456 196.219L172.214 182.815Z" fill="url(#paint14_linear_311_171)"/>
<path d="M129.989 157.499V144.149H117.692V157.499C117.692 157.499 123.908 163.947 129.989 157.499Z" fill="url(#paint15_linear_311_171)"/>
<path d="M137.886 135.238C137.679 135.564 137.046 135.795 136.11 135.949V129.436C133.878 127.909 133.114 123.551 133.114 123.551C123.961 127.032 115.081 123.948 115.081 123.948C113.896 125.582 111.428 128.998 111.428 128.998V134.646L108.313 134.054C108.313 134.054 105.353 120.141 110.551 118.56C110.551 118.56 110.64 118.377 110.818 118.075C111.706 115.552 114.37 113.545 114.37 113.545L113.062 113.001C117.745 109.839 123.63 110.39 123.63 110.39L122.446 108.862C128.242 109.632 131.522 111.444 133.375 113.214C134.537 114.173 135.381 115.461 135.796 116.908C136.887 117.295 137.85 117.973 138.581 118.87C139.312 119.767 139.783 120.848 139.941 121.994C141.001 128.282 138.609 134.054 137.886 135.238Z" fill="url(#paint16_linear_311_171)"/>
<path d="M136.104 129.412V137.991C136.104 144.812 130.581 151.425 123.76 151.425C116.94 151.425 111.422 144.812 111.422 137.991V128.974C111.422 128.974 113.873 125.558 115.069 123.924C115.069 123.924 123.95 127.015 133.109 123.527C133.109 123.527 133.872 127.885 136.104 129.412Z" fill="url(#paint17_linear_311_171)"/>
<path d="M111.606 140.17C107.923 139.383 107.639 133.723 109.048 132.112C109.954 131.094 110.883 131.686 111.422 132.278V137.985C111.423 138.717 111.485 139.448 111.606 140.17Z" fill="#F99F5D"/>
<path d="M135.921 140.158C136.041 139.442 136.103 138.717 136.104 137.991V132.219C136.655 131.662 137.543 131.118 138.419 132.112C139.823 133.717 139.574 139.383 135.921 140.158Z" fill="#F99F5D"/>
<path d="M120.605 131.094C120.605 130.947 120.552 130.806 120.455 130.697C120.357 130.587 120.223 130.518 120.078 130.502C119.016 130.437 117.951 130.48 116.898 130.632C116.533 130.678 116.198 130.854 115.953 131.128C115.708 131.403 115.57 131.756 115.566 132.124V132.302C116.959 131.704 118.481 131.47 119.989 131.621C120.14 131.621 120.285 131.564 120.395 131.46C120.505 131.357 120.572 131.215 120.581 131.064L120.605 131.094Z" fill="url(#paint18_linear_311_171)"/>
<path d="M119.764 133.734C119.765 133.957 119.7 134.175 119.577 134.361C119.454 134.547 119.279 134.692 119.074 134.778C118.868 134.864 118.642 134.887 118.423 134.844C118.205 134.802 118.004 134.695 117.846 134.538C117.688 134.381 117.58 134.18 117.536 133.962C117.492 133.744 117.514 133.517 117.599 133.311C117.684 133.105 117.828 132.929 118.013 132.805C118.199 132.682 118.416 132.615 118.639 132.615C118.936 132.615 119.222 132.733 119.432 132.943C119.643 133.152 119.762 133.437 119.764 133.734Z" fill="url(#paint19_linear_311_171)"/>
<path d="M126.709 131.094C126.708 130.947 126.761 130.806 126.859 130.697C126.956 130.587 127.09 130.518 127.236 130.502C128.297 130.437 129.362 130.48 130.415 130.632C130.78 130.677 131.117 130.853 131.362 131.127C131.607 131.402 131.744 131.756 131.747 132.124V132.302C130.354 131.704 128.833 131.47 127.324 131.621C127.173 131.621 127.028 131.564 126.918 131.46C126.808 131.357 126.741 131.215 126.732 131.064L126.709 131.094Z" fill="url(#paint20_linear_311_171)"/>
<path d="M127.567 133.734C127.567 133.956 127.633 134.172 127.756 134.356C127.879 134.54 128.053 134.683 128.258 134.768C128.462 134.853 128.687 134.875 128.904 134.832C129.121 134.789 129.321 134.682 129.477 134.526C129.634 134.369 129.74 134.17 129.784 133.953C129.827 133.736 129.805 133.511 129.72 133.306C129.635 133.102 129.492 132.927 129.308 132.804C129.124 132.681 128.907 132.615 128.686 132.615C128.389 132.615 128.105 132.733 127.895 132.943C127.685 133.153 127.567 133.438 127.567 133.734Z" fill="url(#paint21_linear_311_171)"/>
<path d="M125.205 139.915C125.205 140.407 124.554 140.803 123.754 140.803C122.955 140.803 122.298 140.407 122.298 139.915C122.298 139.424 122.949 139.702 123.754 139.702C124.559 139.702 125.205 139.424 125.205 139.915Z" fill="#F97923"/>
<path d="M125.856 143.87C125.828 143.856 125.798 143.848 125.767 143.845C125.735 143.843 125.704 143.847 125.674 143.857C125.644 143.867 125.617 143.882 125.593 143.903C125.57 143.924 125.55 143.949 125.537 143.977C125.311 144.403 124.939 144.733 124.489 144.906C124.039 145.078 123.541 145.078 123.091 144.906C123.031 144.887 122.965 144.892 122.908 144.919C122.851 144.947 122.806 144.995 122.783 145.054C122.763 145.113 122.766 145.178 122.792 145.235C122.819 145.291 122.867 145.335 122.926 145.356C123.191 145.455 123.472 145.505 123.754 145.504C124.066 145.503 124.375 145.445 124.666 145.333C125.231 145.111 125.695 144.69 125.969 144.149C125.983 144.096 125.979 144.041 125.959 143.991C125.939 143.94 125.903 143.898 125.856 143.87Z" fill="#F97923"/>
<path d="M79.7886 214.573C80.3096 209.724 83.0685 193.94 83.0685 193.94L96.8396 200.305L93.7136 215.887L93.1985 240.753H82.7844L79.7886 214.573Z" fill="url(#paint22_linear_311_171)"/>
</g>
<path d="M131.004 221.207C132.582 216.97 130.427 212.255 126.189 210.676C121.951 209.098 117.236 211.253 115.658 215.491C114.079 219.729 116.235 224.444 120.473 226.022C124.71 227.601 129.425 225.445 131.004 221.207Z" fill="#E51C1C"/>
<path d="M124.844 216.041H119.622C119.399 216.041 119.219 216.222 119.219 216.444V220.825C119.219 221.047 119.399 221.228 119.622 221.228H124.844C125.066 221.228 125.246 221.047 125.246 220.825V216.444C125.246 216.222 125.066 216.041 124.844 216.041Z" fill="white"/>
<path d="M127.946 217.397L126.442 217.646C126.371 217.658 126.307 217.695 126.26 217.751C126.213 217.806 126.188 217.876 126.188 217.948V219.132C126.187 219.204 126.212 219.275 126.259 219.33C126.305 219.386 126.37 219.422 126.442 219.434L127.946 219.688C127.99 219.695 128.036 219.692 128.079 219.68C128.122 219.668 128.163 219.646 128.197 219.617C128.231 219.588 128.259 219.552 128.278 219.511C128.297 219.47 128.307 219.425 128.307 219.38V217.699C128.307 217.654 128.297 217.61 128.278 217.569C128.259 217.529 128.231 217.493 128.197 217.464C128.162 217.435 128.122 217.414 128.079 217.403C128.035 217.391 127.99 217.389 127.946 217.397Z" fill="white"/>
<path d="M172.208 182.815L161.456 196.237L161.083 195.923V168.985L172.208 182.815Z" fill="url(#paint23_linear_311_171)"/>
<path d="M195.168 143.527C195.168 143.527 205.653 138.879 204.558 137.233C203.865 136.191 193.06 141.046 193.06 141.046C193.06 141.046 200.348 135.99 199.359 135.173C198.371 134.356 191.627 138.654 188.916 140.466C188.6 140.678 188.22 140.773 187.842 140.735C187.464 140.697 187.111 140.529 186.843 140.259C185.908 139.311 184.475 137.979 183.623 137.683C182.255 137.216 181.397 139.46 184.392 143.237C185.499 144.628 186.127 147.257 186.364 148.411L172.255 182.804L163.303 193.644C163.303 193.644 169.461 202.525 175.144 200.749C183.794 198.102 189.591 163.734 191.213 152.917C191.343 152.036 191.724 151.21 192.311 150.54C192.898 149.87 193.666 149.384 194.522 149.14C197.725 148.228 201.81 146.949 201.372 146.12C200.845 145.12 195.541 146.351 195.541 146.351C195.541 146.351 204.954 143.059 204.522 141.816C204.155 140.744 195.168 143.527 195.168 143.527Z" fill="url(#paint24_linear_311_171)"/>
<defs>
<filter id="filter0_dd_311_171" x="8" y="11" width="346" height="346" filterUnits="userSpaceOnUse" color-interpolation-filters="sRGB">
<feFlood flood-opacity="0" result="BackgroundImageFix"/>
<feColorMatrix in="SourceAlpha" type="matrix" values="0 0 0 0 0 0 0 0 0 0 0 0 0 0 0 0 0 0 127 0" result="hardAlpha"/>
<feMorphology radius="2" operator="dilate" in="SourceAlpha" result="effect1_dropShadow_311_171"/>
<feOffset dy="2"/>
<feGaussianBlur stdDeviation="3"/>
<feColorMatrix type="matrix" values="0 0 0 0 0.235294 0 0 0 0 0.25098 0 0 0 0 0.262745 0 0 0 0.15 0"/>
<feBlend mode="normal" in2="BackgroundImageFix" result="effect1_dropShadow_311_171"/>
<feColorMatrix in="SourceAlpha" type="matrix" values="0 0 0 0 0 0 0 0 0 0 0 0 0 0 0 0 0 0 127 0" result="hardAlpha"/>
<feOffset dy="1"/>
<feGaussianBlur stdDeviation="1"/>
<feColorMatrix type="matrix" values="0 0 0 0 0.235294 0 0 0 0 0.25098 0 0 0 0 0.262745 0 0 0 0.3 0"/>
<feBlend mode="normal" in2="effect1_dropShadow_311_171" result="effect2_dropShadow_311_171"/>
<feBlend mode="normal" in="SourceGraphic" in2="effect2_dropShadow_311_171" result="shape"/>
</filter>
<linearGradient id="paint0_linear_311_171" x1="99.4328" y1="118.175" x2="229.027" y2="247.769" gradientUnits="userSpaceOnUse">
<stop offset="0.07" stop-color="#DCE9F9"/>
<stop offset="1" stop-color="#C6DDF4"/>
</linearGradient>
<linearGradient id="paint1_linear_311_171" x1="115.094" y1="292.304" x2="80.2342" y2="257.444" gradientUnits="userSpaceOnUse">
<stop offset="0.07" stop-color="#DCE9F9"/>
<stop offset="1" stop-color="#C6DDF4"/>
</linearGradient>
<linearGradient id="paint2_linear_311_171" x1="153.213" y1="99.7191" x2="133.421" y2="79.9269" gradientUnits="userSpaceOnUse">
<stop offset="0.07" stop-color="#DCE9F9"/>
<stop offset="1" stop-color="#C6DDF4"/>
</linearGradient>
<linearGradient id="paint3_linear_311_171" x1="285.044" y1="127.952" x2="258.568" y2="101.476" gradientUnits="userSpaceOnUse">
<stop offset="0.07" stop-color="#DCE9F9"/>
<stop offset="1" stop-color="#C6DDF4"/>
</linearGradient>
<linearGradient id="paint4_linear_311_171" x1="257.303" y1="178.707" x2="216.913" y2="138.323" gradientUnits="userSpaceOnUse">
<stop stop-color="#52B0F7"/>
<stop offset="1" stop-color="#7DDCF9"/>
</linearGradient>
<linearGradient id="paint5_linear_311_171" x1="217.085" y1="121.426" x2="171.308" y2="75.6482" gradientUnits="userSpaceOnUse">
<stop stop-color="#FFBB12"/>
<stop offset="1" stop-color="#FF7212"/>
</linearGradient>
<linearGradient id="paint6_linear_311_171" x1="166.074" y1="183.775" x2="271.885" y2="289.586" gradientUnits="userSpaceOnUse">
<stop offset="0.13" stop-color="#0C5572"/>
<stop offset="1" stop-color="#094659"/>
</linearGradient>
<linearGradient id="paint7_linear_311_171" x1="259.884" y1="283.067" x2="164.162" y2="187.345" gradientUnits="userSpaceOnUse">
<stop offset="0.08" stop-color="#E9FAFF"/>
<stop offset="1" stop-color="white"/>
</linearGradient>
<linearGradient id="paint8_linear_311_171" x1="224.652" y1="214.123" x2="190.082" y2="179.553" gradientUnits="userSpaceOnUse">
<stop stop-color="#491005"/>
<stop offset="1" stop-color="#8C210C"/>
</linearGradient>
<linearGradient id="paint9_linear_311_171" x1="279.635" y1="317.347" x2="162.611" y2="200.322" gradientUnits="userSpaceOnUse">
<stop stop-color="#52B0F7"/>
<stop offset="1" stop-color="#7DDCF9"/>
</linearGradient>
<linearGradient id="paint10_linear_311_171" x1="179.656" y1="217.367" x2="260.003" y2="297.715" gradientUnits="userSpaceOnUse">
<stop stop-color="#FFBB12"/>
<stop offset="1" stop-color="#FF7212"/>
</linearGradient>
<linearGradient id="paint11_linear_311_171" x1="70.6651" y1="112.071" x2="164.896" y2="206.302" gradientUnits="userSpaceOnUse">
<stop offset="0.13" stop-color="#0C5572"/>
<stop offset="1" stop-color="#094659"/>
</linearGradient>
<linearGradient id="paint12_linear_311_171" x1="178.596" y1="220.002" x2="82.7607" y2="124.167" gradientUnits="userSpaceOnUse">
<stop offset="0.08" stop-color="#E9FAFF"/>
<stop offset="1" stop-color="white"/>
</linearGradient>
<linearGradient id="paint13_linear_311_171" x1="104.59" y1="78.1408" x2="198.826" y2="172.378" gradientUnits="userSpaceOnUse">
<stop offset="0.13" stop-color="#0C5572"/>
<stop offset="1" stop-color="#094659"/>
</linearGradient>
<linearGradient id="paint14_linear_311_171" x1="168.152" y1="238.208" x2="83.5302" y2="153.592" gradientUnits="userSpaceOnUse">
<stop stop-color="#52B0F7"/>
<stop offset="1" stop-color="#7DDCF9"/>
</linearGradient>
<linearGradient id="paint15_linear_311_171" x1="123.837" y1="149.702" x2="123.837" y2="159.998" gradientUnits="userSpaceOnUse">
<stop stop-color="#F98C5D"/>
<stop offset="1" stop-color="#FFC392"/>
</linearGradient>
<linearGradient id="paint16_linear_311_171" x1="138.514" y1="141.295" x2="107.313" y2="110.094" gradientUnits="userSpaceOnUse">
<stop stop-color="#491005"/>
<stop offset="1" stop-color="#8C210C"/>
</linearGradient>
<linearGradient id="paint17_linear_311_171" x1="143.375" y1="154.717" x2="119.101" y2="130.437" gradientUnits="userSpaceOnUse">
<stop stop-color="#F99F5D"/>
<stop offset="1" stop-color="#FFC392"/>
</linearGradient>
<linearGradient id="paint18_linear_311_171" x1="118.082" y1="138.785" x2="118.082" y2="126.511" gradientUnits="userSpaceOnUse">
<stop stop-color="#491005"/>
<stop offset="1" stop-color="#8C210C"/>
</linearGradient>
<linearGradient id="paint19_linear_311_171" x1="117.508" y1="133.734" x2="119.752" y2="133.734" gradientUnits="userSpaceOnUse">
<stop stop-color="#491005"/>
<stop offset="1" stop-color="#8C210C"/>
</linearGradient>
<linearGradient id="paint20_linear_311_171" x1="129.231" y1="138.785" x2="129.231" y2="126.511" gradientUnits="userSpaceOnUse">
<stop stop-color="#491005"/>
<stop offset="1" stop-color="#8C210C"/>
</linearGradient>
<linearGradient id="paint21_linear_311_171" x1="127.567" y1="133.734" x2="129.805" y2="133.734" gradientUnits="userSpaceOnUse">
<stop stop-color="#491005"/>
<stop offset="1" stop-color="#8C210C"/>
</linearGradient>
<linearGradient id="paint22_linear_311_171" x1="109.918" y1="249.522" x2="76.2895" y2="201.039" gradientUnits="userSpaceOnUse">
<stop stop-color="#F99F5D"/>
<stop offset="1" stop-color="#FFC392"/>
</linearGradient>
<linearGradient id="paint23_linear_311_171" x1="192.492" y1="213.868" x2="107.876" y2="129.247" gradientUnits="userSpaceOnUse">
<stop stop-color="#52B0F7"/>
<stop offset="1" stop-color="#7DDCF9"/>
</linearGradient>
<linearGradient id="paint24_linear_311_171" x1="194.552" y1="203.632" x2="178.235" y2="144.918" gradientUnits="userSpaceOnUse">
<stop stop-color="#F99F5D"/>
<stop offset="1" stop-color="#FFC392"/>
</linearGradient>
</defs>
</svg>
