<svg width="37" height="37" viewBox="0 0 37 37" fill="none" xmlns="http://www.w3.org/2000/svg">
<path d="M30.8594 10.7272C30.863 12.1325 30.8594 13.5386 30.8746 14.9446C30.8746 15.2417 30.7531 15.2164 30.5435 15.1478C29.029 14.654 27.4625 14.5261 25.8938 14.6584C23.6687 14.8456 21.6358 15.6314 19.8214 16.9362C18.3122 18.0097 17.0707 19.4165 16.1931 21.0474C15.6408 22.0562 15.2325 23.1373 14.9801 24.2593C14.691 25.5694 14.6228 26.9186 14.7784 28.2512C14.7892 28.3459 14.7784 28.4434 14.7863 28.5403C14.8507 29.2112 14.8521 29.2112 14.169 29.2112C10.7923 29.2112 7.41557 29.2358 4.03887 29.1996C2.54463 29.1815 1.44581 28.3849 0.667242 27.1393C0.390369 26.694 0.161208 26.2118 0.140244 25.6646C0.136629 25.5771 0.0795196 25.541 0 25.5309V10.8906C0.0244512 10.8741 0.0440535 10.8515 0.0567671 10.8249C0.0694808 10.7983 0.0748412 10.7688 0.0722906 10.7395C0.168437 10.7395 0.264584 10.7489 0.361453 10.7489H30.5008C30.6201 10.7482 30.7401 10.7344 30.8594 10.7272Z" fill="#EDEFF0"/>
<path d="M37 27.9829C36.8323 28.3689 36.8351 28.7918 36.7383 29.1945C35.5983 33.9317 31.3331 37.1464 26.4781 36.9173C21.8753 36.7004 17.9413 33.2174 17.1569 28.6696C16.1998 23.1213 19.8794 17.9706 25.4602 17.0381C30.7989 16.1482 36.0313 19.9471 36.8677 25.3125C36.9017 25.5293 36.8619 25.7657 36.9978 25.9631L37 27.9829ZM25.4458 31.5338C25.9641 31.5396 26.3639 31.3126 26.6957 30.9266C27.6051 29.8697 28.5179 28.8164 29.434 27.7667C30.1569 26.9311 30.8864 26.0997 31.6028 25.2582C32.0495 24.7349 32.1189 24.09 31.8138 23.5139C31.5088 22.9377 30.9261 22.6413 30.2488 22.7187C29.815 22.7657 29.4948 22.997 29.2172 23.3172C28.0164 24.7088 26.8056 26.0925 25.612 27.4906C25.4212 27.7147 25.3178 27.7075 25.1248 27.5036C24.7236 27.0698 24.3029 26.6607 23.8785 26.2522C23.2207 25.619 22.2968 25.6125 21.6816 26.2241C21.0664 26.8356 21.0628 27.7711 21.6982 28.4195C22.5729 29.3116 23.4628 30.1899 24.3484 31.0719C24.4898 31.2201 24.6602 31.3377 24.849 31.4171C25.0378 31.4966 25.2409 31.5363 25.4458 31.5338Z" fill="#4EAF4F"/>
<path d="M6.1993 3.08681C6.20508 2.7174 6.23761 2.34583 6.21231 1.97859C6.14436 1.02074 6.49786 0.336874 7.42896 0H8.07958C9.00779 0.315187 9.37719 0.978092 9.30852 1.9345C9.28177 2.31547 9.30852 2.70005 9.31502 3.08319C9.31069 4.09092 9.30346 5.09938 9.30418 6.10783C9.30418 6.98255 8.53646 7.6881 7.72246 7.67003C7.04004 7.65485 6.21159 7.00496 6.25713 6.1288C6.30268 5.25263 6.26798 4.35262 6.26508 3.46416C6.26508 3.33693 6.30484 3.19741 6.1993 3.08681Z" fill="#617E8C"/>
<path d="M21.6145 3.06729C21.6145 2.66029 21.6145 2.25257 21.6145 1.84558C21.6145 0.782907 21.8784 0.392538 22.8572 0H23.5078C23.7312 0.149642 24.003 0.216872 24.1989 0.416394C24.4939 0.720014 24.6746 1.06701 24.6753 1.49569C24.6753 2.02004 24.6775 2.54391 24.6818 3.06729C24.6756 4.0861 24.6691 5.10468 24.6623 6.12301C24.6573 7.02881 24.0515 7.64762 23.1652 7.65124C22.2493 7.65124 21.637 7.04255 21.6319 6.12301C21.6304 5.10468 21.6247 4.0861 21.6145 3.06729Z" fill="#617E8C"/>
<path d="M21.615 3.0673C21.6212 4.08612 21.6277 5.10469 21.6345 6.12302C21.6396 7.04256 22.2519 7.65414 23.1678 7.65125C24.0541 7.65125 24.6599 7.02882 24.6649 6.12302C24.6702 5.10421 24.6767 4.08563 24.6844 3.0673C25.3083 3.07453 25.9329 3.08321 26.5568 3.08754C28.9937 3.10345 30.8378 4.94107 30.8523 7.37582C30.8595 8.49271 30.8559 9.61032 30.8566 10.7272C30.7373 10.7344 30.6173 10.7482 30.4951 10.7482H0.361545C0.265399 10.7482 0.169252 10.7417 0.0723828 10.7388C0.0723828 9.56478 0.0644308 8.38933 0.0723828 7.21461C0.0919012 5.0083 1.94109 3.13887 4.14668 3.09405C4.82983 3.08031 5.51369 3.08971 6.19756 3.08827C6.30311 3.19887 6.26335 3.33839 6.26407 3.46562C6.26407 4.35407 6.30166 5.24469 6.25612 6.13025C6.21058 7.01581 7.03903 7.65631 7.72145 7.67149C8.53544 7.68956 9.30389 6.984 9.30317 6.10929C9.30317 5.10084 9.30967 4.09238 9.31401 3.08465L21.401 3.08827C21.4747 3.08682 21.5463 3.07381 21.615 3.0673Z" fill="#498FCC"/>
</svg>
