<svg width="14" height="8" viewBox="0 0 14 8" fill="none" xmlns="http://www.w3.org/2000/svg">
<path d="M6.80905 7.99987C6.64621 7.99987 6.48824 7.96934 6.33517 7.90827C6.18209 7.8472 6.05507 7.76578 5.9541 7.664L0.335872 2.04577C0.111957 1.82185 0 1.53687 0 1.19082C0 0.84477 0.111957 0.559787 0.335872 0.335872C0.559787 0.111957 0.84477 0 1.19082 0C1.53687 0 1.82185 0.111957 2.04577 0.335872L6.80905 5.09916L11.5723 0.335872C11.7963 0.111957 12.0812 0 12.4273 0C12.7733 0 13.0583 0.111957 13.2822 0.335872C13.5061 0.559787 13.6181 0.84477 13.6181 1.19082C13.6181 1.53687 13.5061 1.82185 13.2822 2.04577L7.664 7.664C7.54187 7.78614 7.40955 7.87285 7.26706 7.92415C7.12457 7.97545 6.9719 8.00069 6.80905 7.99987Z" fill="black"/>
</svg>
