<svg width="20" height="17" viewBox="0 0 20 17" fill="none" xmlns="http://www.w3.org/2000/svg">
<path d="M1.40267 16.915L18.8859 9.42072C19.0666 9.34373 19.2207 9.2153 19.3291 9.05142C19.4374 8.88753 19.4951 8.69542 19.4951 8.49897C19.4951 8.30252 19.4374 8.1104 19.3291 7.94652C19.2207 7.78263 19.0666 7.65421 18.8859 7.57721L1.40267 0.082971C1.25128 0.01694 1.08584 -0.0103635 0.92126 0.00352315C0.756684 0.0174098 0.598154 0.0720498 0.459973 0.162514C0.321791 0.252978 0.208304 0.376421 0.129751 0.521705C0.0511982 0.666989 0.0100501 0.829544 0.010019 0.994704L0 5.61348C0 6.11443 0.370704 6.54525 0.871657 6.60537L15.0286 8.49897L0.871657 10.3825C0.370704 10.4527 0 10.8835 0 11.3845L0.010019 16.0032C0.010019 16.7146 0.741409 17.2055 1.40267 16.915Z" fill="#F8F8F8"/>
</svg>
