<svg width="335" height="66" viewBox="0 0 335 66" fill="none" xmlns="http://www.w3.org/2000/svg">
<g filter="url(#filter0_d_199_88)">
<rect x="8" y="6" width="319" height="50" rx="5" fill="white"/>
</g>
<path d="M34.0191 38.1082C31.6915 38.6998 29.4303 38.57 27.2615 37.4819C27.1662 37.4346 27.0612 37.41 26.9548 37.41C26.8484 37.41 26.7435 37.4346 26.6482 37.4819C25.3466 37.9956 24.0412 38.5017 22.7319 39C22.5674 39.0635 22.4144 39.1731 22.1547 39.1443C22.4505 37.9798 22.6929 36.8095 23.0494 35.6811C23.3856 34.645 23.3293 33.7676 22.8762 32.7258C20.4851 27.1558 24.1576 20.8109 30.1345 20.0389C35.5227 19.342 40.2355 23.1775 40.6222 28.5743C40.6365 28.6984 40.6572 28.8217 40.6843 28.9437C40.6482 30.759 40.2658 32.4805 39.2932 34.0389C38.0393 36.0476 36.2586 37.3723 34.0191 38.1082ZM31.133 24.6017C30.8831 24.621 30.6345 24.6547 30.3885 24.7027C28.5703 25.1212 27.3495 26.1977 26.8762 28.0158C26.4029 29.834 26.9166 31.417 28.338 32.6248C29.7593 33.8326 31.4101 34.0245 33.1244 33.2857C33.5111 33.1197 33.7449 33.0375 34.0696 33.3954C34.3942 33.7532 34.9123 33.684 35.224 33.3665C35.5126 33.0692 35.5674 32.5339 35.2456 32.2496C34.8978 31.9423 35.0061 31.7316 35.1965 31.4011C36.9354 28.3968 34.7622 24.6234 31.1345 24.5959L31.133 24.6017Z" fill="#FEBE21"/>
<path d="M34.0186 38.1082C36.2581 37.3781 38.0388 36.0534 39.2927 34.0447C40.2653 32.4863 40.6477 30.7648 40.6838 28.9495C43.8786 28.1226 46.779 28.6998 49.3086 30.8427C50.9117 32.2148 51.9945 34.0962 52.3754 36.1717C52.7564 38.2471 52.4123 40.3905 51.4009 42.2424C51.324 42.3695 51.2748 42.5114 51.2564 42.6589C51.238 42.8063 51.2509 42.956 51.2942 43.0981C51.6823 44.5527 52.0488 46.013 52.424 47.4718C52.45 47.5729 52.5164 47.6695 52.4154 47.8167C51.0445 47.2828 49.6592 46.7561 48.2855 46.2034C48.1031 46.1213 47.9043 46.0817 47.7043 46.0877C47.5043 46.0937 47.3083 46.1451 47.1311 46.2381C41.6059 48.7677 35.2711 45.443 34.16 39.443C34.0777 39.0014 34.0633 38.5483 34.0186 38.1082ZM43.3577 40.3117C43.6267 40.3297 43.8967 40.3297 44.1657 40.3117C44.9089 40.2107 45.3995 40.3968 45.6405 41.2063C45.6723 41.3353 45.7333 41.4552 45.8188 41.5568C45.9043 41.6584 46.0121 41.7389 46.1337 41.7922C46.2554 41.8455 46.3876 41.8701 46.5203 41.8641C46.6529 41.8581 46.7825 41.8216 46.8988 41.7576C47.4139 41.5094 47.6102 40.9668 47.3548 40.391C46.3447 38.1154 45.3216 35.8427 44.3043 33.5685C44.121 33.1573 43.8396 32.9004 43.3605 32.9004C42.8815 32.9004 42.5958 33.1501 42.4125 33.5642C42.1239 34.2208 41.8353 34.873 41.5351 35.5281C40.8136 37.1472 40.0806 38.7648 39.3706 40.3867C39.1123 40.9726 39.3043 41.531 39.8035 41.7518C40.3028 41.9726 40.8266 41.7633 41.1224 41.1746C41.2097 41.0178 41.284 40.8542 41.3447 40.6854C41.4313 40.3968 41.6059 40.303 41.9031 40.316C42.3865 40.3232 42.8728 40.3059 43.3577 40.3059V40.3117Z" fill="#5C439A"/>
<path d="M25.8571 49.2929C25.1602 46.7937 23.5628 45.3016 21 44.6508C23.5541 43.9899 25.1573 42.5152 25.8557 40.0043C26.5541 42.518 28.1414 43.9885 30.6797 44.6364C28.1847 45.3232 26.5325 46.7576 25.8571 49.2929Z" fill="#6B88C5"/>
<path d="M53.7557 32.2871C53.2348 30.4025 52.0559 29.3867 50.2637 28.8787C52.0833 28.3896 53.2276 27.352 53.7485 25.5367C54.2911 27.316 55.4051 28.3997 57.2521 28.8715C55.4715 29.3867 54.2738 30.4054 53.7557 32.2871Z" fill="#3D2E80"/>
<path d="M30.7734 16.101C32.4516 15.6551 33.5151 14.6999 34.0202 13C34.5151 14.7056 35.5916 15.6551 37.2554 16.0996C35.5902 16.5325 34.5325 17.4834 34.0187 19.1631C33.5036 17.4949 32.4632 16.5354 30.7734 16.101Z" fill="#FEBE21"/>
<path d="M34.3868 50C33.9871 48.8037 33.2757 48.0764 32.0376 47.6912C33.2584 47.2871 34.0059 46.5815 34.3551 45.4329C34.9106 46.7431 35.3175 47.1443 36.6639 47.6926C35.5499 48.0894 34.7201 48.707 34.3868 50Z" fill="#6B88C5"/>
<path d="M45.437 24.3521C46.5294 24.0375 47.1686 23.4199 47.5236 22.3752C47.8714 23.4257 48.5207 24.0274 49.5698 24.3449C48.5597 24.7056 47.8512 25.2525 47.5423 26.3651C47.1758 25.3117 46.525 24.6797 45.437 24.3521Z" fill="#3D2E80"/>
<path d="M31.1342 24.5959C34.7619 24.6234 36.9351 28.3968 35.1991 31.3968C35.0087 31.7273 34.9004 31.9379 35.2482 32.2453C35.57 32.5339 35.5152 33.0649 35.2266 33.3622C34.912 33.684 34.3896 33.7431 34.0722 33.391C33.7547 33.0389 33.5137 33.1154 33.127 33.2814C31.4127 34.0202 29.7677 33.8283 28.3406 32.6205C26.9134 31.4127 26.4098 29.8326 26.8788 28.0159C27.3478 26.1991 28.57 25.1212 30.3896 24.697C30.6357 24.649 30.8843 24.6152 31.1342 24.5959ZM32.1789 31.5685C32.0635 31.4242 31.9668 31.316 31.8903 31.1962C31.777 31.0413 31.7256 30.8497 31.7462 30.6589C31.7667 30.468 31.8578 30.2917 32.0014 30.1645C32.3045 29.8615 32.6696 29.8355 33.039 30.049C33.6393 30.3954 33.6595 30.3766 33.8196 29.6695C33.904 29.282 33.8956 28.88 33.7951 28.4964C33.4502 27.0664 31.9279 26.2222 30.4675 26.6493C29.0693 27.0577 28.303 28.5873 28.7749 30.0101C28.8878 30.3419 29.0672 30.6472 29.3021 30.9072C29.537 31.1673 29.8226 31.3767 30.1412 31.5226C30.4599 31.6684 30.805 31.7478 31.1553 31.7557C31.5057 31.7636 31.854 31.6999 32.1789 31.5685Z" fill="white"/>
<path d="M43.3579 40.3059C42.8731 40.3059 42.3868 40.3232 41.9019 40.3059C41.6047 40.2929 41.4301 40.3853 41.3435 40.6753C41.2828 40.8441 41.2085 41.0077 41.1213 41.1645C40.8255 41.7576 40.3276 41.9755 39.8024 41.7417C39.2771 41.5079 39.1054 40.9625 39.3695 40.3766C40.091 38.7547 40.8125 37.1371 41.534 35.518C41.8226 34.8629 42.1227 34.2107 42.4113 33.5541C42.5946 33.14 42.8817 32.8918 43.3594 32.8903C43.837 32.8889 44.1198 33.1472 44.3031 33.5584C45.3204 35.8326 46.3435 38.1053 47.3536 40.3809C47.609 40.9581 47.4128 41.4993 46.8976 41.7475C46.7813 41.8115 46.6518 41.848 46.5191 41.854C46.3865 41.86 46.2542 41.8354 46.1325 41.7821C46.0109 41.7288 45.9032 41.6483 45.8176 41.5467C45.7321 41.4451 45.6711 41.3252 45.6393 41.1962C45.3983 40.3867 44.9077 40.2006 44.1646 40.3016C43.8961 40.321 43.6266 40.3225 43.3579 40.3059ZM43.3579 36.1775C43.0578 36.8542 42.7937 37.4574 42.5224 38.0534C42.4474 38.2193 42.3781 38.3651 42.6667 38.3622C43.1314 38.3622 43.5975 38.3622 44.0621 38.3622C44.28 38.3622 44.2973 38.2641 44.2194 38.0895C43.9438 37.4791 43.6696 36.8629 43.3666 36.1775H43.3579Z" fill="white"/>
<path d="M32.1789 31.5685C31.8541 31.6997 31.5059 31.7632 31.1557 31.7551C30.8055 31.7471 30.4606 31.6677 30.1421 31.5219C29.8236 31.376 29.5382 31.1667 29.3034 30.9067C29.0685 30.6468 28.8892 30.3417 28.7763 30.0101C28.3016 28.5873 29.0649 27.0577 30.469 26.6493C31.9293 26.2164 33.4516 27.0664 33.7965 28.4964C33.897 28.88 33.9054 29.282 33.821 29.6695C33.6609 30.3766 33.6407 30.391 33.0404 30.049C32.671 29.8355 32.3059 29.8615 32.0029 30.1645C31.8592 30.2917 31.7682 30.468 31.7476 30.6588C31.7271 30.8497 31.7785 31.0413 31.8918 31.1962C31.9668 31.316 32.0635 31.4213 32.1789 31.5685Z" fill="#FEBE21"/>
<path d="M43.3665 36.1775C43.6739 36.8629 43.9437 37.4762 44.2323 38.0938C44.3102 38.2684 44.2929 38.3665 44.075 38.3665C43.6104 38.3665 43.1443 38.3665 42.6796 38.3665C42.391 38.3665 42.4617 38.2222 42.5353 38.0577C42.798 37.4574 43.062 36.8543 43.3665 36.1775Z" fill="#5C439A"/>
<defs>
<filter id="filter0_d_199_88" x="0" y="0" width="335" height="66" filterUnits="userSpaceOnUse" color-interpolation-filters="sRGB">
<feFlood flood-opacity="0" result="BackgroundImageFix"/>
<feColorMatrix in="SourceAlpha" type="matrix" values="0 0 0 0 0 0 0 0 0 0 0 0 0 0 0 0 0 0 127 0" result="hardAlpha"/>
<feOffset dy="2"/>
<feGaussianBlur stdDeviation="4"/>
<feColorMatrix type="matrix" values="0 0 0 0 0.388235 0 0 0 0 0.388235 0 0 0 0 0.388235 0 0 0 0.2 0"/>
<feBlend mode="normal" in2="BackgroundImageFix" result="effect1_dropShadow_199_88"/>
<feBlend mode="normal" in="SourceGraphic" in2="effect1_dropShadow_199_88" result="shape"/>
</filter>
</defs>
</svg>
