<svg width="191" height="201" viewBox="0 0 191 201" fill="none" xmlns="http://www.w3.org/2000/svg">
<g clip-path="url(#clip0_310_60)">
<path d="M181.061 51.3761C175.203 54.4107 170.715 59.6318 167.487 65.3791C164.258 71.1264 162.177 77.4406 160.119 83.7005L158.305 116.002C165.106 104.412 170.583 90.7859 172.061 77.4452L167.527 77.0414C170.57 76.5878 173.122 74.3742 174.746 71.7614C176.369 69.1486 177.203 66.1412 178.019 63.1745L172.515 63.982C176.874 61.0322 179.934 56.5192 181.061 51.3761Z" fill="#E0E0E0"/>
<path d="M157.308 123.568C157.308 123.568 142.518 105.878 142.69 88.976H148.661C148.661 88.976 142.173 84.712 142.69 82.3215C143.207 79.931 143.37 70.8859 143.37 70.8859L148.811 72.2468C148.811 72.2468 144.73 70.201 144.204 66.9577C143.678 63.7143 145.397 48.6953 145.397 48.6953C145.397 48.6953 152.053 55.6945 154.102 62.8616C156.151 70.0286 161.524 78.3932 159.946 100.235C158.369 122.076 157.308 123.568 157.308 123.568Z" fill="#EBEBEB"/>
<path d="M164.807 125.242C164.807 125.242 180.826 114.569 184.385 100.947L179.583 99.6404C179.583 99.6404 185.732 97.6309 185.845 95.5987C185.958 93.5665 187.795 86.2543 187.795 86.2543L183.106 86.1591C183.106 86.1591 186.847 85.4061 187.967 82.9112C189.087 80.4163 191.005 67.9692 191.005 67.9692C191.005 67.9692 184.117 72.1379 180.903 77.4406C177.688 82.7434 171.536 88.3273 168.026 106.222C164.517 124.117 164.807 125.242 164.807 125.242Z" fill="#EBEBEB"/>
<path d="M149.459 64.1317C149.482 64.1918 149.499 64.2542 149.509 64.3177L149.636 64.862C149.745 65.3519 149.904 66.0595 150.089 66.9622C150.275 67.8649 150.543 68.9944 150.788 70.2963C151.033 71.5981 151.354 73.0769 151.654 74.719C152.284 78.0031 152.95 81.9269 153.64 86.2906C154.329 90.6544 154.968 95.4717 155.562 100.534C156.156 105.596 156.591 110.441 156.922 114.845C157.253 119.25 157.494 123.224 157.63 126.562C157.716 128.232 157.752 129.738 157.797 131.071C157.843 132.405 157.865 133.539 157.874 134.473C157.883 135.408 157.897 136.12 157.902 136.623V137.186C157.902 137.308 157.902 137.376 157.902 137.376C157.894 137.313 157.894 137.249 157.902 137.186C157.902 137.045 157.902 136.864 157.879 136.623C157.879 136.12 157.838 135.399 157.806 134.473C157.775 133.548 157.743 132.4 157.684 131.076C157.625 129.751 157.58 128.236 157.484 126.571C157.33 123.233 157.067 119.264 156.727 114.864C156.387 110.464 155.911 105.624 155.331 100.561C154.75 95.4989 154.084 90.6906 153.426 86.3224C152.769 81.9541 152.103 78.0349 151.495 74.7507C151.205 73.1041 150.91 71.6253 150.661 70.3189C150.411 69.0125 150.207 67.8966 150.003 66.9804C149.799 66.0641 149.681 65.3655 149.582 64.8711C149.536 64.6397 149.505 64.4583 149.477 64.3222C149.465 64.2594 149.459 64.1956 149.459 64.1317Z" fill="#E0E0E0"/>
<path d="M155.254 134.405C155.254 134.405 141.724 119.055 137.521 109.774L140.695 108.413C138.392 108.794 136.039 107.805 134.257 106.304C132.475 104.803 131.165 102.843 129.895 100.888L134.071 100.185C130.233 99.0884 126.965 96.556 124.944 93.1129C129.872 93.9249 134.334 96.633 138.011 100.017C140.985 102.739 143.506 105.941 145.927 109.189C147.111 110.774 148.142 112.467 149.006 114.247C151.264 118.946 155.285 128.767 155.254 134.405Z" fill="#EBEBEB"/>
<path d="M184.593 76.9054C184.578 76.9604 184.557 77.0136 184.53 77.0641C184.475 77.173 184.407 77.3227 184.321 77.5178C184.126 77.9169 183.845 78.4885 183.492 79.2188C183.138 79.9491 182.689 80.8563 182.186 81.9133C181.683 82.9702 181.102 84.1586 180.49 85.4923C179.239 88.1504 177.806 91.3393 176.26 94.9047C174.714 98.4701 173.086 102.421 171.481 106.599C169.876 110.777 168.416 114.796 167.151 118.47C165.886 122.144 164.811 125.469 163.95 128.277C163.497 129.674 163.134 130.953 162.794 132.069C162.454 133.185 162.173 134.151 161.946 134.94C161.719 135.73 161.538 136.329 161.415 136.755L161.27 137.209C161.255 137.263 161.235 137.316 161.211 137.367C161.218 137.31 161.23 137.254 161.248 137.199C161.275 137.082 161.316 136.923 161.37 136.723C161.483 136.292 161.647 135.68 161.86 134.909C162.073 134.138 162.34 133.149 162.667 132.028C162.993 130.908 163.351 129.624 163.787 128.223C164.63 125.41 165.7 122.076 166.961 118.393C168.221 114.709 169.681 110.681 171.277 106.508C172.873 102.335 174.537 98.3794 176.078 94.814C177.62 91.2486 179.089 88.0688 180.359 85.4197C180.98 84.0861 181.574 82.8976 182.086 81.8497C182.598 80.8019 183.052 79.9038 183.446 79.1734L184.312 77.4905C184.412 77.3091 184.489 77.1579 184.543 77.0369C184.558 76.9922 184.574 76.9483 184.593 76.9054Z" fill="#E0E0E0"/>
<path d="M156.401 140.987C156.374 140.893 156.355 140.798 156.342 140.701C156.31 140.493 156.265 140.221 156.215 139.889C156.165 139.558 156.097 139.1 156.007 138.601C155.916 138.102 155.83 137.526 155.694 136.9C155.453 135.644 155.104 134.156 154.664 132.523C154.225 130.89 153.644 129.121 152.96 127.293C152.275 125.465 151.513 123.763 150.779 122.239C150.044 120.715 149.31 119.377 148.661 118.275C148.349 117.717 148.036 117.231 147.755 116.796C147.473 116.361 147.256 115.989 147.056 115.689L146.603 114.995C146.546 114.917 146.498 114.831 146.462 114.741C146.53 114.811 146.591 114.887 146.644 114.968L147.12 115.639C147.328 115.93 147.573 116.293 147.85 116.723C148.126 117.154 148.448 117.631 148.757 118.189C149.428 119.286 150.167 120.624 150.928 122.144C151.69 123.664 152.438 125.378 153.136 127.211C153.835 129.044 154.379 130.84 154.828 132.468C155.277 134.097 155.589 135.603 155.812 136.868C155.938 137.499 156.011 138.075 156.088 138.578C156.165 139.082 156.224 139.517 156.26 139.876C156.297 140.234 156.324 140.484 156.342 140.697C156.374 140.791 156.394 140.888 156.401 140.987Z" fill="#E0E0E0"/>
<path d="M174.26 137.372H144.644V143.414H174.26V137.372Z" fill="#E0E0E0"/>
<path d="M147.464 143.414L150.67 163.731H168.566L171.549 143.414H147.464Z" fill="#E0E0E0"/>
<path d="M172.442 143.414C172.442 143.482 166.838 143.532 159.928 143.532C153.019 143.532 147.415 143.482 147.415 143.414C147.415 143.346 153.019 143.296 159.928 143.296C166.838 143.296 172.442 143.35 172.442 143.414Z" fill="#EBEBEB"/>
<path d="M125.978 27.1623C125.578 28.6791 124.909 30.1113 124.001 31.39L125.946 33.2044L134.243 40.6981L134.048 40.7888C134.048 40.7888 141.23 35.7718 143.216 34.1343C144.853 32.7735 149.233 29.9974 149.591 27.2938C149.651 26.8134 149.559 26.3262 149.328 25.9007C149.097 25.4753 148.738 25.1328 148.303 24.9214C148.005 24.7694 147.67 24.7029 147.337 24.7293C147.003 24.7557 146.683 24.8741 146.412 25.0711C146.412 25.0711 148.344 22.8031 146.816 21.3152C145.288 19.8274 144.095 20.9932 144.095 20.9932C144.095 20.9932 145.986 18.1127 144.232 16.516C143.868 16.2371 143.429 16.0749 142.972 16.0506C142.514 16.0263 142.061 16.1411 141.67 16.3799L142.382 15.6179L146.05 11.6669C146.487 11.2087 146.731 10.5994 146.731 9.96586C146.731 9.33227 146.487 8.72304 146.05 8.26481C145.825 8.03709 145.556 7.85679 145.261 7.73456C144.965 7.61234 144.648 7.55067 144.328 7.55321C144.008 7.55575 143.692 7.62244 143.398 7.74934C143.104 7.87624 142.839 8.06077 142.617 8.29203L132.298 19.0971L132.824 13.2001C132.955 11.6714 130.892 10.5646 129.977 11.1271C129.977 11.1271 128.566 11.676 128.163 14.0665C127.895 15.8719 125.978 27.1623 125.978 27.1623Z" fill="#F5F5F5"/>
<path d="M125.978 27.1623C125.978 27.1623 125.978 27.0625 126.014 26.8674C126.05 26.6724 126.087 26.3821 126.145 26.0101C126.268 25.248 126.445 24.1412 126.676 22.7124L127.537 17.4867C127.707 16.4676 127.887 15.3774 128.077 14.2162C128.157 13.6074 128.336 13.0159 128.607 12.4653C128.89 11.8644 129.359 11.371 129.945 11.0591C130.312 10.8777 130.735 10.8467 131.124 10.9729C131.508 11.0937 131.862 11.2947 132.162 11.5626C132.486 11.8348 132.727 12.1934 132.856 12.5968C132.888 12.7011 132.897 12.81 132.919 12.9143C132.942 13.0187 132.919 13.1366 132.919 13.2409L132.865 13.8624C132.72 15.5317 132.569 17.2796 132.411 19.1061L132.221 19.02L141.62 9.19472C141.833 8.97698 142.042 8.7411 142.255 8.53244C142.462 8.29517 142.693 8.07937 142.944 7.88831C143.491 7.51727 144.161 7.37258 144.812 7.4846C145.142 7.54145 145.457 7.66421 145.738 7.84553C146.019 8.02686 146.261 8.26304 146.449 8.53996C146.637 8.81687 146.767 9.12885 146.831 9.45723C146.896 9.78562 146.894 10.1237 146.825 10.4512C146.759 10.7834 146.631 11.1003 146.449 11.3857C146.256 11.6493 146.041 11.8952 145.805 12.1205L144.472 13.5494L141.752 16.448L141.593 16.2438C142.128 15.9321 142.76 15.8302 143.366 15.9581C143.62 16.014 143.863 16.1105 144.087 16.2438C144.204 16.3076 144.308 16.3921 144.395 16.4933C144.488 16.5856 144.573 16.6858 144.649 16.7927C144.949 17.2168 145.108 17.7247 145.102 18.2443C145.052 19.2408 144.739 20.2063 144.195 21.0431L143.996 20.8798C144.243 20.6606 144.545 20.5114 144.869 20.4476C145.194 20.3838 145.529 20.4077 145.841 20.5169C146.146 20.6311 146.427 20.8002 146.671 21.0158C146.794 21.1128 146.906 21.2223 147.006 21.3424L147.165 21.5239L147.288 21.7326C147.426 22.0127 147.505 22.3181 147.521 22.63C147.538 22.9419 147.491 23.2539 147.383 23.547C147.187 24.1223 146.891 24.6583 146.508 25.1301L146.34 24.9441C146.606 24.7533 146.916 24.6324 147.24 24.5928C147.565 24.5532 147.895 24.596 148.199 24.7173C148.643 24.8939 149.026 25.1977 149.298 25.5906C149.571 25.9836 149.721 26.4482 149.731 26.9264C149.724 27.234 149.676 27.5392 149.586 27.8336C149.384 28.3985 149.096 28.9292 148.734 29.4077C147.279 31.272 145.388 32.583 143.688 33.8757C141.987 35.1685 140.305 36.4387 138.7 37.5954L134.098 40.8387L134.003 40.6754L134.198 40.5847L134.175 40.7434L125.905 33.2543H125.991L125.946 33.2997L125.901 33.2588L123.965 31.4444L123.933 31.4126L123.96 31.3763C124.634 30.4338 125.183 29.4076 125.592 28.3235C125.733 27.9561 125.824 27.6658 125.882 27.4707C125.941 27.2757 125.978 27.1804 125.978 27.1804C125.894 27.5752 125.782 27.9633 125.642 28.3417C125.252 29.4423 124.713 30.4846 124.042 31.4398V31.3718C124.604 31.8935 125.23 32.4695 125.991 33.1863H125.905L125.946 33.1409L125.996 33.1817L134.311 40.6482L134.42 40.7434L134.289 40.8024L134.094 40.8931L133.976 40.6981L138.564 37.4366C140.16 36.2754 141.851 35.0733 143.529 33.7124C145.206 32.3516 147.111 31.0996 148.516 29.2761C148.862 28.8201 149.136 28.3137 149.328 27.7747C149.409 27.5034 149.454 27.2229 149.464 26.94C149.455 26.6574 149.394 26.379 149.283 26.119C149.052 25.5891 148.622 25.1718 148.086 24.9577C147.819 24.8525 147.53 24.816 147.246 24.8517C146.961 24.8873 146.69 24.994 146.458 25.1619L145.764 25.6744L146.317 24.985C146.679 24.5394 146.957 24.0323 147.138 23.488C147.239 23.2247 147.285 22.9431 147.272 22.6611C147.259 22.3792 147.187 22.1031 147.061 21.8505C146.761 21.3583 146.304 20.9813 145.764 20.78C145.497 20.686 145.211 20.6642 144.933 20.7167C144.655 20.7693 144.396 20.8944 144.182 21.0794L143.556 21.6464L143.987 20.9251C144.504 20.1307 144.801 19.2136 144.848 18.267C144.875 17.8016 144.736 17.3418 144.457 16.969C144.177 16.5962 143.774 16.3345 143.32 16.2302C142.777 16.1174 142.211 16.2112 141.733 16.4933L141.012 16.8925L141.575 16.2937L144.295 13.3952C144.746 12.9174 145.19 12.4411 145.628 11.9663C145.847 11.7448 146.044 11.5033 146.218 11.245C146.382 10.9872 146.497 10.7011 146.558 10.4013C146.619 10.1051 146.621 9.79962 146.562 9.50282C146.504 9.20601 146.387 8.92389 146.218 8.67306C146.047 8.4278 145.83 8.2186 145.579 8.05746C145.328 7.89633 145.047 7.78643 144.753 7.73409C144.167 7.63032 143.564 7.75884 143.071 8.09244C142.834 8.2747 142.615 8.47981 142.418 8.70482L141.783 9.36709L132.375 19.1696L132.162 19.3783L132.194 19.0698C132.357 17.2554 132.516 15.4954 132.67 13.8306C132.745 13.435 132.745 13.0288 132.67 12.6331C132.552 12.2657 132.334 11.9388 132.04 11.6896C131.757 11.4387 131.423 11.2529 131.06 11.1452C130.721 11.0312 130.351 11.0523 130.027 11.2042C129.482 11.4991 129.045 11.9598 128.78 12.5197C128.513 13.0523 128.337 13.6257 128.258 14.2162C128.059 15.3729 127.868 16.4843 127.696 17.4867C127.342 19.5189 127.039 21.2699 126.789 22.7033C126.54 24.1367 126.336 25.2344 126.209 25.992C126.141 26.3639 126.091 26.6452 126.05 26.8448C126.009 27.0443 125.978 27.1623 125.978 27.1623Z" fill="#E0E0E0"/>
<path d="M121.305 31.4616L121.398 31.3621C121.747 30.9886 122.23 30.7691 122.74 30.7519C123.251 30.7347 123.748 30.9212 124.121 31.2703L134.343 40.8298C134.715 41.1781 134.934 41.6602 134.951 42.17C134.968 42.6798 134.782 43.1755 134.434 43.5482L134.341 43.6476C133.992 44.0211 133.509 44.2406 132.999 44.2578C132.488 44.2751 131.991 44.0886 131.618 43.7394L121.4 34.1831C121.027 33.8348 120.808 33.3526 120.791 32.8428C120.774 32.333 120.96 31.8373 121.308 31.4647L121.305 31.4616Z" fill="#F5F5F5"/>
<path d="M131.609 43.7327C131.609 43.7327 131.718 43.8234 131.949 43.955C132.237 44.1188 132.563 44.205 132.894 44.205C133.226 44.205 133.552 44.1188 133.84 43.955C134.118 43.78 134.357 43.55 134.542 43.2791C134.763 42.9508 134.873 42.5602 134.855 42.1649C134.837 41.7696 134.692 41.3906 134.443 41.0836L124.014 31.3627C123.776 31.1396 123.481 30.9852 123.162 30.9157C122.843 30.8463 122.511 30.8644 122.201 30.9681C121.907 31.0765 121.641 31.2504 121.424 31.4768C121.208 31.7031 121.045 31.9759 120.949 32.2745C120.866 32.5655 120.857 32.8728 120.923 33.1683C120.988 33.4639 121.127 33.7382 121.326 33.9665C121.757 34.3974 122.233 34.8238 122.663 35.232L127.329 39.6366L130.457 42.6168L131.301 43.4379C131.403 43.5295 131.497 43.6296 131.582 43.7373C131.469 43.6577 131.363 43.5698 131.264 43.4742L130.389 42.6894L127.216 39.7682L122.514 35.4089C122.06 34.9916 121.607 34.5924 121.154 34.1298C120.922 33.8731 120.76 33.5624 120.681 33.2262C120.601 32.8901 120.608 32.5393 120.7 32.2064C120.808 31.8674 120.992 31.5575 121.238 31.3004C121.484 31.0434 121.785 30.8459 122.119 30.7231C122.47 30.6102 122.844 30.5927 123.203 30.6724C123.563 30.7521 123.894 30.9262 124.164 31.1768C128.245 34.9916 131.917 38.4345 134.552 40.9748C134.819 41.3121 134.972 41.7267 134.985 42.1573C134.999 42.5878 134.874 43.0114 134.629 43.3653C134.428 43.6508 134.169 43.8891 133.867 44.0639C133.61 44.2056 133.325 44.2877 133.033 44.3043C132.63 44.3283 132.231 44.2251 131.89 44.0094C131.783 43.9322 131.688 43.8389 131.609 43.7327Z" fill="#E0E0E0"/>
<path d="M137.839 20.2855C138.401 19.499 139.03 18.7628 139.72 18.0855C140.348 17.351 141.04 16.6739 141.788 16.0624C141.227 16.8488 140.599 17.5849 139.911 18.2624C139.282 18.9977 138.589 19.6748 137.839 20.2855Z" fill="#E0E0E0"/>
<path d="M141.747 23.4109C142.037 22.906 142.401 22.4474 142.826 22.0501C143.19 21.6019 143.616 21.2078 144.091 20.8798C143.803 21.3858 143.439 21.8447 143.012 22.2406C142.651 22.6913 142.224 23.0857 141.747 23.4109Z" fill="#E0E0E0"/>
<path d="M144.073 27.5705C144.363 27.0658 144.727 26.6071 145.152 26.2097C145.514 25.7587 145.942 25.3656 146.422 25.0439C146.131 25.5483 145.767 26.0069 145.343 26.4048C144.98 26.8547 144.552 27.2477 144.073 27.5705Z" fill="#E0E0E0"/>
<path d="M143.656 5.71551C143.195 4.82532 142.812 3.89639 142.513 2.9394C142.13 2.01308 141.826 1.05545 141.606 0.0771141C142.066 0.967888 142.449 1.8967 142.749 2.85322C143.133 3.77955 143.436 4.73717 143.656 5.71551Z" fill="#E0E0E0"/>
<path d="M146.354 6.37325C146.965 5.24332 147.651 4.15528 148.407 3.11631C149.093 2.02961 149.85 0.990028 150.674 0.00453568C150.061 1.1344 149.373 2.22242 148.616 3.26147C147.933 4.34865 147.177 5.38829 146.354 6.37325Z" fill="#E0E0E0"/>
<path d="M148.317 8.68213C149.304 8.34482 150.317 8.08696 151.345 7.91099C152.356 7.65365 153.385 7.47918 154.424 7.38934C153.44 7.73315 152.428 7.99264 151.4 8.16502C150.388 8.42253 149.357 8.59549 148.317 8.68213Z" fill="#E0E0E0"/>
<path d="M18.3264 104.839L3.77222 163.727H7.60346L22.5204 104.839H18.3264Z" fill="#F5F5F5"/>
<path d="M45.7483 104.839L59.3685 163.727H55.5372L41.5588 104.839H45.7483Z" fill="#F5F5F5"/>
<path d="M34.3678 162.86H29.9064L29.2444 95.2721H33.7013L34.3678 162.86Z" fill="#F5F5F5"/>
<path d="M62.9458 55.5765H0V95.9208H62.9458V55.5765Z" fill="#EBEBEB"/>
<path d="M47.2852 104.217H15.6921V108.114H47.2852V104.217Z" fill="#F5F5F5"/>
<path d="M4.18028 90.6589C4.21913 90.9033 4.23432 91.1509 4.22562 91.3983H4.13947C4.076 89.4251 4.02612 82.8885 4.02612 75.1408C4.02612 70.4686 4.0624 66.2364 4.07146 63.1246C4.07146 61.6187 4.10773 60.403 4.12134 59.4957C4.12134 59.092 4.12134 58.7654 4.14854 58.5023C4.14844 58.3867 4.15906 58.2713 4.18028 58.1576C4.20731 58.2704 4.21799 58.3865 4.21202 58.5023C4.21202 58.7654 4.21202 59.092 4.24376 59.4957C4.24376 60.403 4.27096 61.6323 4.29363 63.1246C4.29363 66.2364 4.32084 70.4686 4.33897 75.1408C4.33897 82.8885 4.2891 89.4251 4.22562 91.3983H4.13947C4.13436 91.1511 4.148 90.904 4.18028 90.6589Z" fill="#F5F5F5"/>
<path d="M8.86848 90.6589C8.90076 90.904 8.9144 91.1511 8.90929 91.3983H8.83674C8.77326 89.4251 8.72339 82.8885 8.72339 75.1408C8.72339 70.4686 8.75966 66.2364 8.76873 63.1246C8.7914 61.6187 8.80953 60.403 8.8186 59.4957C8.8186 59.092 8.8186 58.7654 8.85034 58.5023C8.84436 58.3865 8.85505 58.2704 8.88208 58.1576C8.90283 58.2713 8.91195 58.3868 8.90929 58.5023C8.90929 58.7654 8.90928 59.092 8.94102 59.4957C8.94102 60.403 8.96822 61.6323 8.99089 63.1246C8.99089 66.2364 9.0181 70.4686 9.03624 75.1408C9.03624 82.8885 8.98636 89.4251 8.92289 91.3983H8.83674C8.82354 91.1514 8.83417 90.9038 8.86848 90.6589Z" fill="#F5F5F5"/>
<path d="M13.5521 90.6589C13.5844 90.904 13.598 91.1511 13.5929 91.3983H13.5068C13.4433 89.4251 13.3979 82.8885 13.3979 75.1408C13.3979 70.4686 13.4297 66.2364 13.4433 63.1246C13.4433 61.6187 13.4796 60.403 13.4932 59.4957C13.4932 59.092 13.4932 58.7654 13.5204 58.5023C13.5173 58.3866 13.5279 58.2708 13.5521 58.1576C13.5763 58.2708 13.5869 58.3866 13.5838 58.5023C13.5838 58.7654 13.5838 59.092 13.611 59.4957C13.611 60.403 13.6428 61.6323 13.6609 63.1246C13.6609 66.2364 13.6881 70.4686 13.7063 75.1408C13.7063 82.8885 13.6609 89.4251 13.5929 91.3983H13.5068C13.5011 91.151 13.5163 90.9036 13.5521 90.6589Z" fill="#F5F5F5"/>
<path d="M18.2357 90.6589C18.2715 90.9036 18.2867 91.151 18.281 91.3983H18.1949C18.1269 89.4251 18.0815 82.8885 18.0815 75.1408C18.0815 70.4686 18.1133 66.2364 18.1269 63.1246C18.1269 61.6187 18.1632 60.403 18.1768 59.4957C18.1768 59.092 18.1994 58.7654 18.204 58.5023C18.2009 58.3866 18.2115 58.2708 18.2357 58.1576C18.2599 58.2708 18.2705 58.3866 18.2674 58.5023C18.2674 58.7654 18.2674 59.092 18.2946 59.4957C18.2946 60.403 18.3264 61.6323 18.3445 63.1246C18.3445 66.2364 18.3717 70.4686 18.3899 75.1408C18.3899 82.8885 18.3445 89.4251 18.281 91.3983H18.1949C18.1898 91.1511 18.2034 90.904 18.2357 90.6589Z" fill="#F5F5F5"/>
<path d="M22.9194 90.6589C22.9582 90.9033 22.9734 91.1509 22.9647 91.3983H22.8922C22.8287 89.4251 22.7788 82.8885 22.7788 75.1408C22.7788 70.4686 22.8151 66.2364 22.8241 63.1246C22.8468 61.6187 22.8604 60.403 22.874 59.4957C22.874 59.092 22.874 58.7654 22.9012 58.5023C22.9011 58.3867 22.9117 58.2713 22.933 58.1576C22.96 58.2704 22.9707 58.3865 22.9647 58.5023C22.9647 58.7654 22.9647 59.092 22.9964 59.4957C22.9964 60.403 23.0236 61.6323 23.0463 63.1246C23.0463 66.2364 23.0735 70.4686 23.0917 75.1408C23.0917 82.8885 23.0418 89.4251 22.9783 91.3983H22.8922C22.8825 91.1515 22.8916 90.9043 22.9194 90.6589Z" fill="#F5F5F5"/>
<path d="M27.6077 90.6589C27.6399 90.904 27.6536 91.1511 27.6485 91.3983H27.5623C27.4988 89.4251 27.449 82.8885 27.449 75.1408C27.449 70.4686 27.4852 66.2364 27.4943 63.1246C27.4943 61.6187 27.5351 60.403 27.5442 59.4957C27.5442 59.092 27.5442 58.7654 27.5759 58.5023C27.57 58.3865 27.5806 58.2704 27.6077 58.1576C27.6284 58.2713 27.6375 58.3868 27.6349 58.5023C27.6349 58.7654 27.6349 59.092 27.6666 59.4957C27.6666 60.403 27.6938 61.6323 27.7165 63.1246C27.7165 66.2364 27.7437 70.4686 27.7618 75.1408C27.7618 82.8885 27.7119 89.4251 27.6485 91.3983H27.5623C27.5536 91.1509 27.5688 90.9033 27.6077 90.6589Z" fill="#F5F5F5"/>
<path d="M32.2914 90.6589C32.3236 90.904 32.3373 91.1511 32.3322 91.3983H32.246C32.1825 89.4251 32.1372 82.8885 32.1372 75.1408C32.1372 70.4686 32.1689 66.2364 32.1825 63.1246C32.1825 61.6187 32.2188 60.403 32.2324 59.4957C32.2324 59.092 32.2324 58.7654 32.2596 58.5023C32.2566 58.3866 32.2672 58.2708 32.2914 58.1576C32.3155 58.2708 32.3262 58.3866 32.3231 58.5023C32.3231 58.7654 32.3231 59.092 32.3503 59.4957C32.3503 60.403 32.382 61.6323 32.4002 63.1246C32.4002 66.2364 32.4274 70.4686 32.4455 75.1408C32.4455 82.8885 32.4002 89.4251 32.3322 91.3983H32.246C32.2404 91.151 32.2555 90.9036 32.2914 90.6589Z" fill="#F5F5F5"/>
<path d="M36.975 90.6589C37.0109 90.9036 37.026 91.151 37.0204 91.3983H36.9478C36.8798 89.4251 36.8345 82.8885 36.8345 75.1408C36.8345 70.4686 36.8662 66.2364 36.8798 63.1246C36.8798 61.6187 36.9161 60.403 36.9297 59.4957C36.9297 59.092 36.9297 58.7654 36.9569 58.5023C36.9538 58.3866 36.9645 58.2708 36.9886 58.1576C37.0128 58.2708 37.0234 58.3866 37.0204 58.5023C37.0204 58.7654 37.0204 59.092 37.0476 59.4957C37.0476 60.403 37.0793 61.6323 37.0974 63.1246C37.0974 66.2364 37.1246 70.4686 37.1428 75.1408C37.1428 82.8885 37.0974 89.4251 37.034 91.3983H36.9478C36.9382 91.1515 36.9473 90.9043 36.975 90.6589Z" fill="#F5F5F5"/>
<path d="M41.6585 90.6589C41.6974 90.9033 41.7126 91.1509 41.7039 91.3983H41.6177C41.5543 89.4251 41.5044 82.8885 41.5044 75.1408C41.5044 70.4686 41.5407 66.2364 41.5497 63.1246C41.5497 61.6187 41.586 60.403 41.5996 59.4957C41.5996 59.092 41.6223 58.7654 41.6268 58.5023C41.6267 58.3867 41.6373 58.2713 41.6585 58.1576C41.6856 58.2704 41.6963 58.3865 41.6903 58.5023C41.6903 58.7654 41.6903 59.092 41.722 59.4957C41.722 60.403 41.7492 61.6323 41.7719 63.1246C41.7719 66.2364 41.7991 70.4686 41.8172 75.1408C41.8172 82.8885 41.7674 89.4251 41.7039 91.3983H41.6177C41.6126 91.1511 41.6263 90.904 41.6585 90.6589Z" fill="#F5F5F5"/>
<path d="M46.3467 90.6589C46.379 90.904 46.3926 91.1511 46.3875 91.3983H46.3013C46.2379 89.4251 46.188 82.8885 46.188 75.1408C46.188 70.4686 46.2243 66.2364 46.2333 63.1246C46.256 61.6187 46.2741 60.403 46.2832 59.4957C46.2832 59.092 46.2832 58.7654 46.3149 58.5023C46.309 58.3865 46.3196 58.2704 46.3467 58.1576C46.3679 58.2713 46.3785 58.3867 46.3784 58.5023C46.3784 58.7654 46.3784 59.092 46.4056 59.4957C46.4056 60.403 46.4328 61.6323 46.4555 63.1246C46.4555 66.2364 46.4827 70.4686 46.5008 75.1408C46.5008 82.8885 46.451 89.4251 46.3875 91.3983H46.3013C46.2926 91.1509 46.3078 90.9033 46.3467 90.6589Z" fill="#F5F5F5"/>
<path d="M51.0303 90.6589C51.0626 90.904 51.0762 91.1511 51.0711 91.3983H51.0031C50.9396 89.4251 50.8943 82.8885 50.8943 75.1408C50.8943 70.4686 50.926 66.2364 50.9396 63.1246C50.9396 61.6187 50.9759 60.403 50.9895 59.4957C50.9895 59.092 50.9895 58.7654 51.0167 58.5023C51.0136 58.3866 51.0243 58.2708 51.0484 58.1576C51.0726 58.2708 51.0833 58.3866 51.0802 58.5023C51.0802 58.7654 51.0802 59.092 51.1074 59.4957C51.1074 60.403 51.1391 61.6323 51.1573 63.1246C51.1573 66.2364 51.1845 70.4686 51.2026 75.1408C51.2026 82.8885 51.1573 89.4251 51.0893 91.3983H51.0031C50.9914 91.1515 51.0005 90.9042 51.0303 90.6589Z" fill="#F5F5F5"/>
<path d="M55.714 90.6589C55.7498 90.9036 55.765 91.151 55.7593 91.3983H55.6732C55.6052 89.4251 55.5598 82.8885 55.5598 75.1408C55.5598 70.4686 55.5915 66.2364 55.6052 63.1246C55.6052 61.6187 55.6414 60.403 55.655 59.4957C55.655 59.092 55.6777 58.7654 55.6822 58.5023C55.6792 58.3866 55.6898 58.2708 55.714 58.1576C55.7381 58.2708 55.7488 58.3866 55.7457 58.5023C55.7457 58.7654 55.7457 59.092 55.7729 59.4957C55.7729 60.403 55.8047 61.6323 55.8228 63.1246C55.8228 66.2364 55.85 70.4686 55.8681 75.1408C55.8681 82.8885 55.8228 89.4251 55.7593 91.3983H55.6732C55.6681 91.1511 55.6817 90.904 55.714 90.6589Z" fill="#F5F5F5"/>
<path d="M60.3976 90.6589C60.4364 90.9033 60.4516 91.1509 60.4429 91.3983H60.3568C60.2933 89.4251 60.2434 82.8885 60.2434 75.1408C60.2434 70.4686 60.2797 66.2364 60.2887 63.1246C60.3114 61.6187 60.325 60.403 60.3386 59.4957C60.3386 59.092 60.3386 58.7654 60.3658 58.5023C60.3657 58.3867 60.3763 58.2713 60.3976 58.1576C60.4246 58.2704 60.4353 58.3865 60.4293 58.5023C60.4293 58.7654 60.4293 59.092 60.461 59.4957C60.461 60.403 60.4882 61.6323 60.5109 63.1246C60.5109 66.2364 60.5381 70.4686 60.5563 75.1408C60.5563 82.8885 60.5064 89.4251 60.4429 91.3983H60.3568C60.3516 91.1511 60.3653 90.904 60.3976 90.6589Z" fill="#F5F5F5"/>
<path d="M107.991 26.7586L104.459 58.5976C103.856 64.0137 101.866 71.8431 93.3554 70.5049C86.0556 68.7812 84.9584 61.5325 85.5251 56.4792C85.7926 54.0842 86.0103 52.0837 86.0239 51.8388C86.0239 51.8388 78.0077 50.174 78.316 42.0861C78.4657 38.1805 79.4223 30.1516 80.3745 22.9029C80.8688 19.1478 82.7583 15.7166 85.6671 13.2923C88.5758 10.8681 92.2903 9.62866 96.0712 9.8207L96.8511 9.85699C105.23 10.7597 109.134 18.403 107.991 26.7586Z" fill="#936760"/>
<path d="M86.0238 51.8388C89.7554 52.0158 93.4595 51.1185 96.6968 49.2532C96.6968 49.2532 93.8359 55.0277 85.8152 53.8936L86.0238 51.8388Z" fill="#6F4C47"/>
<path d="M93.6228 27.8745C93.7633 28.0559 94.779 27.4208 96.121 27.5569C97.4631 27.693 98.388 28.4642 98.5467 28.3145C98.6283 28.2419 98.4968 27.9289 98.0933 27.566C97.5537 27.0999 96.8811 26.8158 96.1709 26.754C95.47 26.6845 94.7654 26.8436 94.1623 27.2076C93.7407 27.5025 93.5729 27.7928 93.6228 27.8745Z" fill="#263238"/>
<path d="M93.3373 30.6506C93.3208 30.9352 93.4157 31.2151 93.6019 31.431C93.7881 31.6469 94.0509 31.7818 94.3348 31.8073C94.4732 31.825 94.6137 31.8148 94.7481 31.7774C94.8825 31.74 95.0081 31.6761 95.1175 31.5895C95.2269 31.5029 95.3179 31.3953 95.3851 31.273C95.4523 31.1507 95.4945 31.0162 95.5091 30.8774C95.5255 30.5932 95.4304 30.3138 95.2441 30.0987C95.0579 29.8835 94.7951 29.7495 94.5116 29.7252C94.3736 29.7075 94.2334 29.7175 94.0992 29.7546C93.9651 29.7917 93.8397 29.8552 93.7304 29.9414C93.621 30.0275 93.53 30.1346 93.4625 30.2564C93.395 30.3781 93.3524 30.5122 93.3373 30.6506Z" fill="#263238"/>
<path d="M89.1298 36.7879C89.1298 36.7154 88.3771 36.543 87.1348 36.3343C86.8174 36.2844 86.5227 36.2073 86.4774 35.9896C86.471 35.6681 86.5611 35.3522 86.7358 35.0824L87.7967 32.7145C89.2703 29.3396 90.3539 26.559 90.2179 26.5046C90.0819 26.4501 88.7761 29.131 87.3025 32.5058C86.9428 33.3344 86.6028 34.1283 86.2824 34.8873C86.0615 35.2598 85.9811 35.699 86.0557 36.1257C86.0953 36.2403 86.161 36.3443 86.2475 36.4293C86.334 36.5143 86.4391 36.578 86.5544 36.6156C86.7272 36.6736 86.9073 36.7072 87.0894 36.7154C88.3408 36.8106 89.1207 36.856 89.1298 36.7879Z" fill="#263238"/>
<path d="M94.8335 22.9029C94.9288 23.2159 96.026 23.1251 97.3046 23.3565C98.5832 23.5878 99.6033 23.9961 99.7847 23.7284C99.8708 23.5969 99.7031 23.2748 99.2995 22.98C98.7662 22.5818 98.1435 22.3202 97.4859 22.2179C96.833 22.1008 96.1612 22.1491 95.5318 22.3585C95.0466 22.5264 94.7973 22.7532 94.8335 22.9029Z" fill="#263238"/>
<path d="M82.2334 22.9029C82.3467 23.1614 83.4258 23.0208 84.6953 23.1387C85.9649 23.2567 87.0032 23.5515 87.1664 23.3111C87.2389 23.1977 87.0576 22.9573 86.6404 22.7078C86.0812 22.4007 85.4629 22.2167 84.8268 22.168C84.1772 22.1072 83.5221 22.1845 82.9044 22.3948C82.4193 22.5536 82.188 22.7759 82.2334 22.9029Z" fill="#263238"/>
<path d="M107.03 32.71C107.171 32.6555 112.666 31.3491 112.212 36.865C111.759 42.381 106.318 40.7843 106.318 40.6255C106.318 40.4667 107.03 32.71 107.03 32.71Z" fill="#936760"/>
<path d="M108.172 38.675C108.2 38.675 108.263 38.7521 108.422 38.8383C108.642 38.9553 108.899 38.9814 109.138 38.9108C109.737 38.7475 110.303 37.863 110.412 36.8696C110.466 36.3982 110.413 35.9208 110.258 35.4725C110.221 35.2957 110.141 35.1307 110.025 34.9917C109.91 34.8526 109.763 34.7436 109.596 34.6741C109.488 34.6364 109.37 34.6375 109.262 34.6772C109.155 34.7169 109.064 34.7928 109.007 34.8918C108.921 35.037 108.948 35.1504 108.916 35.1595C108.884 35.1685 108.807 35.0551 108.871 34.8329C108.911 34.6985 108.998 34.5828 109.116 34.5063C109.275 34.4032 109.469 34.3673 109.655 34.4065C109.878 34.4704 110.081 34.5902 110.244 34.7546C110.407 34.9189 110.526 35.1223 110.589 35.3454C110.787 35.8417 110.859 36.3795 110.798 36.9104C110.671 38.0218 110.018 39.0152 109.202 39.1785C109.05 39.2093 108.892 39.2057 108.742 39.1681C108.591 39.1304 108.451 39.0596 108.331 38.9607C108.172 38.811 108.154 38.684 108.172 38.675Z" fill="#6F4C47"/>
<path d="M89.9549 40.748C89.9141 40.6028 91.0295 40.4123 91.9091 39.496C92.2776 39.0928 92.5917 38.6429 92.8431 38.1578C93.0517 37.7768 93.2058 37.5409 93.2648 37.5681C93.3237 37.5954 93.2648 37.863 93.1288 38.2849C92.9417 38.8505 92.632 39.3679 92.222 39.7999C91.8046 40.238 91.2742 40.552 90.6895 40.7071C90.2497 40.8205 89.964 40.7979 89.9549 40.748Z" fill="#263238"/>
<path d="M81.8345 26.1371C81.9751 26.3186 82.9907 25.6835 84.3328 25.8196C85.6748 25.9557 86.5998 26.7268 86.7585 26.5726C86.8401 26.5046 86.7086 26.1916 86.305 25.8287C85.7666 25.3607 85.0933 25.0764 84.3826 25.0167C83.6817 24.9472 82.9771 25.1063 82.3741 25.4703C81.9388 25.7652 81.771 26.0555 81.8345 26.1371Z" fill="#263238"/>
<path d="M81.7438 29.2172C81.7273 29.5018 81.8222 29.7817 82.0084 29.9976C82.1946 30.2135 82.4574 30.3484 82.7413 30.3739C82.8779 30.3917 83.0168 30.3823 83.1499 30.3463C83.2829 30.3103 83.4076 30.2484 83.5167 30.1641C83.6258 30.0799 83.7172 29.9749 83.7856 29.8552C83.8541 29.7355 83.8982 29.6034 83.9156 29.4666C83.9344 29.1826 83.8408 28.9026 83.655 28.6871C83.4692 28.4715 83.2062 28.3377 82.9226 28.3145C82.7858 28.2954 82.6466 28.3036 82.5131 28.3388C82.3795 28.3739 82.2542 28.4353 82.1446 28.5193C82.0349 28.6032 81.943 28.7082 81.8742 28.828C81.8054 28.9478 81.7611 29.0801 81.7438 29.2172Z" fill="#263238"/>
<path d="M111.387 27.7747C110.983 29.3124 110.027 32.8188 108.667 32.5058C105.946 31.8889 106.105 36.2527 104.79 35.7401C103.475 35.2275 103.167 31.7574 103.316 30.3739C103.77 26.0509 105.429 22.9482 103.602 18.0129C103.035 17.0336 102.225 16.2172 101.251 15.6427C100.276 15.0682 99.1698 14.755 98.0389 14.7333C96.8992 14.7341 95.7787 15.0262 94.7837 15.5819C93.7886 16.1376 92.952 16.9385 92.3532 17.9086C92.0721 16.3981 91.2832 14.13 89.9184 13.4315C89.2354 13.075 88.4625 12.9279 87.6964 13.0086C86.9303 13.0892 86.205 13.3941 85.6111 13.8851C85.0445 14.4057 84.6861 15.1144 84.6027 15.8796C84.5193 16.6447 84.7165 17.4141 85.1577 18.0447C84.8473 18.1447 84.5131 18.1427 84.2039 18.039C83.8947 17.9354 83.6268 17.7355 83.4393 17.4686C83.4207 17.8236 83.4751 18.1787 83.5991 18.5118C83.7231 18.845 83.9141 19.1492 84.1602 19.4055C83.6009 19.2808 83.1052 18.9587 82.7638 18.4983L83.2172 20.3672C80.9501 20.4806 78.6423 18.3214 77.9622 16.3663C76.933 13.3997 77.604 10.3696 79.2091 7.67512C80.8141 4.98066 83.7431 3.0392 86.9169 2.99384C90.0907 2.94848 92.7159 4.37736 93.99 7.24418C95.994 5.75634 100.106 5.16211 102.396 6.14191C103.541 6.64637 104.538 7.43558 105.292 8.43442C106.046 9.43327 106.532 10.6085 106.703 11.8483C108.109 11.2178 109.823 11.6442 111.042 12.5877L111.337 12.8327C112.153 13.5752 112.768 14.5128 113.123 15.5576C113.478 16.6025 113.563 17.7204 113.368 18.8068C113.223 19.6777 112.942 20.5849 112.783 21.288C112.248 23.3701 111.387 27.7747 111.387 27.7747Z" fill="#263238"/>
<path d="M83.0496 17.3507C83.0496 17.3507 82.9771 17.3098 82.8637 17.21C82.6963 17.066 82.5443 16.9048 82.4103 16.7292C81.8918 16.0749 81.5639 15.29 81.4627 14.4612C81.3712 13.8496 81.4117 13.2255 81.5814 12.6308C81.7511 12.0362 82.0461 11.4848 82.4466 11.0137C82.9375 10.4334 83.5623 9.98147 84.267 9.69695C84.9716 9.41243 85.7349 9.30388 86.4909 9.3807C87.2689 9.47819 88.0146 9.75117 88.6718 10.1791C89.2847 10.565 89.8338 11.044 90.2995 11.5989C91.0902 12.5225 91.6731 13.6054 92.0088 14.7741C92.2349 15.5628 92.3434 16.3806 92.3307 17.201C92.3307 17.4913 92.3035 17.7136 92.2809 17.8632C92.2764 17.9402 92.2627 18.0164 92.2401 18.0901C92.2895 16.9859 92.1578 15.8811 91.8501 14.8195C91.5005 13.6764 90.9151 12.6194 90.1317 11.7168C89.209 10.5843 87.9046 9.82775 86.4637 9.58936C85.7455 9.51936 85.0211 9.6229 84.3512 9.89128C83.6814 10.1597 83.0857 10.585 82.6143 11.1316C82.2285 11.5789 81.9414 12.1026 81.7718 12.6686C81.6023 13.2345 81.5541 13.8299 81.6305 14.4158C81.7114 15.2235 82.0021 15.9961 82.4738 16.6566C82.8138 17.1329 83.0632 17.3325 83.0496 17.3507Z" fill="#455A64"/>
<path d="M82.0566 19.7639C81.9909 19.6861 81.9346 19.6008 81.8888 19.5099C81.7845 19.3375 81.6349 19.0562 81.4354 18.7478C80.8991 17.8104 80.4557 16.8229 80.1115 15.7993C79.88 15.084 79.7443 14.3412 79.7079 13.5902C79.6633 12.7216 79.8008 11.8532 80.1115 11.0409C80.4736 10.1406 81.0935 9.36734 81.8933 8.81822C82.7478 8.23224 83.74 7.87893 84.7724 7.79305C85.7998 7.71388 86.8323 7.8546 87.8011 8.20584C88.7007 8.53041 89.546 8.98921 90.3085 9.56668C91.6386 10.507 92.6206 11.861 93.1014 13.4178C93.4007 14.4736 93.3706 15.5957 93.0153 16.634C92.9154 16.9107 92.7878 17.1767 92.6344 17.4278C92.5811 17.5159 92.5205 17.5994 92.453 17.6773C92.6335 17.332 92.7851 16.9724 92.9065 16.6022C93.217 15.5789 93.217 14.4865 92.9065 13.4632C92.4157 11.9542 91.4463 10.6467 90.1452 9.73905C88.6239 8.56102 86.7354 7.95856 84.8132 8.038C83.8208 8.12341 82.8669 8.46235 82.043 9.02234C81.2791 9.54484 80.6849 10.2797 80.3336 11.1362C80.028 11.9184 79.8876 12.7555 79.921 13.5948C79.9493 14.3303 80.0727 15.0592 80.2883 15.763C80.6168 16.7819 81.034 17.7701 81.5351 18.716L81.9296 19.5008C81.9798 19.5845 82.0222 19.6725 82.0566 19.7639Z" fill="#455A64"/>
<path d="M109.424 24.368C109.397 24.3317 109.909 23.9552 110.539 23.166C111.368 22.1467 111.927 20.9352 112.164 19.6431C112.402 18.3509 112.311 17.0197 111.899 15.7721C111.587 14.8104 111.242 14.2752 111.283 14.257C111.324 14.2389 111.392 14.3704 111.541 14.6199C111.747 14.969 111.92 15.3365 112.058 15.7177C112.525 16.9861 112.642 18.3568 112.398 19.6862C112.154 21.0157 111.558 22.2551 110.671 23.2748C110.406 23.5814 110.115 23.8638 109.8 24.1185C109.687 24.2194 109.561 24.3035 109.424 24.368Z" fill="#455A64"/>
<path d="M104.559 24.3227C104.559 24.3 104.822 24.1957 105.239 23.8963C105.82 23.4775 106.273 22.906 106.549 22.2451L106.758 21.728L106.722 22.286C106.672 23.039 106.613 23.9054 106.554 24.8489L106.377 24.7491C107.128 24.2083 107.765 23.5243 108.252 22.7366C108.738 21.9488 109.064 21.0727 109.211 20.1585C109.333 19.323 109.309 18.4725 109.138 17.6455C108.956 16.8859 108.686 16.1505 108.331 15.4546C108.371 15.4941 108.406 15.5383 108.435 15.5861C108.524 15.7146 108.606 15.8479 108.68 15.9853C108.957 16.4969 109.164 17.043 109.297 17.6092C109.616 18.9691 109.52 20.3933 109.022 21.6982C108.524 23.0032 107.647 24.129 106.504 24.9305L106.309 25.0666V24.8307L106.522 22.2724L106.699 22.3132C106.399 22.9965 105.906 23.5769 105.28 23.9825C105.11 24.0913 104.931 24.1839 104.745 24.2592C104.686 24.2877 104.623 24.309 104.559 24.3227Z" fill="#455A64"/>
<path d="M102.818 13.1049C102.495 12.5236 102.062 12.0106 101.544 11.5943C100.972 11.1661 100.307 10.88 99.6031 10.7597C98.7373 10.619 97.8494 10.7194 97.0368 11.05C96.2215 11.3765 95.4956 11.8928 94.9195 12.556C94.4511 13.0958 94.0743 13.7087 93.8041 14.3704C93.575 14.9982 93.3946 15.6428 93.2645 16.2983C93.2466 16.1165 93.2557 15.933 93.2918 15.7539C93.3553 15.2614 93.4739 14.7775 93.6454 14.3115C93.9039 13.6147 94.2796 12.9673 94.7562 12.3972C95.3483 11.6989 96.1015 11.1556 96.9507 10.8141C97.8041 10.4689 98.7371 10.3699 99.6439 10.5283C100.379 10.6696 101.067 10.9906 101.648 11.4628C102.037 11.7782 102.363 12.1645 102.609 12.6013C102.674 12.7202 102.732 12.8429 102.781 12.9688C102.802 13.0116 102.814 13.0577 102.818 13.1049Z" fill="#455A64"/>
<path d="M101.476 9.05863C100.993 8.82957 100.489 8.65022 99.9704 8.52337C98.728 8.28943 97.443 8.50316 96.3431 9.12668C95.2524 9.78699 94.373 10.7455 93.8086 11.8892C93.3552 12.7601 93.2328 13.3634 93.192 13.3498C93.1901 13.2048 93.2131 13.0606 93.26 12.9234C93.3601 12.5419 93.4936 12.1701 93.659 11.8121C94.1998 10.6183 95.0919 9.61808 96.2162 8.94523C97.3693 8.28378 98.7298 8.08286 100.025 8.38275C100.412 8.47921 100.783 8.63204 101.127 8.83636C101.253 8.89349 101.37 8.96833 101.476 9.05863Z" fill="#455A64"/>
<path d="M68.8036 134.7L119.467 135.39C119.467 135.39 133.635 129.456 137.53 129.298C141.425 129.139 149.151 129.633 152.724 135.39C156.419 141.341 156.936 151.838 145.551 159.463C134.461 166.893 83.7568 173.756 76.8061 173.126L64.002 155.916C64.002 155.916 63.8706 141.813 64.002 141.141C64.1335 140.47 66.2691 134.428 66.2691 134.428L68.8036 134.7Z" fill="#263238"/>
<path d="M99.1363 158.506L125.393 168.263L113.428 201C110.372 199.666 110.285 180.433 110.285 180.433L93.2058 174.872L99.1363 158.506Z" fill="#FF9915"/>
<g opacity="0.6">
<path d="M112.566 169.792C112.777 169.512 113.084 169.319 113.428 169.251C113.771 169.184 114.128 169.245 114.43 169.424C114.718 169.623 114.918 169.925 114.989 170.269C115.06 170.612 114.996 170.969 114.81 171.266C114.416 171.846 113.373 172.091 112.834 171.647C112.294 171.202 112.131 170.15 112.652 169.683" fill="white"/>
</g>
<path d="M125.393 168.263L122.74 167.256L112.24 199.099C112.24 199.099 112.339 200.791 113.427 201L125.393 168.263Z" fill="#263238"/>
<path d="M109.945 180.9C110.108 180.955 110.471 180.184 111.274 179.585C112.076 178.986 112.901 178.814 112.892 178.641C112.883 178.469 111.872 178.374 110.916 179.095C109.959 179.816 109.764 180.864 109.945 180.9Z" fill="#263238"/>
<path d="M110.09 184.856C110.231 184.947 110.752 184.357 111.627 184.062C112.502 183.767 113.273 183.867 113.328 183.708C113.382 183.55 112.511 183.114 111.432 183.5C110.353 183.885 109.945 184.797 110.09 184.856Z" fill="#263238"/>
<path d="M113.482 188.308C113.573 188.176 112.852 187.659 111.827 187.75C110.802 187.841 110.181 188.462 110.29 188.58C110.399 188.698 111.033 188.403 111.877 188.34C112.72 188.276 113.409 188.462 113.482 188.308Z" fill="#263238"/>
<path d="M106.173 179.204C106.341 179.204 106.391 178.374 106.781 177.494C107.171 176.614 107.715 176.011 107.61 175.879C107.506 175.747 106.704 176.215 106.25 177.24C105.797 178.265 106.019 179.236 106.173 179.204Z" fill="#263238"/>
<path d="M102.573 177.004C102.641 177.027 102.968 176.432 103.167 175.362C103.275 174.731 103.309 174.09 103.267 173.452C103.238 173.074 103.187 172.699 103.113 172.327C103.075 172.106 103.005 171.892 102.904 171.692C102.83 171.545 102.709 171.427 102.56 171.358C102.412 171.288 102.244 171.27 102.083 171.307C101.943 171.346 101.813 171.417 101.705 171.516C101.597 171.614 101.514 171.737 101.462 171.874C101.386 172.081 101.339 172.298 101.322 172.518C101.278 172.899 101.271 173.283 101.299 173.665C101.349 174.312 101.502 174.946 101.752 175.543C102.179 176.559 102.659 177.036 102.732 176.995C102.804 176.954 102.442 176.387 102.147 175.403C101.974 174.83 101.876 174.236 101.857 173.638C101.846 173.288 101.864 172.937 101.911 172.59C101.947 172.209 102.052 171.914 102.238 171.883C102.31 171.883 102.333 171.883 102.41 171.987C102.478 172.131 102.528 172.284 102.559 172.441C102.639 172.785 102.698 173.133 102.736 173.484C102.801 174.087 102.81 174.694 102.764 175.298C102.691 176.328 102.487 176.972 102.573 177.004Z" fill="#263238"/>
<path d="M102.881 176.877C102.927 176.832 102.469 176.305 101.453 175.865C100.859 175.608 100.226 175.454 99.5804 175.412C99.1957 175.392 98.81 175.41 98.4288 175.466C98.1807 175.475 97.9391 175.549 97.7278 175.679C97.5164 175.81 97.3424 175.992 97.2227 176.21C97.172 176.356 97.1642 176.514 97.2004 176.664C97.2365 176.815 97.3151 176.951 97.4268 177.058C97.587 177.214 97.7687 177.345 97.9663 177.448C98.3122 177.639 98.6853 177.775 99.0726 177.852C99.7175 177.989 100.387 177.961 101.018 177.771C102.101 177.444 102.537 176.863 102.487 176.813C102.437 176.764 101.915 177.172 100.922 177.367C100.349 177.476 99.7579 177.46 99.1905 177.321C98.8639 177.238 98.5498 177.111 98.2565 176.945C97.9255 176.764 97.6943 176.532 97.7759 176.414C97.8575 176.296 98.1976 176.07 98.524 176.038C98.8655 175.98 99.2114 175.953 99.5578 175.956C100.153 175.969 100.743 176.064 101.312 176.237C102.287 176.568 102.822 176.959 102.881 176.877Z" fill="#263238"/>
<path d="M77.4818 154.459L52.0913 166.253L66.6002 197.952C69.5382 196.382 68.1145 177.199 68.1145 177.199L84.7045 170.313L77.4818 154.459Z" fill="#FF9915"/>
<g opacity="0.6">
<path d="M64.9814 166.766C64.7494 166.503 64.4287 166.335 64.0807 166.294C63.7327 166.253 63.3818 166.342 63.0952 166.544C62.8233 166.765 62.6474 167.083 62.6043 167.432C62.5612 167.78 62.6542 168.131 62.864 168.413C63.3174 168.957 64.3557 169.12 64.8589 168.635C65.3622 168.149 65.4438 167.088 64.8861 166.666" fill="white"/>
</g>
<path d="M52.0776 166.249L54.6394 165.06L67.6112 195.96C67.6112 195.96 67.6429 197.652 66.5774 197.947L52.0776 166.249Z" fill="#263238"/>
<path d="M68.4909 177.634C68.3322 177.702 67.906 176.959 67.0626 176.423C66.2193 175.888 65.3805 175.784 65.376 175.611C65.3715 175.439 66.3735 175.262 67.3846 175.929C68.3957 176.596 68.645 177.603 68.4909 177.634Z" fill="#263238"/>
<path d="M68.6358 181.59C68.4998 181.694 67.933 181.136 67.0353 180.919C66.1375 180.701 65.3804 180.855 65.3169 180.701C65.2534 180.547 66.0831 180.043 67.1894 180.343C68.2957 180.642 68.7809 181.517 68.6358 181.59Z" fill="#263238"/>
<path d="M65.5119 185.3C65.4167 185.173 66.0877 184.602 67.1169 184.611C68.1462 184.62 68.8172 185.192 68.7175 185.319C68.6177 185.446 67.9603 185.201 67.1169 185.205C66.2736 185.21 65.6071 185.446 65.5119 185.3Z" fill="#263238"/>
<path d="M72.0952 175.648C71.923 175.648 71.8141 174.836 71.3517 173.992C70.8892 173.148 70.3043 172.586 70.4041 172.445C70.5038 172.305 71.3471 172.708 71.8776 173.715C72.4081 174.722 72.2494 175.666 72.0952 175.648Z" fill="#263238"/>
<path d="M75.5094 173.153C75.4459 173.185 75.056 172.613 74.793 171.561C74.6306 170.941 74.5453 170.305 74.5391 169.664C74.5378 169.287 74.5606 168.91 74.6071 168.535C74.6233 168.31 74.6753 168.09 74.7613 167.882C74.8227 167.728 74.9339 167.6 75.0771 167.518C75.2202 167.436 75.3869 167.404 75.5502 167.428C75.6944 167.453 75.8303 167.513 75.9464 167.603C76.0625 167.692 76.1552 167.808 76.2167 167.941C76.3088 168.156 76.3684 168.384 76.3935 168.617C76.466 168.993 76.504 169.376 76.5069 169.76C76.5091 170.405 76.4112 171.046 76.2167 171.66C75.8721 172.708 75.4096 173.225 75.3552 173.185C75.3008 173.144 75.591 172.559 75.8086 171.552C75.9356 170.968 75.9859 170.37 75.9583 169.773C75.9428 169.422 75.8973 169.073 75.8222 168.73C75.7588 168.358 75.6318 168.068 75.4414 168.05C75.3688 168.05 75.3462 168.05 75.2782 168.168C75.2229 168.314 75.1864 168.466 75.1693 168.621C75.1163 168.971 75.0845 169.324 75.0741 169.678C75.0538 170.285 75.0918 170.893 75.1875 171.493C75.3643 172.518 75.5955 173.153 75.5094 173.153Z" fill="#263238"/>
<path d="M75.1966 173.071C75.1468 173.026 75.5594 172.463 76.5342 171.951C77.4548 171.475 78.4888 171.263 79.5221 171.338C79.7706 171.327 80.0176 171.381 80.2393 171.494C80.461 171.607 80.6497 171.775 80.7871 171.982C80.848 172.125 80.8671 172.283 80.8422 172.436C80.8174 172.589 80.7495 172.733 80.6465 172.849C80.4983 173.016 80.3273 173.161 80.1387 173.28C79.8088 173.496 79.4481 173.661 79.0687 173.77C78.4363 173.954 77.768 173.979 77.1236 173.842C76.0173 173.597 75.5367 173.039 75.582 172.999C75.6274 172.958 76.1805 173.316 77.1871 173.452C77.7677 173.517 78.3555 173.455 78.91 173.271C79.2323 173.163 79.5377 173.011 79.8168 172.817C80.1297 172.613 80.3473 172.363 80.2702 172.255C80.1728 172.148 80.0533 172.065 79.9201 172.01C79.7869 171.955 79.6433 171.93 79.4994 171.937C79.1527 171.903 78.8034 171.903 78.4566 171.937C77.8654 171.993 77.2852 172.134 76.7337 172.354C75.7589 172.699 75.2556 173.153 75.1966 173.071Z" fill="#263238"/>
<path d="M66.2827 134.432C66.2827 134.432 44.4016 126.267 36.3582 127.311C31.8559 127.905 24.8146 131.343 24.2751 137.118C23.7355 142.892 25.1501 150.617 32.935 154.378C40.7199 158.138 71.7961 172.091 79.182 174.237C86.5679 176.382 104.958 181.418 104.958 181.418L111.949 161.459C111.949 161.459 73.7956 148.24 71.7825 146.762C69.7694 145.283 64.6686 143.273 64.6686 143.273L66.2827 134.432Z" fill="#263238"/>
<path d="M142.35 137.14L142.196 137.104L141.742 136.968C141.357 136.855 140.786 136.687 140.042 136.515C137.945 135.982 135.77 135.821 133.617 136.038C132.133 136.165 130.665 136.445 129.238 136.873C128.445 137.113 127.673 137.416 126.93 137.78L124.549 138.946C121.276 140.511 117.617 142.121 113.727 143.65C105.928 146.775 98.4425 148.259 93.1059 149.474C90.4309 150.064 88.2636 150.554 86.7583 150.908L85.0399 151.316L84.5865 151.416L84.4324 151.443C84.4776 151.418 84.5266 151.401 84.5775 151.393L85.0309 151.271C85.4208 151.166 85.9921 151.003 86.7402 150.817C88.2228 150.436 90.3674 149.91 93.0561 149.311C98.3881 148.054 105.851 146.548 113.622 143.414C117.513 141.876 121.167 140.284 124.441 138.728L126.825 137.576C127.581 137.211 128.365 136.907 129.17 136.669C130.61 136.241 132.092 135.969 133.59 135.857C135.769 135.648 137.967 135.836 140.078 136.41C140.822 136.601 141.389 136.782 141.774 136.914L142.205 137.072L142.35 137.14Z" fill="#455A64"/>
<path d="M141.198 134.256C141.198 134.296 140.532 134.174 139.462 134.06C136.668 133.752 133.844 133.898 131.097 134.491C130.04 134.714 129.396 134.9 129.387 134.863C129.53 134.786 129.683 134.726 129.841 134.686C130.126 134.587 130.548 134.46 131.074 134.328C132.448 133.983 133.853 133.774 135.268 133.702C136.681 133.631 138.097 133.695 139.498 133.893C140.038 133.974 140.468 134.056 140.763 134.124C140.912 134.152 141.058 134.196 141.198 134.256Z" fill="#455A64"/>
<path d="M57.0787 140.221C57.056 140.252 56.4485 139.767 55.4011 139.136C52.6651 137.434 49.5904 136.35 46.392 135.961C45.1679 135.807 44.4016 135.793 44.4016 135.752C44.5796 135.72 44.7607 135.71 44.9412 135.721C45.2903 135.721 45.7936 135.721 46.4102 135.793C49.6501 136.102 52.7644 137.203 55.4782 139C55.8894 139.268 56.2859 139.557 56.6661 139.867C56.8187 139.966 56.9575 140.085 57.0787 140.221Z" fill="#455A64"/>
<path d="M68.0601 169.977L68.2324 170.041L68.7266 170.25C69.18 170.431 69.8057 170.73 70.6626 171.062C72.3674 171.738 74.8838 172.663 78.1165 173.729C84.5775 175.838 93.8677 178.533 104.985 181.331L104.863 181.399L111.627 162.615L111.691 162.765L103.312 159.322L56.9608 140.221C55.0746 138.225 53.3336 136.465 51.7104 135.04C50.3308 133.823 48.8588 132.714 47.3079 131.724C46.332 131.11 45.324 130.548 44.2882 130.041L43.4766 129.66L43.2046 129.524L43.4857 129.642L44.3064 130.001C45.3535 130.491 46.3708 131.042 47.3532 131.652C48.918 132.631 50.4024 133.734 51.792 134.95C53.4333 136.365 55.1789 138.125 57.0741 140.112H57.0469L103.403 159.091L111.782 162.534L111.881 162.575L111.845 162.683L105.044 181.458L105.012 181.549L104.917 181.526C93.7997 178.705 84.514 175.983 78.0576 173.815C74.8294 172.735 72.3175 171.787 70.6173 171.093C69.7649 170.758 69.1301 170.445 68.6948 170.254L68.2052 170.032L68.0601 169.977Z" fill="#455A64"/>
<path d="M122.142 64.6624C122.142 64.6624 128.444 68.2913 129.723 72.5598C130.498 75.1499 136.374 108.291 137.304 114.823C138.233 121.355 136.27 126.199 133.486 128.368C130.702 130.536 122.255 133.421 122.255 133.421L110.399 137.272L106.994 128.599L118.283 112.369L117.2 101.405L122.142 64.6624Z" fill="#FF9915"/>
<path d="M109.759 58.9378L105.026 56.2161C105.026 56.2161 100.714 61.2603 94.8333 60.6434C88.9527 60.0265 85.4615 55.5403 85.4615 55.5403L67.9239 59.1102C66.7496 59.3461 64.605 60.09 62.5511 63.0249C60.2614 66.2954 49.4025 80.8064 49.4025 80.8064H41.8216C40.7949 80.8064 39.7877 81.0869 38.9087 81.6177C38.0298 82.1485 37.3124 82.9095 36.8342 83.8184C35.5374 86.2906 33.9823 89.5929 34.1138 90.9628C34.3722 93.2808 33.9233 99.6359 37.0291 101.618C38.013 102.249 41.5314 104.136 44.2836 104.009C48.3143 103.818 52.9979 101.718 55.6957 99.8309C57.9627 98.2297 63.2902 92.7047 65.335 90.55V90.5954L66.6499 136.614L112.625 135.308L122.146 64.6715C122.146 64.6715 110.222 58.9378 109.759 58.9378Z" fill="#FF9915"/>
<path d="M65.1673 71.2715C65.2308 71.2715 65.3532 76.9734 65.4348 84.0089C65.5164 91.0445 65.5346 96.7509 65.4665 96.7509C65.3985 96.7509 65.2807 91.049 65.199 84.0135C65.1174 76.978 65.1038 71.2715 65.1673 71.2715Z" fill="#263238"/>
<path d="M127.71 108.472C127.71 108.472 127.32 108.536 126.626 108.667C125.646 108.863 124.691 109.167 123.779 109.575C122.428 110.184 121.156 110.953 119.988 111.865C118.557 112.986 117.221 114.222 115.994 115.562C114.679 116.982 113.482 118.384 112.367 119.645C111.376 120.755 110.331 121.815 109.234 122.82C108.491 123.5 107.705 124.13 106.88 124.707C106.59 124.911 106.35 125.047 106.191 125.161C106.114 125.216 106.03 125.262 105.942 125.297C106.01 125.23 106.084 125.171 106.164 125.12C106.314 125.006 106.545 124.857 106.826 124.639C107.628 124.041 108.394 123.395 109.12 122.707C110.05 121.845 111.088 120.747 112.203 119.49C113.319 118.234 114.516 116.828 115.831 115.408C117.068 114.061 118.418 112.821 119.866 111.702C121.051 110.789 122.346 110.027 123.72 109.434C124.648 109.036 125.621 108.753 126.617 108.59C126.971 108.522 127.247 108.522 127.433 108.499C127.524 108.479 127.617 108.47 127.71 108.472Z" fill="#263238"/>
<path d="M128.752 105.356C128.752 105.397 128.054 105.497 126.939 105.81C124.072 106.603 121.471 108.153 119.408 110.296C118.619 111.117 118.197 111.688 118.166 111.657C118.236 111.506 118.324 111.364 118.428 111.235C118.691 110.864 118.977 110.511 119.285 110.178C121.31 107.938 123.961 106.358 126.894 105.642C127.334 105.533 127.781 105.45 128.231 105.392C128.402 105.356 128.578 105.344 128.752 105.356Z" fill="#263238"/>
<g opacity="0.3">
<path d="M43.1819 97.2771C45.6167 97.9394 48.5366 94.4375 50.7492 92.2465C51.8963 91.1034 53.0932 89.8878 53.5194 88.3228C53.8187 87.0076 53.6835 85.6308 53.1341 84.3991C52.7264 83.2883 52.1827 82.2324 51.5154 81.2555C51.7194 83.1471 52.1864 86.0411 51.5517 88.4181C51.0212 90.4003 49.7653 91.9744 48.4323 93.4713C47.0267 95.0544 45.3582 96.7146 43.1819 97.2771Z" fill="black"/>
</g>
<path d="M53.5875 95.2721C53.5421 95.2721 53.8232 94.4692 54.0409 93.1492C54.173 92.3771 54.2472 91.5963 54.263 90.8131C54.2792 89.8554 54.2155 88.898 54.0726 87.9508C53.9161 87.0049 53.6826 86.0735 53.3744 85.1657C53.116 84.4256 52.8038 83.7054 52.4404 83.011C51.8192 81.8225 51.3069 81.1603 51.3431 81.133C51.486 81.2689 51.6123 81.4211 51.7194 81.5867C51.8625 81.7658 51.9942 81.9536 52.1139 82.1491C52.259 82.3759 52.4313 82.63 52.59 82.9293C52.9766 83.6215 53.3072 84.3435 53.5784 85.0885C53.9044 86.0053 54.1472 86.9496 54.3038 87.91C54.4514 88.8718 54.5106 89.8451 54.4807 90.8177C54.4563 91.6119 54.3637 92.4026 54.2041 93.181C54.1497 93.5166 54.0635 93.807 53.9955 94.0882C53.9405 94.3108 53.8739 94.5303 53.796 94.7459C53.7434 94.9276 53.6735 95.1037 53.5875 95.2721Z" fill="#263238"/>
<path d="M87.3839 57.3184C87.4157 57.3774 86.8761 57.6904 86.3139 58.1984C85.7517 58.7065 85.3708 59.2009 85.3164 59.1601C85.5139 58.726 85.7998 58.338 86.1558 58.0208C86.5118 57.7037 86.9301 57.4644 87.3839 57.3184Z" fill="#263238"/>
<path d="M92.1675 60.0991C92.2174 60.149 91.7549 60.6434 91.3831 61.3782C91.0113 62.1131 90.8708 62.7754 90.8028 62.7391C90.7702 62.2152 90.9 61.694 91.1746 61.2467C91.3829 60.7731 91.7289 60.3732 92.1675 60.0991Z" fill="#263238"/>
<path d="M100.36 62.984C100.141 62.5486 99.9651 62.0928 99.8345 61.6232C99.6344 61.1764 99.4824 60.7096 99.3811 60.2306C99.7017 60.6151 99.9367 61.0635 100.07 61.5461C100.271 61.9985 100.37 62.4893 100.36 62.984Z" fill="#263238"/>
<path d="M105.634 60.4892C105.561 60.4892 105.384 59.7044 104.863 58.8562C104.341 58.0079 103.725 57.4726 103.775 57.4182C104.326 57.7191 104.776 58.1769 105.067 58.7337C105.425 59.2498 105.622 59.8608 105.634 60.4892Z" fill="#263238"/>
<path d="M120.768 75.3949C120.836 75.3949 120.056 81.691 119.031 89.4342C118.007 97.1773 117.123 103.451 117.059 103.442C116.996 103.433 117.771 97.1501 118.796 89.4024C119.82 81.6547 120.704 75.3858 120.768 75.3949Z" fill="#263238"/>
<path d="M51.8735 85.5739C51.8915 85.7897 51.8915 86.0067 51.8735 86.2226C51.8612 86.4771 51.8293 86.7304 51.7783 86.9801C51.7511 87.1298 51.7284 87.284 51.6967 87.4337C51.665 87.5834 51.6151 87.7694 51.5652 87.9508C51.3416 88.8017 51.038 89.6294 50.6584 90.423C50.1819 91.3888 49.6157 92.3077 48.9672 93.1674C48.2999 94.0205 47.5395 94.7964 46.7002 95.4808C46.0093 96.0345 45.2467 96.4923 44.4332 96.8416C44.2564 96.9097 44.0932 96.9868 43.9345 97.0457L43.4811 97.1728L43.0821 97.2816C42.9596 97.3088 42.8418 97.3134 42.7375 97.3315C42.5231 97.3656 42.3062 97.3823 42.0891 97.3814C42.8663 97.2275 43.6259 96.9949 44.3561 96.6874C45.1387 96.3272 45.8729 95.87 46.5415 95.3266C47.35 94.6491 48.0855 93.8889 48.736 93.0585C49.3752 92.2128 49.9367 91.311 50.4136 90.364C50.797 89.5852 51.1125 88.7748 51.3566 87.9418C51.5697 87.1619 51.7422 86.3716 51.8735 85.5739Z" fill="#263238"/>
<g opacity="0.3">
<path d="M119.29 138.179C121.24 137.236 121.684 134.709 121.883 132.55C122.464 126.233 123.046 119.911 123.629 113.584C123.906 110.613 124.037 107.234 121.942 105.093C120.029 103.151 116.987 103.038 114.262 103.047C97.4406 103.092 82.5826 103.587 65.7478 103.632L66.6047 133.076L119.29 138.179Z" fill="black"/>
</g>
<path d="M58.507 108.196L60.2979 142.343C60.335 142.981 60.6153 143.58 61.081 144.018C61.5466 144.455 62.1621 144.697 62.8007 144.693L117.173 144.788C117.812 144.791 118.428 144.547 118.894 144.108C119.36 143.669 119.639 143.069 119.675 142.43L121.747 108.862C121.82 107.465 120.841 105.61 119.417 105.583H61.0596C60.7169 105.574 60.3759 105.635 60.0582 105.764C59.7404 105.893 59.4527 106.086 59.213 106.331C58.9733 106.577 58.7869 106.869 58.6654 107.19C58.5439 107.511 58.49 107.853 58.507 108.196Z" fill="#E0E0E0"/>
<path d="M58.507 108.196C58.507 108.196 58.507 108.15 58.507 108.069C58.4951 107.942 58.4951 107.814 58.507 107.687C58.5809 107.189 58.8056 106.725 59.1508 106.358C59.4039 106.087 59.7135 105.875 60.0576 105.737C60.4785 105.586 60.9264 105.524 61.3725 105.556H64.6778L85.7428 105.519L116.987 105.487H119.208C119.602 105.466 119.993 105.566 120.328 105.773C120.659 105.984 120.942 106.262 121.158 106.59C121.603 107.239 121.841 108.007 121.843 108.794C121.797 109.552 121.752 110.318 121.707 111.09C121.516 114.162 121.323 117.297 121.126 120.493C120.736 126.884 120.328 133.498 119.907 140.275L119.83 141.545C119.793 141.967 119.802 142.375 119.725 142.82C119.638 143.254 119.441 143.659 119.154 143.996C118.867 144.334 118.499 144.592 118.084 144.748C117.676 144.892 117.242 144.95 116.81 144.915H113.069H103.308L84.8542 144.875L68.1554 144.834H64.3015H63.3811C63.0682 144.834 62.7599 144.834 62.4335 144.802C61.7971 144.712 61.217 144.389 60.8057 143.895C60.4045 143.413 60.189 142.803 60.1982 142.176C60.1664 141.581 60.1392 140.996 60.1075 140.416C60.0486 139.25 59.9896 138.116 59.9307 137.004C59.4773 128.118 59.1191 120.928 58.8652 115.957C58.7473 113.476 58.6521 111.548 58.5886 110.232C58.5614 109.579 58.5387 109.085 58.5206 108.744C58.5025 108.404 58.5206 108.236 58.5206 108.236C58.5206 108.236 58.5206 108.409 58.5614 108.744C58.6022 109.08 58.6113 109.579 58.6475 110.228C58.7246 111.543 58.8334 113.471 58.974 115.952C59.2415 120.942 59.6314 128.114 60.112 136.995C60.171 138.107 60.2345 139.241 60.2979 140.407C60.3251 140.987 60.3569 141.572 60.3886 142.167C60.3797 142.755 60.5824 143.326 60.9599 143.777C61.3431 144.234 61.8832 144.532 62.4743 144.611C62.7757 144.638 63.0785 144.648 63.3811 144.639H68.1735H84.8723L103.326 144.666H113.087H116.828C117.232 144.698 117.638 144.646 118.02 144.512C118.397 144.371 118.732 144.136 118.993 143.83C119.254 143.523 119.433 143.155 119.512 142.761C119.58 142.375 119.58 141.931 119.612 141.518L119.689 140.248C120.111 133.471 120.519 126.857 120.918 120.47C121.114 117.271 121.308 114.135 121.498 111.062C121.548 110.296 121.593 109.534 121.639 108.772C121.636 108.033 121.411 107.313 120.995 106.703C120.816 106.393 120.557 106.136 120.245 105.959C119.934 105.782 119.58 105.691 119.222 105.696H117.005H85.761L64.6959 105.664H61.3906C60.9529 105.63 60.5129 105.687 60.0984 105.832C59.6972 105.987 59.3433 106.244 59.0714 106.577C58.7995 106.91 58.619 107.309 58.5478 107.733C58.5264 107.886 58.5128 108.041 58.507 108.196Z" fill="#263238"/>
<path d="M90.5306 128.05C92.2985 128.05 93.7316 126.616 93.7316 124.848C93.7316 123.079 92.2985 121.645 90.5306 121.645C88.7627 121.645 87.3296 123.079 87.3296 124.848C87.3296 126.616 88.7627 128.05 90.5306 128.05Z" fill="white"/>
<path d="M93.7317 124.852C93.709 124.852 93.7317 124.566 93.5866 124.081C93.3988 123.396 92.9869 122.794 92.4168 122.371C92.0301 122.079 91.5794 121.883 91.102 121.799C90.5575 121.704 89.9977 121.754 89.4788 121.945C88.9037 122.152 88.4045 122.529 88.046 123.024C87.6804 123.524 87.4732 124.123 87.4511 124.742C87.4291 125.362 87.5932 125.973 87.9222 126.498C88.2513 127.023 88.7302 127.438 89.297 127.688C89.8638 127.938 90.4926 128.012 91.102 127.9C91.5794 127.817 92.0301 127.621 92.4168 127.329C92.9861 126.907 93.3979 126.307 93.5866 125.623C93.7181 125.138 93.709 124.848 93.7317 124.852C93.7436 124.92 93.7436 124.989 93.7317 125.056C93.7343 125.255 93.7115 125.453 93.6637 125.646C93.4986 126.366 93.0902 127.007 92.5075 127.46C92.0718 127.8 91.5574 128.024 91.0119 128.111C90.4665 128.199 89.9079 128.146 89.3881 127.959C88.9027 127.786 88.4646 127.501 88.109 127.128C87.7534 126.755 87.4902 126.303 87.3403 125.81C87.1905 125.316 87.1582 124.795 87.2461 124.286C87.334 123.778 87.5396 123.298 87.8465 122.883C88.2328 122.354 88.7703 121.954 89.3881 121.736C89.9446 121.537 90.5445 121.491 91.1246 121.604C91.6214 121.704 92.0874 121.92 92.4848 122.235C93.0696 122.687 93.4784 123.328 93.641 124.049C93.689 124.241 93.7119 124.437 93.709 124.634C93.7293 124.705 93.737 124.779 93.7317 124.852Z" fill="#263238"/>
<path d="M60.3387 111.974C60.4022 111.974 60.6742 117.712 60.9372 124.793C61.2002 131.874 61.3634 137.617 61.2999 137.617C61.2364 137.617 60.978 131.874 60.7014 124.798C60.4248 117.721 60.2752 111.979 60.3387 111.974Z" fill="#263238"/>
<path d="M43.998 67.4204C43.6761 67.1482 45.0726 61.7865 45.0726 61.7865C45.0726 61.7865 41.3819 55.7671 41.2867 53.8256C41.1915 51.8841 42.7421 47.9014 42.7421 47.9014L53.32 45.1798C53.32 45.1798 56.7205 51.494 57.4006 53.7258C58.0807 55.9576 56.2353 63.5329 56.2353 63.5329L54.4217 67.4204C54.4217 67.4204 49.0353 71.6934 43.998 67.4204Z" fill="#936760"/>
<path d="M41.3047 54.9868C40.8906 54.2229 40.5183 53.437 40.1893 52.6326C39.5228 51.045 38.6976 49.4845 40.1893 48.5955C40.4221 48.4422 40.685 48.3406 40.9603 48.2976C41.2356 48.2545 41.5169 48.271 41.7853 48.346C41.7853 48.346 41.5586 46.9851 42.3566 46.5043C42.5887 46.3592 42.8519 46.2712 43.1246 46.2476C43.3973 46.2239 43.6717 46.2653 43.9254 46.3682C43.9254 46.3682 43.6715 44.4812 44.8322 43.6828C45.2641 43.3975 45.767 43.2382 46.2844 43.223C46.8018 43.2078 47.3132 43.3372 47.7611 43.5966C47.7611 43.5966 46.8543 35.3364 46.7727 34.9009C46.4825 33.2951 47.0765 31.8708 48.6725 32.27C49.2574 32.4151 49.5793 33.032 50.2685 35.7219C50.9576 38.4119 52.0594 43.0024 52.0594 43.0024C52.0594 43.0024 53.9183 46.2321 54.7798 47.9921C55.6413 49.7522 57.3959 53.7349 57.541 54.7963C57.9128 57.518 56.3123 61.1469 56.3123 61.1469L45.0679 61.8001L41.3047 54.9868Z" fill="#936760"/>
<path d="M42.0076 48.6998C42.3282 49.0823 42.6192 49.4887 42.8781 49.9155L43.7849 51.2763C43.9687 51.5443 44.1309 51.8264 44.2701 52.12C44.4282 52.4549 44.4743 52.8319 44.4016 53.1951C44.3674 53.3848 44.2835 53.562 44.1584 53.7087C44.0334 53.8553 43.8716 53.9661 43.6897 54.0297C43.3501 54.1147 42.991 54.0694 42.6832 53.9027C42.4184 53.7758 42.1664 53.6239 41.9305 53.4491C41.7129 53.2903 41.5089 53.1361 41.3275 52.9955C40.9602 52.7097 40.6791 52.4648 40.4887 52.2879C40.2983 52.1109 40.1985 52.0112 40.2076 51.9975C40.2167 51.9839 40.661 52.3287 41.4273 52.8594C41.8555 53.182 42.3105 53.4673 42.7875 53.7122C43.0479 53.8493 43.3494 53.8864 43.6353 53.8165C43.7781 53.7647 43.9043 53.6755 44.0008 53.5582C44.0973 53.4409 44.1606 53.2998 44.1839 53.1497C44.2416 52.8429 44.202 52.5257 44.0706 52.2425C43.9403 51.9593 43.7887 51.6863 43.6172 51.426L42.7693 50.0652C42.4777 49.6322 42.2229 49.1754 42.0076 48.6998Z" fill="#6F4C47"/>
<path d="M51.2298 49.6841C51.1331 49.0932 51.1734 48.4879 51.3477 47.915C51.4495 47.3241 51.6904 46.7659 52.0505 46.2866C52.114 46.3183 51.8011 47.0396 51.5971 47.9695C51.3931 48.8994 51.3024 49.6841 51.2298 49.6841Z" fill="#6F4C47"/>
<path d="M55.6912 52.0973C54.6533 51.092 53.346 50.4097 51.928 50.1332C50.5164 49.8611 49.0716 49.8061 47.6434 49.9699C46.5008 50.0742 45.1905 50.3691 44.6736 51.3942C44.1567 52.4194 44.7824 53.8075 45.7935 54.4108C46.8046 55.0141 48.0605 55.0413 49.2439 54.937C50.4272 54.8326 51.6061 54.6104 52.7759 54.7918" fill="#936760"/>
<path d="M52.776 54.7918C52.776 54.7918 52.4586 54.76 51.8692 54.7918C51.0634 54.8268 50.2598 54.9025 49.4616 55.0186C48.9009 55.0903 48.3352 55.1145 47.7704 55.0912C47.1121 55.0687 46.466 54.9064 45.8752 54.6149C45.2158 54.2675 44.7133 53.682 44.4697 52.9773C44.3404 52.6012 44.3122 52.1975 44.3881 51.807C44.4848 51.4044 44.7014 51.0406 45.0092 50.7637C45.6338 50.2806 46.3851 49.9891 47.172 49.9245C47.8808 49.8411 48.5938 49.7987 49.3075 49.7975C50.5217 49.7754 51.7311 49.9579 52.8848 50.3373C53.661 50.5983 54.3865 50.9911 55.0294 51.4986C55.205 51.6375 55.3701 51.7892 55.5236 51.9522C55.5811 52.0043 55.6314 52.0637 55.6732 52.1291C55.6732 52.1291 55.4375 51.9159 54.975 51.5802C54.3217 51.1102 53.5978 50.7473 52.8304 50.5052C51.6916 50.1543 50.5032 49.9919 49.312 50.0243C48.6072 50.0321 47.9033 50.0791 47.2037 50.1649C46.4635 50.2241 45.7564 50.4967 45.1679 50.9497C44.8971 51.1893 44.7057 51.5057 44.6193 51.8569C44.5485 52.206 44.572 52.5677 44.6873 52.9048C44.9103 53.5567 45.372 54.0997 45.9795 54.4244C46.5448 54.7033 47.1632 54.858 47.7931 54.878C48.3465 54.9085 48.9014 54.8949 49.4526 54.8372C50.2584 54.732 51.0702 54.6789 51.8828 54.6784C52.1029 54.6883 52.3223 54.7095 52.5402 54.7419C52.6209 54.7467 52.7003 54.7635 52.776 54.7918Z" fill="#6F4C47"/>
<path d="M42.0891 48.8313C43.2725 50.6458 44.3153 52.6054 45.3128 54.5106C45.551 55.0939 45.9427 55.6018 46.4463 55.9803C46.8725 56.2434 47.9289 55.7671 48.405 55.6038L45.1541 48.2099" fill="#936760"/>
<path d="M45.1541 48.2099C45.2678 48.3834 45.3649 48.5671 45.4443 48.7588L46.1607 50.3101C46.7637 51.6256 47.5889 53.4854 48.5093 55.5584L48.5637 55.6718L48.4413 55.7172C48.0922 55.8396 47.7158 55.9984 47.3078 56.1027C47.1443 56.1434 46.9773 56.1677 46.809 56.1753C46.7205 56.1795 46.6318 56.1704 46.5461 56.1481C46.4564 56.126 46.3727 56.0841 46.3012 56.0256C46.0395 55.8369 45.8163 55.5998 45.6438 55.3271C45.3128 54.8009 45.077 54.2747 44.8095 53.7893C44.3017 52.805 43.8347 51.925 43.4266 51.1901C43.0186 50.4553 42.6831 49.8701 42.4428 49.4664C42.3103 49.2631 42.1922 49.0509 42.0891 48.8313C42.2521 49.0129 42.3965 49.2105 42.5198 49.421C42.7828 49.8066 43.1501 50.3827 43.5717 51.1085C43.9934 51.8342 44.4785 52.7052 45.0045 53.685C45.272 54.1703 45.5214 54.7056 45.8387 55.2C45.9964 55.4462 46.1977 55.6614 46.4327 55.8351C46.5579 55.9002 46.6958 55.9371 46.8368 55.9434C46.9777 55.9496 47.1183 55.9251 47.2488 55.8714C47.6342 55.7761 48.0015 55.6219 48.3642 55.4949L48.2826 55.6673C47.3758 53.5761 46.5687 51.7208 46.0156 50.3872L45.3627 48.8087C45.2756 48.6156 45.2059 48.4152 45.1541 48.2099Z" fill="#6F4C47"/>
<path d="M44.2791 46.0099C45.3219 48.6317 46.3662 51.2521 47.4121 53.871C47.6025 54.4408 47.8876 54.9745 48.2554 55.4495C48.4412 55.6854 48.6826 55.8715 48.958 55.991C49.2334 56.1106 49.5341 56.1599 49.8332 56.1345C50.6493 56.0165 51.1934 55.1501 51.2252 54.32C51.2002 53.4919 50.9992 52.6785 50.6357 51.934C49.6987 49.5432 48.9484 47.0833 48.3914 44.5765" fill="#936760"/>
<path d="M48.3916 44.581C48.4232 44.6591 48.449 44.7395 48.4687 44.8214C48.5185 45.0028 48.5775 45.2342 48.6546 45.5154C48.8178 46.1187 49.0535 46.9897 49.3845 48.0557C49.7155 49.1216 50.1417 50.3781 50.6813 51.7481C51.0155 52.4658 51.2372 53.2308 51.3387 54.0161C51.3687 54.4472 51.2859 54.8788 51.0984 55.2681C50.9068 55.675 50.5729 55.9977 50.1598 56.1753C49.9452 56.2539 49.716 56.2848 49.4882 56.266C49.2604 56.2472 49.0394 56.1791 48.8404 56.0664C48.4683 55.859 48.156 55.559 47.9336 55.1955C47.5589 54.5109 47.242 53.7963 46.986 53.059C46.451 51.6982 45.9704 50.4553 45.5578 49.4074C45.1452 48.3596 44.8505 47.5476 44.6147 46.9352L44.3654 46.2593C44.333 46.1807 44.3102 46.0985 44.2974 46.0144C44.3432 46.0857 44.3812 46.1617 44.4107 46.2412L44.7009 46.8989C44.9503 47.5068 45.2948 48.3369 45.712 49.3439C46.1291 50.3509 46.6188 51.612 47.1901 52.9728C47.4454 53.6929 47.7593 54.3907 48.1286 55.0594C48.3342 55.3916 48.6234 55.6638 48.9674 55.8487C49.1371 55.9442 49.3253 56.0021 49.5193 56.0185C49.7133 56.0349 49.9085 56.0095 50.0918 55.944C50.4535 55.7861 50.7441 55.5002 50.908 55.1411C51.0785 54.7886 51.1535 54.3976 51.1256 54.007C51.025 53.2525 50.8126 52.5171 50.4954 51.8252C49.9649 50.4643 49.5523 49.1715 49.244 48.101C48.9357 47.0305 48.718 46.1414 48.582 45.5336C48.5185 45.2251 48.4687 44.9892 48.4415 44.8259C48.4121 44.7474 48.3953 44.6647 48.3916 44.581Z" fill="#6F4C47"/>
<path d="M44.5285 64.4401C44.5285 64.4401 37.3557 85.6057 37.07 86.6399C36.7844 87.6741 38.4892 95.2358 41.604 97.0276C44.7189 98.8194 50.7628 91.362 51.5154 88.6222C52.2681 85.8824 51.5154 81.2555 51.5154 81.2555L56.3532 63.0249" fill="#936760"/>
<path d="M51.5155 61.1514C51.2866 61.1805 51.0542 61.1508 50.8399 61.0652C50.3105 60.9002 49.8243 60.6198 49.4162 60.2442C49.0031 59.8678 48.6806 59.4025 48.4732 58.8834C48.3674 58.6776 48.3174 58.4477 48.3281 58.2166C48.627 58.9033 49.0496 59.5291 49.5749 60.0628C50.1482 60.5436 50.8064 60.9129 51.5155 61.1514Z" fill="#6F4C47"/>
<path d="M180.368 163.727C180.368 163.795 140.419 163.849 91.1474 163.849C41.8763 163.849 1.91797 163.795 1.91797 163.727C1.91797 163.659 41.8627 163.609 91.1474 163.609C140.432 163.609 180.368 163.663 180.368 163.727Z" fill="#263238"/>
<path d="M63.4444 11.998H12.5591C11.2345 11.998 10.1606 13.0724 10.1606 14.3976V28.514C10.1606 29.8393 11.2345 30.9137 12.5591 30.9137H63.4444C64.7691 30.9137 65.8429 29.8393 65.8429 28.514V14.3976C65.8429 13.0724 64.7691 11.998 63.4444 11.998Z" fill="#FF9915"/>
<path d="M66.2011 30.9137H17.2655C16.5916 30.9065 15.9476 30.6339 15.4732 30.1551C14.9988 29.6762 14.7321 29.0295 14.731 28.3553V14.4929C14.7322 13.8147 15.002 13.1647 15.4813 12.6852C15.9606 12.2057 16.6103 11.9357 17.2881 11.9345H66.2011C66.879 11.9357 67.5287 12.2057 68.008 12.6852C68.4873 13.1647 68.7571 13.8147 68.7583 14.4929V28.3553C68.7571 29.0334 68.4873 29.6835 68.008 30.163C67.5287 30.6425 66.879 30.9125 66.2011 30.9137ZM17.2655 12.3881C16.7118 12.3953 16.1832 12.62 15.7938 13.0139C15.4044 13.4077 15.1855 13.939 15.1844 14.4929V28.3553C15.1844 28.9135 15.406 29.4489 15.8005 29.8436C16.1951 30.2383 16.7302 30.46 17.2881 30.46H66.2011C66.7591 30.46 67.2942 30.2383 67.6887 29.8436C68.0833 29.4489 68.3049 28.9135 68.3049 28.3553V14.4929C68.3037 13.9351 68.0817 13.4004 67.6874 13.0059C67.2931 12.6115 66.7587 12.3893 66.2011 12.3881H17.2655Z" fill="#FF9915"/>
<path d="M20.3984 21.1927C20.4225 20.7653 20.5716 20.3543 20.8274 20.0111C21.0832 19.6678 21.4343 19.4075 21.8369 19.2624C22.2395 19.1173 22.6759 19.094 23.0917 19.1952C23.5075 19.2965 23.8844 19.5179 24.1753 19.8319L23.5859 20.3762C23.4651 20.2308 23.3131 20.1144 23.1412 20.0359C22.9693 19.9573 22.7819 19.9186 22.5929 19.9226C22.2574 19.9226 21.9356 20.056 21.6984 20.2933C21.4612 20.5307 21.3279 20.8526 21.3279 21.1882C21.3279 21.5239 21.4612 21.8458 21.6984 22.0831C21.9356 22.3205 22.2574 22.4538 22.5929 22.4538C22.7818 22.4575 22.9691 22.4186 23.141 22.3401C23.3129 22.2616 23.4649 22.1454 23.5859 22.0002L24.1753 22.5536C23.8853 22.8697 23.5084 23.093 23.0919 23.1956C22.6755 23.2981 22.238 23.2752 21.8345 23.1298C21.431 22.9844 21.0794 22.723 20.8239 22.3784C20.5684 22.0337 20.4204 21.6213 20.3984 21.1927Z" fill="white"/>
<path d="M24.7874 19.2105H25.6942V22.4266H27.6801V23.1705H24.7783L24.7874 19.2105Z" fill="white"/>
<path d="M28.2017 19.2105H29.1085V23.1705H28.2017V19.2105Z" fill="white"/>
<path d="M29.8066 21.1927C29.8295 20.7652 29.9778 20.3539 30.233 20.0102C30.4882 19.6666 30.8391 19.4058 31.2417 19.2606C31.6442 19.1154 32.0807 19.0921 32.4964 19.1937C32.9121 19.2954 33.2887 19.5173 33.5789 19.8319L32.9941 20.3762C32.8724 20.2307 32.7196 20.1143 32.547 20.0358C32.3743 19.9573 32.1862 19.9186 31.9966 19.9226C31.8305 19.9226 31.666 19.9554 31.5125 20.019C31.359 20.0826 31.2196 20.1758 31.1021 20.2933C30.9846 20.4108 30.8914 20.5503 30.8279 20.7039C30.7643 20.8574 30.7316 21.022 30.7316 21.1882C30.7316 21.3544 30.7643 21.519 30.8279 21.6725C30.8914 21.8261 30.9846 21.9656 31.1021 22.0831C31.2196 22.2006 31.359 22.2939 31.5125 22.3575C31.666 22.4211 31.8305 22.4538 31.9966 22.4538C32.1861 22.4575 32.3741 22.4187 32.5467 22.3402C32.7194 22.2617 32.8722 22.1455 32.9941 22.0002L33.5789 22.5536C33.2896 22.8703 32.913 23.0942 32.4966 23.1971C32.0802 23.3 31.6427 23.2772 31.2392 23.1317C30.8358 22.9861 30.4844 22.7243 30.2294 22.3792C29.9745 22.0342 29.8274 21.6213 29.8066 21.1927Z" fill="white"/>
<path d="M35.6374 21.6146L35.1024 22.168V23.1705H34.1956V19.2105H35.1024V21.0612L36.857 19.2105H37.8545L36.2177 20.975L37.9543 23.1705H36.9024L35.6374 21.6146Z" fill="white"/>
<path d="M43.6035 19.2105V23.1705H42.6967V21.5466H40.8831V23.1705H39.9763V19.2105H40.8831V20.7754H42.6967V19.2105H43.6035Z" fill="white"/>
<path d="M47.6026 22.4356V23.1705H44.5376V19.2105H47.53V19.9499H45.4489V20.8072H47.2852V21.5194H45.4489V22.4266L47.6026 22.4356Z" fill="white"/>
<path d="M50.849 23.1705L50.0963 22.0682H49.253V23.1705H48.3462V19.2105H50.06C51.1165 19.2105 51.7784 19.7593 51.7784 20.6484C51.7894 20.9161 51.7167 21.1805 51.5704 21.4049C51.4241 21.6293 51.2116 21.8025 50.9623 21.9004L51.8691 23.1705H50.849ZM49.992 19.9589H49.2439V21.3198H49.992C50.5497 21.3198 50.8308 21.0612 50.8308 20.6303C50.8308 20.1993 50.5497 19.9589 49.992 19.9589Z" fill="white"/>
<path d="M55.5372 22.4356V23.1705H52.4722V19.2105H55.4601V19.9499H53.3835V20.8072H55.1971V21.5194H53.3835V22.4266L55.5372 22.4356Z" fill="white"/>
<path d="M66.6953 30.4963C66.3185 30.1518 65.9973 29.7508 65.7432 29.3079C65.4228 28.9098 65.1658 28.4645 64.9814 27.9879C65.359 28.3329 65.6816 28.7337 65.9381 29.1763C66.2582 29.5738 66.5137 30.0193 66.6953 30.4963Z" fill="#FF725E"/>
<path d="M68.5315 15.8764C67.9698 15.3055 67.467 14.6794 67.0308 14.0075C66.532 13.3819 66.0933 12.7106 65.7205 12.0026C66.2822 12.5735 66.785 13.1996 67.2212 13.8715C67.7219 14.4957 68.1607 15.1672 68.5315 15.8764Z" fill="#FF725E"/>
<path d="M68.3366 27.9969C68.2686 28.0468 67.5885 27.0897 66.8449 25.8105C66.4686 25.1845 66.1376 24.613 65.9064 24.1957C65.7624 23.9786 65.6437 23.7457 65.5527 23.5016C65.6207 23.4563 66.3009 24.4361 67.0444 25.688C67.4208 26.314 67.7517 26.8856 67.9875 27.3029C68.1314 27.5193 68.2487 27.7523 68.3366 27.9969Z" fill="#FF725E"/>
<path d="M68.5452 24.0324C68.4772 24.0823 67.7517 23.0253 66.9492 21.6781C66.5457 21.0022 66.1875 20.3899 65.9336 19.9408C65.7813 19.7066 65.6536 19.4573 65.5527 19.1969C65.6207 19.1515 66.3462 20.2084 67.1532 21.5556C67.5568 22.227 67.9104 22.8439 68.1643 23.2884C68.3179 23.5219 68.4456 23.7713 68.5452 24.0324Z" fill="#FF725E"/>
<path d="M68.5406 20.1177C68.4726 20.1676 67.7426 19.1016 66.9356 17.7498C66.5275 17.074 66.1693 16.4525 65.9154 16.0034C65.7601 15.7687 65.6309 15.5177 65.53 15.255C65.598 15.2096 66.328 16.2711 67.1351 17.6274C67.5431 18.3032 67.9013 18.9202 68.1552 19.3738C68.312 19.606 68.4413 19.8557 68.5406 20.1177Z" fill="#FF725E"/>
<path d="M8.78691 14.9329C7.81172 14.8011 6.84885 14.5902 5.90781 14.3024C4.94642 14.0903 4.0034 13.8021 3.08765 13.4405C4.06283 13.5723 5.0257 13.7832 5.96675 14.071C6.92835 14.2823 7.87144 14.5705 8.78691 14.9329Z" fill="#263238"/>
<path d="M9.33556 11.5263C8.27106 10.4163 7.26468 9.252 6.32044 8.038C5.31448 6.87879 4.3701 5.66749 3.49121 4.40911C4.55448 5.52177 5.5608 6.68753 6.50633 7.90192C7.50966 9.06173 8.45394 10.2714 9.33556 11.5263Z" fill="#263238"/>
<path d="M13.5385 9.8842C13.2115 9.12348 13.002 8.31742 12.9173 7.49367C12.7534 6.68162 12.7198 5.84865 12.8176 5.02602C12.8856 5.02602 12.9491 6.12376 13.1486 7.46192C13.3481 8.80007 13.6065 9.85245 13.5385 9.8842Z" fill="#263238"/>
</g>
<defs>
<clipPath id="clip0_310_60">
<rect width="191" height="201" fill="white"/>
</clipPath>
</defs>
</svg>
