<svg width="18" height="12" viewBox="0 0 18 12" fill="none" xmlns="http://www.w3.org/2000/svg">
<path d="M17.0915 1.84286C16.8181 1.7256 16.5147 1.68746 16.2188 1.73317C15.923 1.77889 15.6477 1.90645 15.4273 2.1L13.4933 3.81429V2.57143C13.4933 1.88944 13.2089 1.23539 12.7028 0.753154C12.1967 0.270918 11.5103 0 10.7946 0H2.69865C1.98292 0 1.29651 0.270918 0.790417 0.753154C0.284321 1.23539 0 1.88944 0 2.57143V9.42857C0 10.1106 0.284321 10.7646 0.790417 11.2468C1.29651 11.7291 1.98292 12 2.69865 12H10.7946C11.5103 12 12.1967 11.7291 12.7028 11.2468C13.2089 10.7646 13.4933 10.1106 13.4933 9.42857V8.18571L15.4363 9.9C15.7223 10.1467 16.0939 10.2841 16.4798 10.2857C16.6939 10.2852 16.9054 10.2414 17.1004 10.1571C17.3658 10.0549 17.5931 9.87956 17.7533 9.6536C17.9135 9.42763 17.9994 9.16128 18 8.88857V3.11143C17.9987 2.83773 17.9115 2.57067 17.7496 2.34459C17.5877 2.11852 17.3585 1.94378 17.0915 1.84286Z" fill="white"/>
</svg>
