<svg width="20" height="20" viewBox="0 0 20 20" fill="none" xmlns="http://www.w3.org/2000/svg">
<path d="M20 20H18.5714V16.4286C18.5703 15.4817 18.1937 14.574 17.5241 13.9044C16.8546 13.2349 15.9469 12.8583 15 12.8571V11.4286C16.3256 11.4301 17.5965 11.9574 18.5339 12.8947C19.4712 13.8321 19.9985 15.103 20 16.4286V20ZM14.2857 20H12.8571V16.4286C12.856 15.4817 12.4794 14.574 11.8098 13.9044C11.1403 13.2349 10.2326 12.8583 9.28571 12.8571H5C4.05315 12.8583 3.1454 13.2349 2.47587 13.9044C1.80634 14.574 1.42971 15.4817 1.42857 16.4286V20H0V16.4286C0.0015124 15.103 0.528782 13.8321 1.46614 12.8947C2.40349 11.9574 3.67438 11.4301 5 11.4286H9.28571C10.6113 11.4301 11.8822 11.9574 12.8196 12.8947C13.7569 13.8321 14.2842 15.103 14.2857 16.4286V20ZM12.8571 0V1.42857C13.8043 1.42857 14.7128 1.80485 15.3825 2.47462C16.0523 3.14439 16.4286 4.0528 16.4286 5C16.4286 5.9472 16.0523 6.85561 15.3825 7.52538C14.7128 8.19515 13.8043 8.57143 12.8571 8.57143V10C14.1832 10 15.455 9.47322 16.3927 8.53553C17.3304 7.59785 17.8571 6.32608 17.8571 5C17.8571 3.67392 17.3304 2.40215 16.3927 1.46447C15.455 0.526784 14.1832 0 12.8571 0ZM7.14286 1.42857C7.84922 1.42857 8.53972 1.63803 9.12704 2.03047C9.71436 2.4229 10.1721 2.98068 10.4424 3.63327C10.7127 4.28587 10.7835 5.00396 10.6457 5.69675C10.5079 6.38954 10.1677 7.02591 9.66824 7.52538C9.16877 8.02485 8.5324 8.365 7.83961 8.5028C7.14682 8.64061 6.42872 8.56988 5.77613 8.29957C5.12354 8.02926 4.56576 7.5715 4.17332 6.98418C3.78089 6.39686 3.57143 5.70636 3.57143 5C3.57143 4.0528 3.9477 3.14439 4.61748 2.47462C5.28725 1.80485 6.19566 1.42857 7.14286 1.42857ZM7.14286 0C6.15395 0 5.18725 0.293245 4.36501 0.842652C3.54276 1.39206 2.9019 2.17295 2.52346 3.08658C2.14502 4.00021 2.046 5.00555 2.23893 5.97545C2.43186 6.94536 2.90806 7.83627 3.60732 8.53553C4.30659 9.2348 5.1975 9.711 6.16741 9.90393C7.13731 10.0969 8.14264 9.99784 9.05627 9.6194C9.9699 9.24096 10.7508 8.6001 11.3002 7.77785C11.8496 6.95561 12.1429 5.98891 12.1429 5C12.1429 3.67392 11.6161 2.40215 10.6784 1.46447C9.74071 0.526784 8.46894 0 7.14286 0Z" fill="#363636"/>
</svg>
