<svg width="32" height="32" viewBox="0 0 32 32" fill="none" xmlns="http://www.w3.org/2000/svg">
<path d="M2 11.0101V17.0401C2.00026 17.8366 2.3161 18.6005 2.87836 19.1647C3.44063 19.7288 4.20351 20.0472 5 20.0501H10V8.00005H5C4.20351 8.00296 3.44063 8.32133 2.87836 8.88547C2.3161 9.44961 2.00026 10.2136 2 11.0101ZM20.68 5.52005C20.2753 5.24487 19.8091 5.07356 19.3225 5.02124C18.8359 4.96891 18.3439 5.03719 17.89 5.22005L12 7.57005V20.5301L17.89 22.8801C18.2436 23.0189 18.6201 23.0901 19 23.0901C19.3943 23.0914 19.785 23.0147 20.1496 22.8644C20.5142 22.7141 20.8454 22.4932 21.1243 22.2144C21.4031 21.9355 21.624 21.6043 21.7743 21.2397C21.9246 20.8751 22.0013 20.4844 22 20.0901V8.00005C22 7.51017 21.8796 7.0278 21.6494 6.59536C21.4192 6.16292 21.0863 5.79366 20.68 5.52005ZM4 25.0501C4 25.8457 4.31607 26.6088 4.87868 27.1714C5.44129 27.734 6.20435 28.0501 7 28.0501C7.79565 28.0501 8.55871 27.734 9.12132 27.1714C9.68393 26.6088 10 25.8457 10 25.0501V22.0001H4V25.0501ZM29 13.0481H26C25.7348 13.0481 25.4804 13.1534 25.2929 13.341C25.1054 13.5285 25 13.7829 25 14.0481C25 14.3133 25.1054 14.5677 25.2929 14.7552C25.4804 14.9427 25.7348 15.0481 26 15.0481H29C29.2652 15.0481 29.5196 14.9427 29.7071 14.7552C29.8946 14.5677 30 14.3133 30 14.0481C30 13.7829 29.8946 13.5285 29.7071 13.341C29.5196 13.1534 29.2652 13.0481 29 13.0481ZM26 8.04805C26.1549 8.04806 26.3077 8.01175 26.446 7.94205L28.446 6.94205C28.5645 6.88397 28.6704 6.80301 28.7574 6.70384C28.8445 6.60466 28.9111 6.48923 28.9533 6.3642C28.9956 6.23916 29.0127 6.10701 29.0036 5.97534C28.9945 5.84367 28.9595 5.71511 28.9005 5.59705C28.8415 5.47899 28.7597 5.37378 28.6599 5.28748C28.56 5.20118 28.4441 5.1355 28.3187 5.09422C28.1934 5.05295 28.0611 5.0369 27.9295 5.04699C27.7979 5.05709 27.6696 5.09313 27.552 5.15305L25.552 6.15305C25.3501 6.25365 25.1882 6.41955 25.0925 6.62379C24.9968 6.82803 24.973 7.05862 25.0249 7.27812C25.0768 7.49761 25.2013 7.69312 25.3784 7.83289C25.5554 7.97266 25.7745 8.04848 26 8.04805ZM28.447 21.1531L26.447 20.1531C26.3294 20.0932 26.2011 20.0571 26.0695 20.047C25.9379 20.0369 25.8056 20.053 25.6803 20.0943C25.5549 20.1355 25.439 20.2012 25.3391 20.2875C25.2393 20.3738 25.1575 20.479 25.0985 20.5971C25.0395 20.7151 25.0045 20.8437 24.9954 20.9754C24.9863 21.107 25.0034 21.2392 25.0457 21.3642C25.0879 21.4893 25.1545 21.6047 25.2416 21.7039C25.3286 21.8031 25.4345 21.884 25.553 21.9421L27.553 22.9421C27.6913 23.0118 27.8441 23.0481 27.999 23.0481C28.2245 23.0485 28.4436 22.9727 28.6206 22.8329C28.7977 22.6932 28.9222 22.4977 28.9741 22.2782C29.026 22.0587 29.0022 21.8281 28.9065 21.6238C28.8108 21.4196 28.6489 21.2537 28.447 21.1531Z" fill="#FF9314"/>
</svg>
