<svg width="254" height="200" viewBox="0 0 254 200" fill="none" xmlns="http://www.w3.org/2000/svg">
<path d="M125.442 96.1054C151.981 96.1054 173.495 74.5915 173.495 48.0527C173.495 21.5139 151.981 0 125.442 0C98.9032 0 77.3893 21.5139 77.3893 48.0527C77.3893 74.5915 98.9032 96.1054 125.442 96.1054Z" fill="#D1CCFF"/>
<mask id="mask0_310_888" style="mask-type:luminance" maskUnits="userSpaceOnUse" x="77" y="0" width="97" height="97">
<path d="M125.442 96.1054C151.981 96.1054 173.495 74.5915 173.495 48.0527C173.495 21.5139 151.981 0 125.442 0C98.9032 0 77.3893 21.5139 77.3893 48.0527C77.3893 74.5915 98.9032 96.1054 125.442 96.1054Z" fill="white"/>
</mask>
<g mask="url(#mask0_310_888)">
<path d="M149.108 34.6368L126.143 18.2752L106.275 32.683C104.912 38.2638 106.055 60.116 106.055 60.116H137.115L138.066 54.5152L139.088 60.116H143.347L144.138 55.4169L144.379 60.116H149.088C149.649 42.1814 149.108 34.6368 149.108 34.6368Z" fill="#534BF0"/>
<path d="M125.452 64.3341C102.408 64.3341 94.2017 78.3611 94.2017 95.5743H156.702C156.702 78.3211 148.486 64.3341 125.452 64.3341Z" fill="#9C70DF"/>
<path d="M137.826 66.0173C129.733 63.7731 121.181 63.7731 113.088 66.0173C116.4 69.2373 120.838 71.0388 125.457 71.0388C130.077 71.0388 134.514 69.2373 137.826 66.0173Z" fill="#FFC3CF"/>
<path d="M125.452 56.7895C129.858 56.7895 134.083 55.0393 137.199 51.924C140.314 48.8086 142.064 44.5833 142.064 40.1775V32.2321C142.064 27.8264 140.314 23.601 137.199 20.4857C134.083 17.3703 129.858 15.6201 125.452 15.6201C123.271 15.6201 121.111 16.0499 119.097 16.8848C117.082 17.7198 115.251 18.9436 113.709 20.4863C112.167 22.029 110.945 23.8603 110.111 25.8757C109.277 27.8912 108.849 30.0511 108.85 32.2321V40.1775C108.849 42.3585 109.277 44.5185 110.111 46.5339C110.945 48.5493 112.167 50.3807 113.709 51.9234C115.251 53.4661 117.082 54.6898 119.097 55.5248C121.111 56.3598 123.271 56.7895 125.452 56.7895Z" fill="#FFC3CF"/>
<path d="M131.434 52.1706H119.48V65.6867H131.434V52.1706Z" fill="#FFC3CF"/>
<path d="M111.425 36.2098C111.425 36.2098 119.761 33.4846 124.65 20.4494C124.65 20.4494 139.589 21.792 143.537 34.6368H149.108C149.108 34.6368 148.286 14.8787 126.684 14.8787C105.083 14.8787 106.035 36.2098 106.035 36.2098H111.425Z" fill="#534BF0"/>
<path d="M101.576 38.6546C101.576 39.689 101.883 40.7002 102.458 41.5602C103.032 42.4203 103.849 43.0907 104.805 43.4865C105.76 43.8824 106.812 43.986 107.827 43.7841C108.841 43.5823 109.773 43.0842 110.504 42.3528C111.236 41.6213 111.734 40.6894 111.936 39.6749C112.138 38.6604 112.034 37.6088 111.638 36.6531C111.242 35.6974 110.572 34.8806 109.712 34.3059C108.852 33.7312 107.841 33.4245 106.806 33.4245C105.419 33.4245 104.089 33.9755 103.108 34.9563C102.127 35.9372 101.576 37.2674 101.576 38.6546Z" fill="#FFC3CF"/>
</g>
<path d="M249.431 168.144H4.56882C2.04553 168.144 0 170.19 0 172.713V195.136C0 197.66 2.04553 199.705 4.56882 199.705H249.431C251.954 199.705 254 197.66 254 195.136V172.713C254 170.19 251.954 168.144 249.431 168.144Z" fill="#D1CCFF"/>
</svg>
