<svg width="22" height="22" viewBox="0 0 22 22" fill="none" xmlns="http://www.w3.org/2000/svg">
<path d="M17.296 18.5276C18.6255 18.6504 19.963 18.4568 21.2222 17.9593C21.2703 17.2895 21.1496 16.6179 20.8742 16.0224C20.5987 15.4268 20.1797 14.9316 19.6656 14.594C19.1516 14.2565 18.5635 14.0903 17.9693 14.1148C17.3752 14.1392 16.7994 14.3534 16.3084 14.7324M17.295 18.5264L17.296 18.5632C17.296 18.8301 17.2834 19.0935 17.2572 19.3533C15.3527 20.5885 13.1946 21.2365 10.9989 21.2325C8.72147 21.2325 6.58361 20.5492 4.74066 19.3533C4.71368 19.0787 4.70071 18.8027 4.70183 18.5264M17.296 18.5276C17.2919 17.183 16.9494 15.8662 16.3084 14.7335L17.296 18.5276ZM16.3084 14.7335C15.7395 13.7249 14.9547 12.8947 14.0266 12.3198C13.0985 11.745 12.0572 11.4441 10.9989 11.4449C9.94084 11.4443 8.89971 11.7453 7.97183 12.3201C7.04396 12.895 6.25931 13.725 5.69047 14.7335M5.69047 14.7335C5.19952 14.3549 4.62379 14.1411 4.02984 14.1168C3.4359 14.0925 2.848 14.2587 2.33412 14.5963C1.82025 14.9338 1.40138 15.4289 1.12595 16.0242C0.85052 16.6195 0.72978 17.2908 0.77769 17.9605C2.03596 18.4608 3.37275 18.6537 4.70183 18.5264M5.69047 14.7335C5.04987 15.8664 4.7056 17.1819 4.70183 18.5264L5.69047 14.7335ZM14.1475 4.32659C14.1475 5.27053 13.8157 6.17582 13.2253 6.84329C12.6348 7.51076 11.834 7.88574 10.9989 7.88574C10.1639 7.88574 9.36303 7.51076 8.77256 6.84329C8.18209 6.17582 7.85037 5.27053 7.85037 4.32659C7.85037 3.38264 8.18209 2.47736 8.77256 1.80989C9.36303 1.14242 10.1639 0.767442 10.9989 0.767442C11.834 0.767442 12.6348 1.14242 13.2253 1.80989C13.8157 2.47736 14.1475 3.38264 14.1475 4.32659ZM20.4446 7.88574C20.4446 8.23628 20.3835 8.5834 20.2648 8.90726C20.1461 9.23112 19.9722 9.52539 19.7529 9.77326C19.5336 10.0211 19.2733 10.2178 18.9868 10.3519C18.7003 10.4861 18.3933 10.5551 18.0831 10.5551C17.773 10.5551 17.466 10.4861 17.1795 10.3519C16.893 10.2178 16.6327 10.0211 16.4134 9.77326C16.1941 9.52539 16.0202 9.23112 15.9015 8.90726C15.7828 8.5834 15.7217 8.23628 15.7217 7.88574C15.7217 7.17778 15.9705 6.49882 16.4134 5.99821C16.8562 5.49761 17.4569 5.21638 18.0831 5.21638C18.7094 5.21638 19.3101 5.49761 19.7529 5.99821C20.1958 6.49882 20.4446 7.17778 20.4446 7.88574ZM6.2761 7.88574C6.2761 8.23628 6.21502 8.5834 6.09635 8.90726C5.97768 9.23112 5.80374 9.52539 5.58446 9.77326C5.36518 10.0211 5.10486 10.2178 4.81836 10.3519C4.53186 10.4861 4.2248 10.5551 3.91469 10.5551C3.60459 10.5551 3.29752 10.4861 3.01102 10.3519C2.72452 10.2178 2.4642 10.0211 2.24492 9.77326C2.02565 9.52539 1.85171 9.23112 1.73303 8.90726C1.61436 8.5834 1.55328 8.23628 1.55328 7.88574C1.55328 7.17778 1.80207 6.49882 2.24492 5.99821C2.68777 5.49761 3.28841 5.21638 3.91469 5.21638C4.54098 5.21638 5.14161 5.49761 5.58446 5.99821C6.02731 6.49882 6.2761 7.17778 6.2761 7.88574Z" fill="#363636"/>
<path d="M16.3084 14.7324C16.7994 14.3534 17.3752 14.1392 17.9693 14.1148C18.5635 14.0903 19.1516 14.2565 19.6656 14.594C20.1797 14.9316 20.5987 15.4268 20.8742 16.0224C21.1496 16.6179 21.2703 17.2895 21.2222 17.9593C19.963 18.4568 18.6255 18.6504 17.296 18.5276C17.2919 17.183 16.9494 15.8662 16.3084 14.7335C15.7395 13.7249 14.9547 12.8947 14.0266 12.3198C13.0985 11.745 12.0572 11.4441 10.9989 11.4449C9.94084 11.4443 8.89971 11.7453 7.97183 12.3201C7.04396 12.895 6.25931 13.725 5.69047 14.7335M17.295 18.5264L17.296 18.5632C17.296 18.8301 17.2834 19.0935 17.2572 19.3533C15.3527 20.5885 13.1946 21.2365 10.9989 21.2325C8.72147 21.2325 6.58361 20.5492 4.74066 19.3533C4.71368 19.0787 4.70071 18.8027 4.70183 18.5264M4.70183 18.5264C3.37275 18.6537 2.03596 18.4608 0.77769 17.9605C0.72978 17.2908 0.85052 16.6195 1.12595 16.0242C1.40138 15.4289 1.82025 14.9338 2.33412 14.5963C2.848 14.2587 3.4359 14.0925 4.02984 14.1168C4.62379 14.1411 5.19952 14.3549 5.69047 14.7335M4.70183 18.5264C4.7056 17.1819 5.04987 15.8664 5.69047 14.7335M14.1475 4.32659C14.1475 5.27053 13.8157 6.17582 13.2253 6.84329C12.6348 7.51076 11.834 7.88574 10.9989 7.88574C10.1639 7.88574 9.36303 7.51076 8.77256 6.84329C8.18209 6.17582 7.85037 5.27053 7.85037 4.32659C7.85037 3.38264 8.18209 2.47736 8.77256 1.80989C9.36303 1.14242 10.1639 0.767442 10.9989 0.767442C11.834 0.767442 12.6348 1.14242 13.2253 1.80989C13.8157 2.47736 14.1475 3.38264 14.1475 4.32659ZM20.4446 7.88574C20.4446 8.23628 20.3835 8.5834 20.2648 8.90726C20.1461 9.23112 19.9722 9.52539 19.7529 9.77326C19.5336 10.0211 19.2733 10.2178 18.9868 10.3519C18.7003 10.4861 18.3933 10.5551 18.0831 10.5551C17.773 10.5551 17.466 10.4861 17.1795 10.3519C16.893 10.2178 16.6327 10.0211 16.4134 9.77326C16.1941 9.52539 16.0202 9.23112 15.9015 8.90726C15.7828 8.5834 15.7217 8.23628 15.7217 7.88574C15.7217 7.17778 15.9705 6.49882 16.4134 5.99821C16.8562 5.49761 17.4569 5.21638 18.0831 5.21638C18.7094 5.21638 19.3101 5.49761 19.7529 5.99821C20.1958 6.49882 20.4446 7.17778 20.4446 7.88574ZM6.2761 7.88574C6.2761 8.23628 6.21502 8.5834 6.09635 8.90726C5.97768 9.23112 5.80374 9.52539 5.58446 9.77326C5.36518 10.0211 5.10486 10.2178 4.81836 10.3519C4.53186 10.4861 4.2248 10.5551 3.91469 10.5551C3.60459 10.5551 3.29752 10.4861 3.01102 10.3519C2.72452 10.2178 2.4642 10.0211 2.24492 9.77326C2.02565 9.52539 1.85171 9.23112 1.73303 8.90726C1.61436 8.5834 1.55328 8.23628 1.55328 7.88574C1.55328 7.17778 1.80207 6.49882 2.24492 5.99821C2.68777 5.49761 3.28841 5.21638 3.91469 5.21638C4.54098 5.21638 5.14161 5.49761 5.58446 5.99821C6.02731 6.49882 6.2761 7.17778 6.2761 7.88574Z" stroke="#363636" stroke-width="1.5" stroke-linecap="round" stroke-linejoin="round"/>
</svg>
