<svg width="26" height="26" viewBox="0 0 26 26" fill="none" xmlns="http://www.w3.org/2000/svg">
<path d="M18.6189 14.2002L13.8189 25C12.8642 25 11.9485 24.6207 11.2734 23.9456C10.5983 23.2705 10.219 22.3548 10.219 21.4001V16.6002H3.42713C3.07925 16.6041 2.73467 16.5323 2.41727 16.3899C2.09986 16.2474 1.81722 16.0377 1.58894 15.7751C1.36065 15.5126 1.19217 15.2036 1.09517 14.8695C0.998168 14.5354 0.974968 14.1842 1.02718 13.8402L2.68315 3.0404C2.76993 2.46812 3.06062 1.94649 3.50165 1.57162C3.94267 1.19674 4.50432 0.993891 5.0831 1.00043H18.6189M18.6189 14.2002V1.00043M18.6189 14.2002H21.8228C22.5019 14.2122 23.1619 13.9744 23.6773 13.532C24.1927 13.0896 24.5277 12.4734 24.6187 11.8002V3.40039C24.5277 2.72727 24.1927 2.11102 23.6773 1.6686C23.1619 1.22619 22.5019 0.988423 21.8228 1.00043H18.6189" stroke="#949699" stroke-width="2" stroke-linecap="round" stroke-linejoin="round"/>
</svg>
