<svg width="25" height="29" viewBox="0 0 25 29" fill="none" xmlns="http://www.w3.org/2000/svg">
<path d="M19.4669 9.20701C19.4669 7.10036 18.6998 5.07999 17.3343 3.59037C15.9688 2.10074 14.1168 1.26387 12.1857 1.26387C10.2546 1.26387 8.40259 2.10074 7.0371 3.59037C5.6716 5.07999 4.90448 7.10036 4.90448 9.20701C4.90448 18.474 1.26387 21.1217 1.26387 21.1217H23.1075C23.1075 21.1217 19.4669 18.474 19.4669 9.20701Z" stroke="#FFFFFC" stroke-width="2.5" stroke-linecap="round" stroke-linejoin="round"/>
<path d="M14.2842 26.417C14.0708 26.8182 13.7646 27.1512 13.3961 27.3827C13.0277 27.6143 12.6099 27.7361 12.1847 27.7361C11.7595 27.7361 11.3418 27.6143 10.9734 27.3827C10.6049 27.1512 10.2987 26.8182 10.0853 26.417" stroke="#FFFFFC" stroke-width="2.5" stroke-linecap="round" stroke-linejoin="round"/>
</svg>
