<svg width="260" height="65" viewBox="0 0 260 65" fill="none" xmlns="http://www.w3.org/2000/svg">
<path d="M14.55 2.25V5.04H9V23.1H5.58V5.04H0V2.25H14.55Z" fill="#111B24"/>
<path d="M33.1636 14.43C33.1636 15.05 33.1236 15.61 33.0436 16.11H20.4136C20.5136 17.43 21.0036 18.49 21.8836 19.29C22.7636 20.09 23.8436 20.49 25.1236 20.49C26.9636 20.49 28.2636 19.72 29.0236 18.18H32.7136C32.2136 19.7 31.3036 20.95 29.9836 21.93C28.6836 22.89 27.0636 23.37 25.1236 23.37C23.5436 23.37 22.1236 23.02 20.8636 22.32C19.6236 21.6 18.6436 20.6 17.9236 19.32C17.2236 18.02 16.8736 16.52 16.8736 14.82C16.8736 13.12 17.2136 11.63 17.8936 10.35C18.5936 9.05 19.5636 8.05 20.8036 7.35C22.0636 6.65 23.5036 6.3 25.1236 6.3C26.6836 6.3 28.0736 6.64 29.2936 7.32C30.5136 8 31.4636 8.96 32.1436 10.2C32.8236 11.42 33.1636 12.83 33.1636 14.43ZM29.5936 13.35C29.5736 12.09 29.1236 11.08 28.2436 10.32C27.3636 9.56 26.2736 9.18 24.9736 9.18C23.7936 9.18 22.7836 9.56 21.9436 10.32C21.1036 11.06 20.6036 12.07 20.4436 13.35H29.5936Z" fill="#111B24"/>
<path d="M39.9492 8.97C40.4492 8.13 41.1092 7.48 41.9292 7.02C42.7692 6.54 43.7592 6.3 44.8992 6.3V9.84H44.0292C42.6892 9.84 41.6692 10.18 40.9692 10.86C40.2892 11.54 39.9492 12.72 39.9492 14.4V23.1H36.5292V6.57H39.9492V8.97Z" fill="#111B24"/>
<path d="M68.0529 6.3C69.3529 6.3 70.5129 6.57 71.5329 7.11C72.5729 7.65 73.3829 8.45 73.9629 9.51C74.5629 10.57 74.8629 11.85 74.8629 13.35V23.1H71.4729V13.86C71.4729 12.38 71.1029 11.25 70.3629 10.47C69.6229 9.67 68.6129 9.27 67.3329 9.27C66.0529 9.27 65.0329 9.67 64.2729 10.47C63.5329 11.25 63.1629 12.38 63.1629 13.86V23.1H59.7729V13.86C59.7729 12.38 59.4029 11.25 58.6629 10.47C57.9229 9.67 56.9129 9.27 55.6329 9.27C54.3529 9.27 53.3329 9.67 52.5729 10.47C51.8329 11.25 51.4629 12.38 51.4629 13.86V23.1H48.0429V6.57H51.4629V8.46C52.0229 7.78 52.7329 7.25 53.5929 6.87C54.4529 6.49 55.3729 6.3 56.3529 6.3C57.6729 6.3 58.8529 6.58 59.8929 7.14C60.9329 7.7 61.7329 8.51 62.2929 9.57C62.7929 8.57 63.5729 7.78 64.6329 7.2C65.6929 6.6 66.8329 6.3 68.0529 6.3Z" fill="#111B24"/>
<path d="M85.8677 14.76C85.8677 13.1 86.2077 11.63 86.8877 10.35C87.5877 9.07 88.5277 8.08 89.7077 7.38C90.9077 6.66 92.2277 6.3 93.6677 6.3C94.9677 6.3 96.0977 6.56 97.0577 7.08C98.0377 7.58 98.8177 8.21 99.3977 8.97V6.57H102.848V23.1H99.3977V20.64C98.8177 21.42 98.0277 22.07 97.0277 22.59C96.0277 23.11 94.8877 23.37 93.6077 23.37C92.1877 23.37 90.8877 23.01 89.7077 22.29C88.5277 21.55 87.5877 20.53 86.8877 19.23C86.2077 17.91 85.8677 16.42 85.8677 14.76ZM99.3977 14.82C99.3977 13.68 99.1577 12.69 98.6777 11.85C98.2177 11.01 97.6077 10.37 96.8477 9.93C96.0877 9.49 95.2677 9.27 94.3877 9.27C93.5077 9.27 92.6877 9.49 91.9277 9.93C91.1677 10.35 90.5477 10.98 90.0677 11.82C89.6077 12.64 89.3777 13.62 89.3777 14.76C89.3777 15.9 89.6077 16.9 90.0677 17.76C90.5477 18.62 91.1677 19.28 91.9277 19.74C92.7077 20.18 93.5277 20.4 94.3877 20.4C95.2677 20.4 96.0877 20.18 96.8477 19.74C97.6077 19.3 98.2177 18.66 98.6777 17.82C99.1577 16.96 99.3977 15.96 99.3977 14.82Z" fill="#111B24"/>
<path d="M115.68 6.3C116.98 6.3 118.14 6.57 119.16 7.11C120.2 7.65 121.01 8.45 121.59 9.51C122.17 10.57 122.46 11.85 122.46 13.35V23.1H119.07V13.86C119.07 12.38 118.7 11.25 117.96 10.47C117.22 9.67 116.21 9.27 114.93 9.27C113.65 9.27 112.63 9.67 111.87 10.47C111.13 11.25 110.76 12.38 110.76 13.86V23.1H107.34V6.57H110.76V8.46C111.32 7.78 112.03 7.25 112.89 6.87C113.77 6.49 114.7 6.3 115.68 6.3Z" fill="#111B24"/>
<path d="M125.682 14.76C125.682 13.1 126.022 11.63 126.702 10.35C127.402 9.07 128.342 8.08 129.522 7.38C130.722 6.66 132.052 6.3 133.512 6.3C134.592 6.3 135.652 6.54 136.692 7.02C137.752 7.48 138.592 8.1 139.212 8.88V0.900001H142.662V23.1H139.212V20.61C138.652 21.41 137.872 22.07 136.872 22.59C135.892 23.11 134.762 23.37 133.482 23.37C132.042 23.37 130.722 23.01 129.522 22.29C128.342 21.55 127.402 20.53 126.702 19.23C126.022 17.91 125.682 16.42 125.682 14.76ZM139.212 14.82C139.212 13.68 138.972 12.69 138.492 11.85C138.032 11.01 137.422 10.37 136.662 9.93C135.902 9.49 135.082 9.27 134.202 9.27C133.322 9.27 132.502 9.49 131.742 9.93C130.982 10.35 130.362 10.98 129.882 11.82C129.422 12.64 129.192 13.62 129.192 14.76C129.192 15.9 129.422 16.9 129.882 17.76C130.362 18.62 130.982 19.28 131.742 19.74C132.522 20.18 133.342 20.4 134.202 20.4C135.082 20.4 135.902 20.18 136.662 19.74C137.422 19.3 138.032 18.66 138.492 17.82C138.972 16.96 139.212 15.96 139.212 14.82Z" fill="#111B24"/>
<path d="M160.947 23.37C159.647 23.37 158.477 23.14 157.437 22.68C156.417 22.2 155.607 21.56 155.007 20.76C154.407 19.94 154.087 19.03 154.047 18.03H157.587C157.647 18.73 157.977 19.32 158.577 19.8C159.197 20.26 159.967 20.49 160.887 20.49C161.847 20.49 162.587 20.31 163.107 19.95C163.647 19.57 163.917 19.09 163.917 18.51C163.917 17.89 163.617 17.43 163.017 17.13C162.437 16.83 161.507 16.5 160.227 16.14C158.987 15.8 157.977 15.47 157.197 15.15C156.417 14.83 155.737 14.34 155.157 13.68C154.597 13.02 154.317 12.15 154.317 11.07C154.317 10.19 154.577 9.39 155.097 8.67C155.617 7.93 156.357 7.35 157.317 6.93C158.297 6.51 159.417 6.3 160.677 6.3C162.557 6.3 164.067 6.78 165.207 7.74C166.367 8.68 166.987 9.97 167.067 11.61H163.647C163.587 10.87 163.287 10.28 162.747 9.84C162.207 9.4 161.477 9.18 160.557 9.18C159.657 9.18 158.967 9.35 158.487 9.69C158.007 10.03 157.767 10.48 157.767 11.04C157.767 11.48 157.927 11.85 158.247 12.15C158.567 12.45 158.957 12.69 159.417 12.87C159.877 13.03 160.557 13.24 161.457 13.5C162.657 13.82 163.637 14.15 164.397 14.49C165.177 14.81 165.847 15.29 166.407 15.93C166.967 16.57 167.257 17.42 167.277 18.48C167.277 19.42 167.017 20.26 166.497 21C165.977 21.74 165.237 22.32 164.277 22.74C163.337 23.16 162.227 23.37 160.947 23.37Z" fill="#111B24"/>
<path d="M186.123 14.43C186.123 15.05 186.083 15.61 186.003 16.11H173.373C173.473 17.43 173.963 18.49 174.843 19.29C175.723 20.09 176.803 20.49 178.083 20.49C179.923 20.49 181.223 19.72 181.983 18.18H185.673C185.173 19.7 184.263 20.95 182.943 21.93C181.643 22.89 180.023 23.37 178.083 23.37C176.503 23.37 175.083 23.02 173.823 22.32C172.583 21.6 171.603 20.6 170.883 19.32C170.183 18.02 169.833 16.52 169.833 14.82C169.833 13.12 170.173 11.63 170.853 10.35C171.553 9.05 172.523 8.05 173.763 7.35C175.023 6.65 176.463 6.3 178.083 6.3C179.643 6.3 181.033 6.64 182.253 7.32C183.473 8 184.423 8.96 185.103 10.2C185.783 11.42 186.123 12.83 186.123 14.43ZM182.553 13.35C182.533 12.09 182.083 11.08 181.203 10.32C180.323 9.56 179.233 9.18 177.933 9.18C176.753 9.18 175.743 9.56 174.903 10.32C174.063 11.06 173.563 12.07 173.403 13.35H182.553Z" fill="#111B24"/>
<path d="M192.908 8.97C193.408 8.13 194.068 7.48 194.888 7.02C195.728 6.54 196.718 6.3 197.858 6.3V9.84H196.988C195.648 9.84 194.628 10.18 193.928 10.86C193.248 11.54 192.908 12.72 192.908 14.4V23.1H189.488V6.57H192.908V8.97Z" fill="#111B24"/>
<path d="M207.392 20.04L212.072 6.57H215.702L209.402 23.1H205.322L199.052 6.57H202.712L207.392 20.04Z" fill="#111B24"/>
<path d="M220.027 4.38C219.407 4.38 218.887 4.17 218.467 3.75C218.047 3.33 217.837 2.81 217.837 2.19C217.837 1.57 218.047 1.05 218.467 0.630001C218.887 0.21 219.407 0 220.027 0C220.627 0 221.137 0.21 221.557 0.630001C221.977 1.05 222.187 1.57 222.187 2.19C222.187 2.81 221.977 3.33 221.557 3.75C221.137 4.17 220.627 4.38 220.027 4.38ZM221.707 6.57V23.1H218.287V6.57H221.707Z" fill="#111B24"/>
<path d="M225.057 14.82C225.057 13.12 225.397 11.63 226.077 10.35C226.777 9.05 227.737 8.05 228.957 7.35C230.177 6.65 231.577 6.3 233.157 6.3C235.157 6.3 236.807 6.78 238.107 7.74C239.427 8.68 240.317 10.03 240.777 11.79H237.087C236.787 10.97 236.307 10.33 235.647 9.87C234.987 9.41 234.157 9.18 233.157 9.18C231.757 9.18 230.637 9.68 229.797 10.68C228.977 11.66 228.567 13.04 228.567 14.82C228.567 16.6 228.977 17.99 229.797 18.99C230.637 19.99 231.757 20.49 233.157 20.49C235.137 20.49 236.447 19.62 237.087 17.88H240.777C240.297 19.56 239.397 20.9 238.077 21.9C236.757 22.88 235.117 23.37 233.157 23.37C231.577 23.37 230.177 23.02 228.957 22.32C227.737 21.6 226.777 20.6 226.077 19.32C225.397 18.02 225.057 16.52 225.057 14.82Z" fill="#111B24"/>
<path d="M259.335 14.43C259.335 15.05 259.295 15.61 259.215 16.11H246.585C246.685 17.43 247.175 18.49 248.055 19.29C248.935 20.09 250.015 20.49 251.295 20.49C253.135 20.49 254.435 19.72 255.195 18.18H258.885C258.385 19.7 257.475 20.95 256.155 21.93C254.855 22.89 253.235 23.37 251.295 23.37C249.715 23.37 248.295 23.02 247.035 22.32C245.795 21.6 244.815 20.6 244.095 19.32C243.395 18.02 243.045 16.52 243.045 14.82C243.045 13.12 243.385 11.63 244.065 10.35C244.765 9.05 245.735 8.05 246.975 7.35C248.235 6.65 249.675 6.3 251.295 6.3C252.855 6.3 254.245 6.64 255.465 7.32C256.685 8 257.635 8.96 258.315 10.2C258.995 11.42 259.335 12.83 259.335 14.43ZM255.765 13.35C255.745 12.09 255.295 11.08 254.415 10.32C253.535 9.56 252.445 9.18 251.145 9.18C249.965 9.18 248.955 9.56 248.115 10.32C247.275 11.06 246.775 12.07 246.615 13.35H255.765Z" fill="#111B24"/>
<path d="M20.4975 59.99H24.1575V61.1H19.1325V50.645H20.4975V59.99Z" fill="#6B7B8A"/>
<path d="M25.0971 56.96C25.0971 56.12 25.2671 55.385 25.6071 54.755C25.9471 54.115 26.4121 53.62 27.0021 53.27C27.6021 52.92 28.2671 52.745 28.9971 52.745C29.7171 52.745 30.3421 52.9 30.8721 53.21C31.4021 53.52 31.7971 53.91 32.0571 54.38V52.88H33.4371V61.1H32.0571V59.57C31.7871 60.05 31.3821 60.45 30.8421 60.77C30.3121 61.08 29.6921 61.235 28.9821 61.235C28.2521 61.235 27.5921 61.055 27.0021 60.695C26.4121 60.335 25.9471 59.83 25.6071 59.18C25.2671 58.53 25.0971 57.79 25.0971 56.96ZM32.0571 56.975C32.0571 56.355 31.9321 55.815 31.6821 55.355C31.4321 54.895 31.0921 54.545 30.6621 54.305C30.2421 54.055 29.7771 53.93 29.2671 53.93C28.7571 53.93 28.2921 54.05 27.8721 54.29C27.4521 54.53 27.1171 54.88 26.8671 55.34C26.6171 55.8 26.4921 56.34 26.4921 56.96C26.4921 57.59 26.6171 58.14 26.8671 58.61C27.1171 59.07 27.4521 59.425 27.8721 59.675C28.2921 59.915 28.7571 60.035 29.2671 60.035C29.7771 60.035 30.2421 59.915 30.6621 59.675C31.0921 59.425 31.4321 59.07 31.6821 58.61C31.9321 58.14 32.0571 57.595 32.0571 56.975Z" fill="#6B7B8A"/>
<path d="M38.6538 61.235C38.0238 61.235 37.4588 61.13 36.9588 60.92C36.4588 60.7 36.0638 60.4 35.7738 60.02C35.4838 59.63 35.3238 59.185 35.2938 58.685H36.7038C36.7438 59.095 36.9338 59.43 37.2738 59.69C37.6238 59.95 38.0788 60.08 38.6388 60.08C39.1588 60.08 39.5688 59.965 39.8688 59.735C40.1688 59.505 40.3188 59.215 40.3188 58.865C40.3188 58.505 40.1588 58.24 39.8388 58.07C39.5188 57.89 39.0238 57.715 38.3538 57.545C37.7438 57.385 37.2438 57.225 36.8538 57.065C36.4738 56.895 36.1438 56.65 35.8638 56.33C35.5938 56 35.4588 55.57 35.4588 55.04C35.4588 54.62 35.5838 54.235 35.8338 53.885C36.0838 53.535 36.4388 53.26 36.8988 53.06C37.3588 52.85 37.8838 52.745 38.4738 52.745C39.3838 52.745 40.1188 52.975 40.6788 53.435C41.2388 53.895 41.5388 54.525 41.5788 55.325H40.2138C40.1838 54.895 40.0088 54.55 39.6888 54.29C39.3788 54.03 38.9588 53.9 38.4288 53.9C37.9388 53.9 37.5488 54.005 37.2588 54.215C36.9688 54.425 36.8238 54.7 36.8238 55.04C36.8238 55.31 36.9088 55.535 37.0788 55.715C37.2588 55.885 37.4788 56.025 37.7388 56.135C38.0088 56.235 38.3788 56.35 38.8488 56.48C39.4388 56.64 39.9188 56.8 40.2888 56.96C40.6588 57.11 40.9738 57.34 41.2338 57.65C41.5038 57.96 41.6438 58.365 41.6538 58.865C41.6538 59.315 41.5288 59.72 41.2788 60.08C41.0288 60.44 40.6738 60.725 40.2138 60.935C39.7638 61.135 39.2438 61.235 38.6538 61.235Z" fill="#6B7B8A"/>
<path d="M45.2457 54.005V58.85C45.2457 59.25 45.3307 59.535 45.5007 59.705C45.6707 59.865 45.9657 59.945 46.3857 59.945H47.3907V61.1H46.1607C45.4007 61.1 44.8307 60.925 44.4507 60.575C44.0707 60.225 43.8807 59.65 43.8807 58.85V54.005H42.8157V52.88H43.8807V50.81H45.2457V52.88H47.3907V54.005H45.2457Z" fill="#6B7B8A"/>
<path d="M60.3336 52.88V61.1H58.9686V59.885C58.7086 60.305 58.3436 60.635 57.8736 60.875C57.4136 61.105 56.9036 61.22 56.3436 61.22C55.7036 61.22 55.1286 61.09 54.6186 60.83C54.1086 60.56 53.7036 60.16 53.4036 59.63C53.1136 59.1 52.9686 58.455 52.9686 57.695V52.88H54.3186V57.515C54.3186 58.325 54.5236 58.95 54.9336 59.39C55.3436 59.82 55.9036 60.035 56.6136 60.035C57.3436 60.035 57.9186 59.81 58.3386 59.36C58.7586 58.91 58.9686 58.255 58.9686 57.395V52.88H60.3336Z" fill="#6B7B8A"/>
<path d="M64.0033 54.395C64.2733 53.925 64.6733 53.535 65.2033 53.225C65.7433 52.905 66.3683 52.745 67.0783 52.745C67.8083 52.745 68.4683 52.92 69.0583 53.27C69.6583 53.62 70.1283 54.115 70.4683 54.755C70.8083 55.385 70.9783 56.12 70.9783 56.96C70.9783 57.79 70.8083 58.53 70.4683 59.18C70.1283 59.83 69.6583 60.335 69.0583 60.695C68.4683 61.055 67.8083 61.235 67.0783 61.235C66.3783 61.235 65.7583 61.08 65.2183 60.77C64.6883 60.45 64.2833 60.055 64.0033 59.585V65H62.6383V52.88H64.0033V54.395ZM69.5833 56.96C69.5833 56.34 69.4583 55.8 69.2083 55.34C68.9583 54.88 68.6183 54.53 68.1883 54.29C67.7683 54.05 67.3033 53.93 66.7933 53.93C66.2933 53.93 65.8283 54.055 65.3983 54.305C64.9783 54.545 64.6383 54.9 64.3783 55.37C64.1283 55.83 64.0033 56.365 64.0033 56.975C64.0033 57.595 64.1283 58.14 64.3783 58.61C64.6383 59.07 64.9783 59.425 65.3983 59.675C65.8283 59.915 66.2933 60.035 66.7933 60.035C67.3033 60.035 67.7683 59.915 68.1883 59.675C68.6183 59.425 68.9583 59.07 69.2083 58.61C69.4583 58.14 69.5833 57.59 69.5833 56.96Z" fill="#6B7B8A"/>
<path d="M72.265 56.96C72.265 56.12 72.435 55.385 72.775 54.755C73.115 54.115 73.58 53.62 74.17 53.27C74.77 52.92 75.44 52.745 76.18 52.745C76.82 52.745 77.415 52.895 77.965 53.195C78.515 53.485 78.935 53.87 79.225 54.35V50H80.605V61.1H79.225V59.555C78.955 60.045 78.555 60.45 78.025 60.77C77.495 61.08 76.875 61.235 76.165 61.235C75.435 61.235 74.77 61.055 74.17 60.695C73.58 60.335 73.115 59.83 72.775 59.18C72.435 58.53 72.265 57.79 72.265 56.96ZM79.225 56.975C79.225 56.355 79.1 55.815 78.85 55.355C78.6 54.895 78.26 54.545 77.83 54.305C77.41 54.055 76.945 53.93 76.435 53.93C75.925 53.93 75.46 54.05 75.04 54.29C74.62 54.53 74.285 54.88 74.035 55.34C73.785 55.8 73.66 56.34 73.66 56.96C73.66 57.59 73.785 58.14 74.035 58.61C74.285 59.07 74.62 59.425 75.04 59.675C75.46 59.915 75.925 60.035 76.435 60.035C76.945 60.035 77.41 59.915 77.83 59.675C78.26 59.425 78.6 59.07 78.85 58.61C79.1 58.14 79.225 57.595 79.225 56.975Z" fill="#6B7B8A"/>
<path d="M82.4018 56.96C82.4018 56.12 82.5718 55.385 82.9118 54.755C83.2518 54.115 83.7168 53.62 84.3068 53.27C84.9068 52.92 85.5718 52.745 86.3018 52.745C87.0218 52.745 87.6468 52.9 88.1768 53.21C88.7068 53.52 89.1018 53.91 89.3618 54.38V52.88H90.7418V61.1H89.3618V59.57C89.0918 60.05 88.6868 60.45 88.1468 60.77C87.6168 61.08 86.9968 61.235 86.2868 61.235C85.5568 61.235 84.8968 61.055 84.3068 60.695C83.7168 60.335 83.2518 59.83 82.9118 59.18C82.5718 58.53 82.4018 57.79 82.4018 56.96ZM89.3618 56.975C89.3618 56.355 89.2368 55.815 88.9868 55.355C88.7368 54.895 88.3968 54.545 87.9668 54.305C87.5468 54.055 87.0818 53.93 86.5718 53.93C86.0618 53.93 85.5968 54.05 85.1768 54.29C84.7568 54.53 84.4218 54.88 84.1718 55.34C83.9218 55.8 83.7968 56.34 83.7968 56.96C83.7968 57.59 83.9218 58.14 84.1718 58.61C84.4218 59.07 84.7568 59.425 85.1768 59.675C85.5968 59.915 86.0618 60.035 86.5718 60.035C87.0818 60.035 87.5468 59.915 87.9668 59.675C88.3968 59.425 88.7368 59.07 88.9868 58.61C89.2368 58.14 89.3618 57.595 89.3618 56.975Z" fill="#6B7B8A"/>
<path d="M94.7135 54.005V58.85C94.7135 59.25 94.7985 59.535 94.9685 59.705C95.1385 59.865 95.4335 59.945 95.8535 59.945H96.8585V61.1H95.6285C94.8685 61.1 94.2985 60.925 93.9185 60.575C93.5385 60.225 93.3485 59.65 93.3485 58.85V54.005H92.2835V52.88H93.3485V50.81H94.7135V52.88H96.8585V54.005H94.7135Z" fill="#6B7B8A"/>
<path d="M106.012 56.675C106.012 56.935 105.997 57.21 105.967 57.5H99.3973C99.4473 58.31 99.7223 58.945 100.222 59.405C100.732 59.855 101.347 60.08 102.067 60.08C102.657 60.08 103.147 59.945 103.537 59.675C103.937 59.395 104.217 59.025 104.377 58.565H105.847C105.627 59.355 105.187 60 104.527 60.5C103.867 60.99 103.047 61.235 102.067 61.235C101.287 61.235 100.587 61.06 99.9673 60.71C99.3573 60.36 98.8773 59.865 98.5273 59.225C98.1773 58.575 98.0023 57.825 98.0023 56.975C98.0023 56.125 98.1723 55.38 98.5123 54.74C98.8523 54.1 99.3273 53.61 99.9373 53.27C100.557 52.92 101.267 52.745 102.067 52.745C102.847 52.745 103.537 52.915 104.137 53.255C104.737 53.595 105.197 54.065 105.517 54.665C105.847 55.255 106.012 55.925 106.012 56.675ZM104.602 56.39C104.602 55.87 104.487 55.425 104.257 55.055C104.027 54.675 103.712 54.39 103.312 54.2C102.922 54 102.487 53.9 102.007 53.9C101.317 53.9 100.727 54.12 100.237 54.56C99.7573 55 99.4823 55.61 99.4123 56.39H104.602Z" fill="#6B7B8A"/>
<path d="M115.158 54.005H113.433V61.1H112.068V54.005H111.003V52.88H112.068V52.295C112.068 51.375 112.303 50.705 112.773 50.285C113.253 49.855 114.018 49.64 115.068 49.64V50.78C114.468 50.78 114.043 50.9 113.793 51.14C113.553 51.37 113.433 51.755 113.433 52.295V52.88H115.158V54.005Z" fill="#6B7B8A"/>
<path d="M124.25 56.675C124.25 56.935 124.235 57.21 124.205 57.5H117.635C117.685 58.31 117.96 58.945 118.46 59.405C118.97 59.855 119.585 60.08 120.305 60.08C120.895 60.08 121.385 59.945 121.775 59.675C122.175 59.395 122.455 59.025 122.615 58.565H124.085C123.865 59.355 123.425 60 122.765 60.5C122.105 60.99 121.285 61.235 120.305 61.235C119.525 61.235 118.825 61.06 118.205 60.71C117.595 60.36 117.115 59.865 116.765 59.225C116.415 58.575 116.24 57.825 116.24 56.975C116.24 56.125 116.41 55.38 116.75 54.74C117.09 54.1 117.565 53.61 118.175 53.27C118.795 52.92 119.505 52.745 120.305 52.745C121.085 52.745 121.775 52.915 122.375 53.255C122.975 53.595 123.435 54.065 123.755 54.665C124.085 55.255 124.25 55.925 124.25 56.675ZM122.84 56.39C122.84 55.87 122.725 55.425 122.495 55.055C122.265 54.675 121.95 54.39 121.55 54.2C121.16 54 120.725 53.9 120.245 53.9C119.555 53.9 118.965 54.12 118.475 54.56C117.995 55 117.72 55.61 117.65 56.39H122.84Z" fill="#6B7B8A"/>
<path d="M127.416 54.41C127.696 53.92 128.106 53.52 128.646 53.21C129.186 52.9 129.801 52.745 130.491 52.745C131.231 52.745 131.896 52.92 132.486 53.27C133.076 53.62 133.541 54.115 133.881 54.755C134.221 55.385 134.391 56.12 134.391 56.96C134.391 57.79 134.221 58.53 133.881 59.18C133.541 59.83 133.071 60.335 132.471 60.695C131.881 61.055 131.221 61.235 130.491 61.235C129.781 61.235 129.156 61.08 128.616 60.77C128.086 60.46 127.686 60.065 127.416 59.585V61.1H126.051V50H127.416V54.41ZM132.996 56.96C132.996 56.34 132.871 55.8 132.621 55.34C132.371 54.88 132.031 54.53 131.601 54.29C131.181 54.05 130.716 53.93 130.206 53.93C129.706 53.93 129.241 54.055 128.811 54.305C128.391 54.545 128.051 54.9 127.791 55.37C127.541 55.83 127.416 56.365 127.416 56.975C127.416 57.595 127.541 58.14 127.791 58.61C128.051 59.07 128.391 59.425 128.811 59.675C129.241 59.915 129.706 60.035 130.206 60.035C130.716 60.035 131.181 59.915 131.601 59.675C132.031 59.425 132.371 59.07 132.621 58.61C132.871 58.14 132.996 57.59 132.996 56.96Z" fill="#6B7B8A"/>
<path d="M137.553 54.215C137.793 53.745 138.133 53.38 138.573 53.12C139.023 52.86 139.568 52.73 140.208 52.73V54.14H139.848C138.318 54.14 137.553 54.97 137.553 56.63V61.1H136.188V52.88H137.553V54.215Z" fill="#6B7B8A"/>
<path d="M149.074 52.88V61.1H147.709V59.885C147.449 60.305 147.084 60.635 146.614 60.875C146.154 61.105 145.644 61.22 145.084 61.22C144.444 61.22 143.869 61.09 143.359 60.83C142.849 60.56 142.444 60.16 142.144 59.63C141.854 59.1 141.709 58.455 141.709 57.695V52.88H143.059V57.515C143.059 58.325 143.264 58.95 143.674 59.39C144.084 59.82 144.644 60.035 145.354 60.035C146.084 60.035 146.659 59.81 147.079 59.36C147.499 58.91 147.709 58.255 147.709 57.395V52.88H149.074Z" fill="#6B7B8A"/>
<path d="M150.869 56.96C150.869 56.12 151.039 55.385 151.379 54.755C151.719 54.115 152.184 53.62 152.774 53.27C153.374 52.92 154.039 52.745 154.769 52.745C155.489 52.745 156.114 52.9 156.644 53.21C157.174 53.52 157.569 53.91 157.829 54.38V52.88H159.209V61.1H157.829V59.57C157.559 60.05 157.154 60.45 156.614 60.77C156.084 61.08 155.464 61.235 154.754 61.235C154.024 61.235 153.364 61.055 152.774 60.695C152.184 60.335 151.719 59.83 151.379 59.18C151.039 58.53 150.869 57.79 150.869 56.96ZM157.829 56.975C157.829 56.355 157.704 55.815 157.454 55.355C157.204 54.895 156.864 54.545 156.434 54.305C156.014 54.055 155.549 53.93 155.039 53.93C154.529 53.93 154.064 54.05 153.644 54.29C153.224 54.53 152.889 54.88 152.639 55.34C152.389 55.8 152.264 56.34 152.264 56.96C152.264 57.59 152.389 58.14 152.639 58.61C152.889 59.07 153.224 59.425 153.644 59.675C154.064 59.915 154.529 60.035 155.039 60.035C155.549 60.035 156.014 59.915 156.434 59.675C156.864 59.425 157.204 59.07 157.454 58.61C157.704 58.14 157.829 57.595 157.829 56.975Z" fill="#6B7B8A"/>
<path d="M162.88 54.215C163.12 53.745 163.46 53.38 163.9 53.12C164.35 52.86 164.895 52.73 165.535 52.73V54.14H165.175C163.645 54.14 162.88 54.97 162.88 56.63V61.1H161.515V52.88H162.88V54.215Z" fill="#6B7B8A"/>
<path d="M174.191 52.88L169.241 64.97H167.831L169.451 61.01L166.136 52.88H167.651L170.231 59.54L172.781 52.88H174.191Z" fill="#6B7B8A"/>
<path d="M178.977 51.5V50.255H181.797V61.1H180.417V51.5H178.977Z" fill="#6B7B8A"/>
<path d="M183.782 51.5V50.255H186.602V61.1H185.222V51.5H183.782Z" fill="#6B7B8A"/>
<path d="M190.582 59.21L188.902 63.245H187.987L189.082 59.21H190.582Z" fill="#6B7B8A"/>
<path d="M195.754 60.005C197.024 58.985 198.019 58.15 198.739 57.5C199.459 56.84 200.064 56.155 200.554 55.445C201.054 54.725 201.304 54.02 201.304 53.33C201.304 52.68 201.144 52.17 200.824 51.8C200.514 51.42 200.009 51.23 199.309 51.23C198.629 51.23 198.099 51.445 197.719 51.875C197.349 52.295 197.149 52.86 197.119 53.57H195.799C195.839 52.45 196.179 51.585 196.819 50.975C197.459 50.365 198.284 50.06 199.294 50.06C200.324 50.06 201.139 50.345 201.739 50.915C202.349 51.485 202.654 52.27 202.654 53.27C202.654 54.1 202.404 54.91 201.904 55.7C201.414 56.48 200.854 57.17 200.224 57.77C199.594 58.36 198.789 59.05 197.809 59.84H202.969V60.98H195.754V60.005Z" fill="#6B7B8A"/>
<path d="M204.547 55.565C204.547 53.845 204.827 52.505 205.387 51.545C205.947 50.575 206.927 50.09 208.327 50.09C209.717 50.09 210.692 50.575 211.252 51.545C211.812 52.505 212.092 53.845 212.092 55.565C212.092 57.315 211.812 58.675 211.252 59.645C210.692 60.615 209.717 61.1 208.327 61.1C206.927 61.1 205.947 60.615 205.387 59.645C204.827 58.675 204.547 57.315 204.547 55.565ZM210.742 55.565C210.742 54.695 210.682 53.96 210.562 53.36C210.452 52.75 210.217 52.26 209.857 51.89C209.507 51.52 208.997 51.335 208.327 51.335C207.647 51.335 207.127 51.52 206.767 51.89C206.417 52.26 206.182 52.75 206.062 53.36C205.952 53.96 205.897 54.695 205.897 55.565C205.897 56.465 205.952 57.22 206.062 57.83C206.182 58.44 206.417 58.93 206.767 59.3C207.127 59.67 207.647 59.855 208.327 59.855C208.997 59.855 209.507 59.67 209.857 59.3C210.217 58.93 210.452 58.44 210.562 57.83C210.682 57.22 210.742 56.465 210.742 55.565Z" fill="#6B7B8A"/>
<path d="M213.606 51.5V50.255H216.426V61.1H215.046V51.5H213.606Z" fill="#6B7B8A"/>
<path d="M220.751 55.46C220.191 55.24 219.761 54.92 219.461 54.5C219.161 54.08 219.011 53.57 219.011 52.97C219.011 52.43 219.146 51.945 219.416 51.515C219.686 51.075 220.086 50.73 220.616 50.48C221.156 50.22 221.806 50.09 222.566 50.09C223.326 50.09 223.971 50.22 224.501 50.48C225.041 50.73 225.446 51.075 225.716 51.515C225.996 51.945 226.136 52.43 226.136 52.97C226.136 53.55 225.981 54.06 225.671 54.5C225.361 54.93 224.936 55.25 224.396 55.46C225.016 55.65 225.506 55.985 225.866 56.465C226.236 56.935 226.421 57.505 226.421 58.175C226.421 58.825 226.261 59.395 225.941 59.885C225.621 60.365 225.166 60.74 224.576 61.01C223.996 61.27 223.326 61.4 222.566 61.4C221.806 61.4 221.136 61.27 220.556 61.01C219.986 60.74 219.541 60.365 219.221 59.885C218.901 59.395 218.741 58.825 218.741 58.175C218.741 57.505 218.921 56.93 219.281 56.45C219.641 55.97 220.131 55.64 220.751 55.46ZM224.816 53.135C224.816 52.525 224.616 52.055 224.216 51.725C223.816 51.395 223.266 51.23 222.566 51.23C221.876 51.23 221.331 51.395 220.931 51.725C220.531 52.055 220.331 52.53 220.331 53.15C220.331 53.71 220.536 54.16 220.946 54.5C221.366 54.84 221.906 55.01 222.566 55.01C223.236 55.01 223.776 54.84 224.186 54.5C224.606 54.15 224.816 53.695 224.816 53.135ZM222.566 56.06C221.826 56.06 221.221 56.235 220.751 56.585C220.281 56.925 220.046 57.44 220.046 58.13C220.046 58.77 220.271 59.285 220.721 59.675C221.181 60.065 221.796 60.26 222.566 60.26C223.336 60.26 223.946 60.065 224.396 59.675C224.846 59.285 225.071 58.77 225.071 58.13C225.071 57.46 224.841 56.95 224.381 56.6C223.921 56.24 223.316 56.06 222.566 56.06Z" fill="#6B7B8A"/>
</svg>
