<svg width="32" height="32" viewBox="0 0 32 32" fill="none" xmlns="http://www.w3.org/2000/svg">
<mask id="mask0_49_741" style="mask-type:luminance" maskUnits="userSpaceOnUse" x="0" y="0" width="32" height="32">
<path d="M32 0H0V32H32V0Z" fill="white"/>
</mask>
<g mask="url(#mask0_49_741)">
<path d="M20.1622 27.0751H11.8372C10.831 27.0751 10.0122 27.8937 10.0122 28.9V30.8751C10.0122 31.5 10.5247 32.0063 11.1435 32.0063H20.8434C21.4685 32.0063 21.9748 31.5 21.9748 30.8751V28.9C21.9809 27.8875 21.1622 27.0751 20.1622 27.0751ZM15.0809 17.8688C15.0809 18.3751 15.4934 18.7875 15.9997 18.7875C16.506 18.7875 16.9185 18.3751 16.9185 17.8688C16.9185 17.3688 16.5122 16.9437 15.9934 16.9437C15.4872 16.95 15.0809 17.3625 15.0809 17.8688Z" fill="#7A0AEA"/>
<path d="M16.4373 7.98755C16.4061 7.9438 16.3373 7.96255 16.3373 8.0188V16.3188C17.0499 16.4751 17.5936 17.1063 17.5936 17.8751C17.5936 18.75 16.8811 19.4563 16.0061 19.4563C15.1936 19.4563 14.5561 18.8626 14.4373 18.1312C14.2999 17.2563 14.8749 16.4875 15.6687 16.3188V8.0188C15.6687 7.96255 15.5936 7.9438 15.5687 7.98755L8.48737 18.9375C7.97488 19.7312 8.16863 20.8063 8.92488 21.3812C10.7811 22.7812 11.9186 24.4312 12.3874 26.4063H19.6124C20.0811 24.4312 21.2187 22.7812 23.0749 21.3812C23.8373 20.8063 24.0311 19.7312 23.5124 18.9375L16.4373 7.98755Z" fill="#7A0AEA"/>
<path d="M29.7625 13.9437C28.8751 8.75625 25.1251 4.53751 20.2 2.98125C22.6875 2.98751 25.1312 2.99375 27.2937 2.99375C27.4688 4.13125 28.45 5 29.6312 5C30.9375 5 32 3.93749 32 2.63125C32 1.325 30.9375 0.2625 29.6312 0.2625C28.4312 0.2625 27.4375 1.1625 27.2875 2.325C25.2375 2.31875 22.0688 2.31251 18.6688 2.30625V1.36249C18.6688 0.6125 18.0625 0 17.3125 0H14.6875C13.9375 0 13.325 0.6125 13.325 1.36249V2.30625C8.95625 2.3 6.31249 2.3 4.7 2.30625C4.54375 1.15625 3.55625 0.268751 2.36875 0.268751C1.0625 0.268751 0 1.33125 0 2.63125C0 3.93749 1.0625 5 2.36875 5C3.55625 5 4.54375 4.11875 4.70625 2.975C6.41875 2.96875 8.95 2.96875 11.8313 2.96875C6.89375 4.51875 3.125 8.74375 2.23749 13.9437C0.9875 14.0125 0 15.0437 0 16.3063C0 17.6125 1.0625 18.6749 2.36875 18.6749C3.675 18.6749 4.73751 17.6125 4.73751 16.3063C4.73751 15.1875 3.95625 14.25 2.90625 14.0063C3.85 8.63751 8.01251 4.36251 13.3313 3.275V3.98125C13.3313 4.73125 13.9437 5.34375 14.6937 5.34375H17.3125C18.0625 5.34375 18.6749 4.73125 18.6749 3.98125V3.26875C23.9937 4.35625 28.1625 8.63125 29.1 14C28.0563 14.2437 27.2688 15.1812 27.2688 16.3C27.2688 17.6063 28.3312 18.6688 29.6375 18.6688C30.9437 18.6688 32.0063 17.6063 32.0063 16.3C32 15.0437 31.0125 14.0125 29.7625 13.9437Z" fill="#B265FF"/>
</g>
</svg>
