<svg width="32" height="32" viewBox="0 0 32 32" fill="none" xmlns="http://www.w3.org/2000/svg">
<path d="M22.3448 24.7875V27.9294C22.3448 28.9649 21.5053 29.8044 20.4698 29.8044H5.90479C4.86922 29.8044 4.02979 28.9649 4.02979 27.9294V8.46252C4.02979 7.42696 4.86922 6.58752 5.90479 6.58752H10.2798V22.9125C10.2798 23.9481 11.1192 24.7875 12.1548 24.7875H22.3448Z" fill="#A4E7FF"/>
<path d="M27.9698 7.80005V23.5376C27.9698 24.5732 27.1303 25.4126 26.0948 25.4126H11.5298C10.4942 25.4126 9.65479 24.5732 9.65479 23.5376V4.07068C9.65479 3.03511 10.4942 2.19568 11.5298 2.19568H22.5298L22.5923 2.26005L22.5298 2.32068V6.7813C22.5298 7.34393 22.9859 7.80005 23.5485 7.80005H27.8448L27.9092 7.73755L27.9698 7.80005Z" fill="#00ACEA"/>
<path d="M27.9092 7.73751L27.8448 7.80001H23.5485C22.9859 7.80001 22.5298 7.34388 22.5298 6.78126V2.32063L22.5923 2.26001L27.9092 7.73751Z" fill="#A4E7FF"/>
<path d="M24.5187 15.5194H12.7925C12.4473 15.5194 12.1675 15.2396 12.1675 14.8944C12.1675 14.5492 12.4473 14.2694 12.7925 14.2694H24.5187C24.8639 14.2694 25.1437 14.5492 25.1437 14.8944C25.1437 15.2396 24.8639 15.5194 24.5187 15.5194ZM19.8125 12.0231H12.7925C12.4473 12.0231 12.1675 11.7433 12.1675 11.3981C12.1675 11.0529 12.4473 10.7731 12.7925 10.7731H19.8125C20.1577 10.7731 20.4375 11.0529 20.4375 11.3981C20.4375 11.7433 20.1577 12.0231 19.8125 12.0231ZM24.5187 19.2694H12.7925C12.4473 19.2694 12.1675 18.9896 12.1675 18.6444C12.1675 18.2992 12.4473 18.0194 12.7925 18.0194H24.5187C24.8639 18.0194 25.1437 18.2992 25.1437 18.6444C25.1437 18.9896 24.8639 19.2694 24.5187 19.2694Z" fill="white"/>
</svg>
