<svg width="8" height="5" viewBox="0 0 8 5" fill="none" xmlns="http://www.w3.org/2000/svg">
<path d="M4.68066 0.326062L7.50677 3.15216C7.85097 3.49637 7.92778 3.89021 7.7372 4.33369C7.54662 4.77717 7.20713 4.99928 6.71872 5L1.12086 5C0.631731 5 0.291875 4.7779 0.101294 4.33369C-0.0892872 3.88949 -0.0121133 3.49564 0.332816 3.15216L3.15892 0.326062C3.26761 0.217366 3.38537 0.135844 3.51218 0.081496C3.63899 0.0271477 3.77486 -2.69518e-05 3.91979 -2.69518e-05C4.06472 -2.69518e-05 4.20059 0.0271477 4.3274 0.081496C4.45421 0.135844 4.57197 0.217366 4.68066 0.326062Z" fill="#727272"/>
</svg>
