<svg width="38" height="39" viewBox="0 0 38 39" fill="none" xmlns="http://www.w3.org/2000/svg">
<path d="M25.1599 7.10309C26.8203 10.7637 28.8573 15.2551 30.3853 17.0397C30.6855 16.3466 30.6527 15.1842 30.9938 12.3463C31.3022 9.78678 33.4142 9.54256 34.3215 9.72402C36.3271 10.1429 36.937 12.1744 36.8701 12.9234C36.7637 14.1172 36.7582 14.0763 36.5399 16.9646C36.2193 21.1873 37.8497 24.3758 37.9998 27.9914C37.9998 34.8049 32.028 38.1531 27.849 38.1531C24.505 38.1531 21.1582 36.0138 19.9044 34.9441L13.6338 29.2165C12.8657 28.6203 10.9692 26.6502 10.1369 25.5164C7.86666 22.4289 11.1493 20.3019 12.9939 20.8367C12.8493 20.7248 11.9734 19.3031 11.5545 18.6073C10.4289 16.3466 11.5545 14.8417 12.3868 14.4269C14.2737 13.4883 15.6612 14.5443 16.0978 15.12C15.93 14.8363 15.4061 13.6875 14.5616 11.5795C13.717 9.47298 15.0773 8.17138 15.8631 7.7839C17.5686 6.99394 19.1894 7.99674 19.5947 8.89312C19.7938 9.33108 20.8635 11.6764 21.3301 12.7092C20.9781 11.8524 20.3423 10.1483 20.1172 9.3611C19.6697 7.50558 20.7462 6.234 21.4297 5.90655C22.3779 5.45222 24.3576 5.33352 25.1408 7.05807L25.1599 7.10309Z" fill="url(#paint0_radial_147_108)"/>
<path d="M25.1605 7.10309C26.8209 10.7637 28.8579 15.2551 30.3859 17.0397C30.6861 16.3466 30.6533 15.1842 30.9944 12.3463C31.3028 9.78678 33.4148 9.54256 34.3221 9.72402C36.3277 10.1429 36.9376 12.1744 36.8707 12.9234C36.7643 14.1172 36.7588 14.0763 36.5405 16.9646C36.2199 21.1873 37.8503 24.3758 38.0004 27.9914C38.0004 34.8049 32.0286 38.1531 27.8496 38.1531C24.5056 38.1531 21.1588 36.0138 19.905 34.9441L13.6344 29.2165C12.8663 28.6203 10.9698 26.6502 10.1362 25.5164C7.86726 22.4289 11.1499 20.3019 12.9945 20.8367C12.8499 20.7248 11.974 19.3031 11.5551 18.6073C10.4295 16.3466 11.5551 14.8417 12.3874 14.4269C14.2743 13.4883 15.6618 14.5443 16.0984 15.12C15.9306 14.8363 15.4067 13.6875 14.5621 11.5795C13.7176 9.47298 15.0779 8.17138 15.8637 7.7839C17.5692 6.99394 19.19 7.99674 19.5953 8.89312C19.7944 9.33108 20.8641 11.6764 21.3307 12.7092C20.9787 11.8524 20.3429 10.1483 20.1178 9.3611C19.6703 7.50558 20.7468 6.234 21.4289 5.90655C22.3785 5.45222 24.3582 5.33352 25.14 7.05807L25.1605 7.10309Z" fill="url(#paint1_radial_147_108)"/>
<path d="M36.8711 12.9234C36.7647 14.1172 36.7592 14.0763 36.5409 16.9646C36.4277 18.4572 37.2381 23.9515 37.2381 23.9515C35.2666 24.5955 30.9948 23.7428 30.3877 17.0397C30.6865 16.3466 30.6537 15.1842 30.9948 12.3463C31.3032 9.78541 33.4152 9.54255 34.3225 9.72401C36.3281 10.1429 36.938 12.1744 36.8711 12.9234Z" fill="url(#paint2_radial_147_108)"/>
<path d="M36.8711 12.9234C36.7647 14.1172 36.7592 14.0763 36.5409 16.9646C36.4277 18.4572 37.2381 23.9515 37.2381 23.9515C35.2666 24.5955 30.9948 23.7428 30.3877 17.0397C30.6865 16.3466 30.6537 15.1842 30.9948 12.3463C31.3032 9.78541 33.4152 9.54255 34.3225 9.72401C36.3281 10.1429 36.938 12.1744 36.8711 12.9234Z" fill="url(#paint3_radial_147_108)"/>
<path d="M36.8711 12.9234C36.7647 14.1172 36.7592 14.0763 36.5409 16.9646C36.4277 18.4572 37.2381 23.9515 37.2381 23.9515C35.2666 24.5955 30.9948 23.7428 30.3877 17.0397C30.6865 16.3466 30.6537 15.1842 30.9948 12.3463C31.3032 9.78541 33.4152 9.54255 34.3225 9.72401C36.3281 10.1429 36.938 12.1744 36.8711 12.9234Z" fill="url(#paint4_radial_147_108)"/>
<path d="M25.161 7.10309C26.8214 10.7637 28.8584 15.2551 30.3865 17.0397C30.1477 19.0808 28.3236 20.0576 26.7519 19.692C24.7694 19.1162 24.0163 17.7096 24.0163 17.7096C24.0163 17.7096 23.4979 16.9073 22.9931 16.0246C22.4091 15.0041 22.5155 15.0273 21.5373 13.1799C21.3449 12.817 20.4035 10.3557 20.1184 9.3611C19.6708 7.50558 20.7473 6.234 21.4309 5.90655C22.3791 5.45222 24.3588 5.33352 25.1419 7.05807L25.161 7.10309Z" fill="url(#paint5_radial_147_108)"/>
<path d="M25.161 7.10309C26.8214 10.7637 28.8584 15.2551 30.3865 17.0397C30.1477 19.0808 28.3236 20.0576 26.7519 19.692C24.7694 19.1162 24.0163 17.7096 24.0163 17.7096C24.0163 17.7096 23.4979 16.9073 22.9931 16.0246C22.4091 15.0041 22.5155 15.0273 21.5373 13.1799C21.3449 12.817 20.4035 10.3557 20.1184 9.3611C19.6708 7.50558 20.7473 6.234 21.4309 5.90655C22.3791 5.45222 24.3588 5.33352 25.1419 7.05807L25.161 7.10309Z" fill="url(#paint6_linear_147_108)"/>
<path d="M25.161 7.10309C26.8214 10.7637 28.8584 15.2551 30.3865 17.0397C30.1477 19.0808 28.3236 20.0576 26.7519 19.692C24.7694 19.1162 24.0163 17.7096 24.0163 17.7096C24.0163 17.7096 23.4979 16.9073 22.9931 16.0246C22.4091 15.0041 22.5155 15.0273 21.5373 13.1799C21.3449 12.817 20.4035 10.3557 20.1184 9.3611C19.6708 7.50558 20.7473 6.234 21.4309 5.90655C22.3791 5.45222 24.3588 5.33352 25.1419 7.05807L25.161 7.10309Z" fill="url(#paint7_radial_147_108)"/>
<path d="M25.161 7.10309C26.8214 10.7637 28.8584 15.2551 30.3865 17.0397C30.1477 19.0808 28.3236 20.0576 26.7519 19.692C24.7694 19.1162 24.0163 17.7096 24.0163 17.7096C24.0163 17.7096 23.4979 16.9073 22.9931 16.0246C22.4091 15.0041 22.5155 15.0273 21.5373 13.1799C21.3449 12.817 20.4035 10.3557 20.1184 9.3611C19.6708 7.50558 20.7473 6.234 21.4309 5.90655C22.3791 5.45222 24.3588 5.33352 25.1419 7.05807L25.161 7.10309Z" fill="url(#paint8_radial_147_108)"/>
<path d="M25.161 7.10309C26.8214 10.7637 28.8584 15.2551 30.3865 17.0397C30.1477 19.0808 28.3236 20.0576 26.7519 19.692C24.7694 19.1162 24.0163 17.7096 24.0163 17.7096C24.0163 17.7096 23.4979 16.9073 22.9931 16.0246C22.4091 15.0041 22.5155 15.0273 21.5373 13.1799C21.3449 12.817 20.4035 10.3557 20.1184 9.3611C19.6708 7.50558 20.7473 6.234 21.4309 5.90655C22.3791 5.45222 24.3588 5.33352 25.1419 7.05807L25.161 7.10309Z" fill="url(#paint9_linear_147_108)"/>
<path d="M19.5943 8.89311C19.8618 9.48251 21.7064 13.521 21.5358 13.1799C22.0311 14.2987 23.5687 17.0274 24.0149 17.7737C25.0026 19.4191 23.888 20.7876 23.169 21.205C21.0992 22.4057 19.9109 20.8749 19.9109 20.8749C18.8194 19.2758 17.908 17.9442 16.1057 15.1091C15.6718 14.2905 14.8805 12.465 14.5612 11.5795C13.774 9.39383 15.077 8.17137 15.8628 7.78389C17.5683 6.99393 19.1891 7.99673 19.5943 8.89311Z" fill="url(#paint10_radial_147_108)"/>
<path d="M19.5943 8.89311C19.8618 9.48251 21.7064 13.521 21.5358 13.1799C22.0311 14.2987 23.5687 17.0274 24.0149 17.7737C25.0026 19.4191 23.888 20.7876 23.169 21.205C21.0992 22.4057 19.9109 20.8749 19.9109 20.8749C18.8194 19.2758 17.908 17.9442 16.1057 15.1091C15.6718 14.2905 14.8805 12.465 14.5612 11.5795C13.774 9.39383 15.077 8.17137 15.8628 7.78389C17.5683 6.99393 19.1891 7.99673 19.5943 8.89311Z" fill="url(#paint11_linear_147_108)"/>
<path d="M19.5943 8.89311C19.8618 9.48251 21.7064 13.521 21.5358 13.1799C22.0311 14.2987 23.5687 17.0274 24.0149 17.7737C25.0026 19.4191 23.888 20.7876 23.169 21.205C21.0992 22.4057 19.9109 20.8749 19.9109 20.8749C18.8194 19.2758 17.908 17.9442 16.1057 15.1091C15.6718 14.2905 14.8805 12.465 14.5612 11.5795C13.774 9.39383 15.077 8.17137 15.8628 7.78389C17.5683 6.99393 19.1891 7.99673 19.5943 8.89311Z" fill="url(#paint12_radial_147_108)"/>
<path d="M19.5943 8.89311C19.8618 9.48251 21.7064 13.521 21.5358 13.1799C22.0311 14.2987 23.5687 17.0274 24.0149 17.7737C25.0026 19.4191 23.888 20.7876 23.169 21.205C21.0992 22.4057 19.9109 20.8749 19.9109 20.8749C18.8194 19.2758 17.908 17.9442 16.1057 15.1091C15.6718 14.2905 14.8805 12.465 14.5612 11.5795C13.774 9.39383 15.077 8.17137 15.8628 7.78389C17.5683 6.99393 19.1891 7.99673 19.5943 8.89311Z" fill="url(#paint13_radial_147_108)"/>
<path d="M19.5943 8.89311C19.8618 9.48251 21.7064 13.521 21.5358 13.1799C22.0311 14.2987 23.5687 17.0274 24.0149 17.7737C25.0026 19.4191 23.888 20.7876 23.169 21.205C21.0992 22.4057 19.9109 20.8749 19.9109 20.8749C18.8194 19.2758 17.908 17.9442 16.1057 15.1091C15.6718 14.2905 14.8805 12.465 14.5612 11.5795C13.774 9.39383 15.077 8.17137 15.8628 7.78389C17.5683 6.99393 19.1891 7.99673 19.5943 8.89311Z" fill="url(#paint14_radial_147_108)"/>
<path d="M19.5943 8.89311C19.8618 9.48251 21.7064 13.521 21.5358 13.1799C22.0311 14.2987 23.5687 17.0274 24.0149 17.7737C25.0026 19.4191 23.888 20.7876 23.169 21.205C21.0992 22.4057 19.9109 20.8749 19.9109 20.8749C18.8194 19.2758 17.908 17.9442 16.1057 15.1091C15.6718 14.2905 14.8805 12.465 14.5612 11.5795C13.774 9.39383 15.077 8.17137 15.8628 7.78389C17.5683 6.99393 19.1891 7.99673 19.5943 8.89311Z" fill="url(#paint15_linear_147_108)"/>
<path d="M12.3872 14.4269C14.2741 13.4882 15.6617 14.5442 16.0983 15.12C17.4599 17.1761 19.0862 19.5132 19.8366 20.7575C21.8422 24.0729 17.7382 25.5109 17.7382 25.5109C13.9644 21.2582 13.2659 21.044 12.9944 20.8353C12.8497 20.7248 11.9738 19.3031 11.555 18.6073C10.4294 16.3466 11.555 14.8403 12.3872 14.4269Z" fill="url(#paint16_radial_147_108)"/>
<path d="M12.3872 14.4269C14.2741 13.4882 15.6617 14.5442 16.0983 15.12C17.4599 17.1761 19.0862 19.5132 19.8366 20.7575C21.8422 24.0729 17.7382 25.5109 17.7382 25.5109C13.9644 21.2582 13.2659 21.044 12.9944 20.8353C12.8497 20.7248 11.9738 19.3031 11.555 18.6073C10.4294 16.3466 11.555 14.8403 12.3872 14.4269Z" fill="url(#paint17_linear_147_108)"/>
<path d="M12.3872 14.4269C14.2741 13.4882 15.6617 14.5442 16.0983 15.12C17.4599 17.1761 19.0862 19.5132 19.8366 20.7575C21.8422 24.0729 17.7382 25.5109 17.7382 25.5109C13.9644 21.2582 13.2659 21.044 12.9944 20.8353C12.8497 20.7248 11.9738 19.3031 11.555 18.6073C10.4294 16.3466 11.555 14.8403 12.3872 14.4269Z" fill="url(#paint18_radial_147_108)"/>
<path d="M12.3872 14.4269C14.2741 13.4882 15.6617 14.5442 16.0983 15.12C17.4599 17.1761 19.0862 19.5132 19.8366 20.7575C21.8422 24.0729 17.7382 25.5109 17.7382 25.5109C13.9644 21.2582 13.2659 21.044 12.9944 20.8353C12.8497 20.7248 11.9738 19.3031 11.555 18.6073C10.4294 16.3466 11.555 14.8403 12.3872 14.4269Z" fill="url(#paint19_radial_147_108)"/>
<path d="M12.3872 14.4269C14.2741 13.4882 15.6617 14.5442 16.0983 15.12C17.4599 17.1761 19.0862 19.5132 19.8366 20.7575C21.8422 24.0729 17.7382 25.5109 17.7382 25.5109C13.9644 21.2582 13.2659 21.044 12.9944 20.8353C12.8497 20.7248 11.9738 19.3031 11.555 18.6073C10.4294 16.3466 11.555 14.8403 12.3872 14.4269Z" fill="url(#paint20_radial_147_108)"/>
<path d="M12.3872 14.4269C14.2741 13.4882 15.6617 14.5442 16.0983 15.12C17.4599 17.1761 19.0862 19.5132 19.8366 20.7575C21.8422 24.0729 17.7382 25.5109 17.7382 25.5109C13.9644 21.2582 13.2659 21.044 12.9944 20.8353C12.8497 20.7248 11.9738 19.3031 11.555 18.6073C10.4294 16.3466 11.555 14.8403 12.3872 14.4269Z" fill="url(#paint21_radial_147_108)"/>
<path d="M10.1362 25.5164C7.86726 22.4289 11.1499 20.3019 12.9945 20.8367C13.8677 21.3756 15.2184 22.7277 15.7928 23.3375C19.452 26.9053 18.8421 28.0064 17.8189 29.2179C16.827 30.0393 15.5377 30.6982 13.6344 29.2179C12.8663 28.6203 10.9698 26.6502 10.1362 25.5164Z" fill="url(#paint22_radial_147_108)"/>
<path d="M10.1362 25.5164C7.86726 22.4289 11.1499 20.3019 12.9945 20.8367C13.8677 21.3756 15.2184 22.7277 15.7928 23.3375C19.452 26.9053 18.8421 28.0064 17.8189 29.2179C16.827 30.0393 15.5377 30.6982 13.6344 29.2179C12.8663 28.6203 10.9698 26.6502 10.1362 25.5164Z" fill="url(#paint23_radial_147_108)"/>
<path d="M10.1362 25.5164C7.86726 22.4289 11.1499 20.3019 12.9945 20.8367C13.8677 21.3756 15.2184 22.7277 15.7928 23.3375C19.452 26.9053 18.8421 28.0064 17.8189 29.2179C16.827 30.0393 15.5377 30.6982 13.6344 29.2179C12.8663 28.6203 10.9698 26.6502 10.1362 25.5164Z" fill="url(#paint24_radial_147_108)"/>
<path d="M10.1362 25.5164C7.86726 22.4289 11.1499 20.3019 12.9945 20.8367C13.8677 21.3756 15.2184 22.7277 15.7928 23.3375C19.452 26.9053 18.8421 28.0064 17.8189 29.2179C16.827 30.0393 15.5377 30.6982 13.6344 29.2179C12.8663 28.6203 10.9698 26.6502 10.1362 25.5164Z" fill="url(#paint25_radial_147_108)"/>
<path d="M10.1362 25.5164C7.86726 22.4289 11.1499 20.3019 12.9945 20.8367C13.8677 21.3756 15.2184 22.7277 15.7928 23.3375C19.452 26.9053 18.8421 28.0064 17.8189 29.2179C16.827 30.0393 15.5377 30.6982 13.6344 29.2179C12.8663 28.6203 10.9698 26.6502 10.1362 25.5164Z" fill="url(#paint26_linear_147_108)"/>
<path d="M25.1605 7.10309C26.8209 10.7637 28.8579 15.2551 30.3859 17.0397C30.6861 16.3466 30.6533 15.1842 30.9944 12.3463C31.3028 9.78678 33.4148 9.54256 34.3221 9.72402C36.3277 10.1429 36.9376 12.1744 36.8707 12.9234C36.7643 14.1172 36.7588 14.0763 36.5405 16.9646C36.2199 21.1873 37.8503 24.3758 38.0004 27.9914C38.0004 34.8049 32.0286 38.1531 27.8496 38.1531C24.5056 38.1531 21.1588 36.0138 19.905 34.9441L13.6344 29.2165C12.8663 28.6203 10.9698 26.6502 10.1362 25.5164C7.86726 22.4289 11.1499 20.3019 12.9945 20.8367C12.8499 20.7248 11.974 19.3031 11.5551 18.6073C10.4295 16.3466 11.5551 14.8417 12.3874 14.4269C14.2743 13.4883 15.6618 14.5443 16.0984 15.12C15.9306 14.8363 15.4067 13.6875 14.5621 11.5795C13.7176 9.47298 15.0779 8.17138 15.8637 7.7839C17.5692 6.99394 19.19 7.99674 19.5953 8.89312C19.7944 9.33108 20.8641 11.6764 21.3307 12.7092C20.9787 11.8524 20.3429 10.1483 20.1178 9.3611C19.6703 7.50558 20.7468 6.234 21.4289 5.90655C22.3785 5.45222 24.3582 5.33352 25.14 7.05807L25.1605 7.10309Z" fill="url(#paint27_radial_147_108)"/>
<path d="M25.1605 7.10309C26.8209 10.7637 28.8579 15.2551 30.3859 17.0397C30.6861 16.3466 30.6533 15.1842 30.9944 12.3463C31.3028 9.78678 33.4148 9.54256 34.3221 9.72402C36.3277 10.1429 36.9376 12.1744 36.8707 12.9234C36.7643 14.1172 36.7588 14.0763 36.5405 16.9646C36.2199 21.1873 37.8503 24.3758 38.0004 27.9914C38.0004 34.8049 32.0286 38.1531 27.8496 38.1531C24.5056 38.1531 21.1588 36.0138 19.905 34.9441L13.6344 29.2165C12.8663 28.6203 10.9698 26.6502 10.1362 25.5164C7.86726 22.4289 11.1499 20.3019 12.9945 20.8367C12.8499 20.7248 11.974 19.3031 11.5551 18.6073C10.4295 16.3466 11.5551 14.8417 12.3874 14.4269C14.2743 13.4883 15.6618 14.5443 16.0984 15.12C15.9306 14.8363 15.4067 13.6875 14.5621 11.5795C13.7176 9.47298 15.0779 8.17138 15.8637 7.7839C17.5692 6.99394 19.19 7.99674 19.5953 8.89312C19.7944 9.33108 20.8641 11.6764 21.3307 12.7092C20.9787 11.8524 20.3429 10.1483 20.1178 9.3611C19.6703 7.50558 20.7468 6.234 21.4289 5.90655C22.3785 5.45222 24.3582 5.33352 25.14 7.05807L25.1605 7.10309Z" fill="url(#paint28_radial_147_108)"/>
<path d="M25.1605 7.10309C26.8209 10.7637 28.8579 15.2551 30.3859 17.0397C30.6861 16.3466 30.6533 15.1842 30.9944 12.3463C31.3028 9.78678 33.4148 9.54256 34.3221 9.72402C36.3277 10.1429 36.9376 12.1744 36.8707 12.9234C36.7643 14.1172 36.7588 14.0763 36.5405 16.9646C36.2199 21.1873 37.8503 24.3758 38.0004 27.9914C38.0004 34.8049 32.0286 38.1531 27.8496 38.1531C24.5056 38.1531 21.1588 36.0138 19.905 34.9441L13.6344 29.2165C12.8663 28.6203 10.9698 26.6502 10.1362 25.5164C7.86726 22.4289 11.1499 20.3019 12.9945 20.8367C12.8499 20.7248 11.974 19.3031 11.5551 18.6073C10.4295 16.3466 11.5551 14.8417 12.3874 14.4269C14.2743 13.4883 15.6618 14.5443 16.0984 15.12C15.9306 14.8363 15.4067 13.6875 14.5621 11.5795C13.7176 9.47298 15.0779 8.17138 15.8637 7.7839C17.5692 6.99394 19.19 7.99674 19.5953 8.89312C19.7944 9.33108 20.8641 11.6764 21.3307 12.7092C20.9787 11.8524 20.3429 10.1483 20.1178 9.3611C19.6703 7.50558 20.7468 6.234 21.4289 5.90655C22.3785 5.45222 24.3582 5.33352 25.14 7.05807L25.1605 7.10309Z" fill="url(#paint29_radial_147_108)"/>
<path d="M27.4739 12.0025C28.4985 14.0954 29.5217 15.9714 30.3868 16.9987C30.4754 17.9128 30.5546 18.434 30.7729 19.2226C29.047 17.4954 27.3756 13.7202 27.4739 12.0011V12.0025Z" fill="url(#paint30_radial_147_108)"/>
<path fill-rule="evenodd" clip-rule="evenodd" d="M3.02445 20.5051C3.21961 20.5055 3.40666 20.5833 3.54453 20.7214C3.6824 20.8595 3.75984 21.0467 3.75984 21.2419C3.75984 22.4698 4.25646 24.1138 5.32748 25.4414C6.37803 26.747 7.97433 27.7348 10.2119 27.7348C10.4069 27.7348 10.594 27.8123 10.7319 27.9502C10.8698 28.0881 10.9473 28.2752 10.9473 28.4702C10.9473 28.6653 10.8698 28.8523 10.7319 28.9902C10.594 29.1281 10.4069 29.2056 10.2119 29.2056C7.48043 29.2056 5.48165 27.9777 4.18142 26.365C2.90166 24.7769 2.28906 22.8054 2.28906 21.2405C2.28942 21.0456 2.36702 20.8587 2.50485 20.7209C2.64268 20.5831 2.82952 20.5055 3.02445 20.5051Z" fill="url(#paint31_radial_147_108)"/>
<path fill-rule="evenodd" clip-rule="evenodd" d="M3.02445 20.5051C3.21961 20.5055 3.40666 20.5833 3.54453 20.7214C3.6824 20.8595 3.75984 21.0467 3.75984 21.2419C3.75984 22.4698 4.25646 24.1138 5.32748 25.4414C6.37803 26.747 7.97433 27.7348 10.2119 27.7348C10.4069 27.7348 10.594 27.8123 10.7319 27.9502C10.8698 28.0881 10.9473 28.2752 10.9473 28.4702C10.9473 28.6653 10.8698 28.8523 10.7319 28.9902C10.594 29.1281 10.4069 29.2056 10.2119 29.2056C7.48043 29.2056 5.48165 27.9777 4.18142 26.365C2.90166 24.7769 2.28906 22.8054 2.28906 21.2405C2.28942 21.0456 2.36702 20.8587 2.50485 20.7209C2.64268 20.5831 2.82952 20.5055 3.02445 20.5051Z" fill="url(#paint32_radial_147_108)"/>
<path fill-rule="evenodd" clip-rule="evenodd" d="M3.02445 20.5051C3.21961 20.5055 3.40666 20.5833 3.54453 20.7214C3.6824 20.8595 3.75984 21.0467 3.75984 21.2419C3.75984 22.4698 4.25646 24.1138 5.32748 25.4414C6.37803 26.747 7.97433 27.7348 10.2119 27.7348C10.4069 27.7348 10.594 27.8123 10.7319 27.9502C10.8698 28.0881 10.9473 28.2752 10.9473 28.4702C10.9473 28.6653 10.8698 28.8523 10.7319 28.9902C10.594 29.1281 10.4069 29.2056 10.2119 29.2056C7.48043 29.2056 5.48165 27.9777 4.18142 26.365C2.90166 24.7769 2.28906 22.8054 2.28906 21.2405C2.28942 21.0456 2.36702 20.8587 2.50485 20.7209C2.64268 20.5831 2.82952 20.5055 3.02445 20.5051Z" fill="url(#paint33_radial_147_108)"/>
<path fill-rule="evenodd" clip-rule="evenodd" d="M0.735387 23.1288C0.930785 23.1288 1.11818 23.2064 1.25635 23.3446C1.39452 23.4827 1.47214 23.6701 1.47214 23.8655C1.47214 26.4715 3.42316 29.9533 7.52441 29.9533C7.71945 29.9533 7.9065 30.0308 8.04441 30.1687C8.18232 30.3066 8.2598 30.4936 8.2598 30.6887C8.2598 30.8837 8.18232 31.0708 8.04441 31.2087C7.9065 31.3466 7.71945 31.4241 7.52441 31.4241C2.36715 31.4241 0 27.0172 0 23.8655C0 23.6701 0.0776217 23.4827 0.215789 23.3446C0.353957 23.2064 0.539988 23.1288 0.735387 23.1288Z" fill="url(#paint34_radial_147_108)"/>
<path fill-rule="evenodd" clip-rule="evenodd" d="M0.735387 23.1288C0.930785 23.1288 1.11818 23.2064 1.25635 23.3446C1.39452 23.4827 1.47214 23.6701 1.47214 23.8655C1.47214 26.4715 3.42316 29.9533 7.52441 29.9533C7.71945 29.9533 7.9065 30.0308 8.04441 30.1687C8.18232 30.3066 8.2598 30.4936 8.2598 30.6887C8.2598 30.8837 8.18232 31.0708 8.04441 31.2087C7.9065 31.3466 7.71945 31.4241 7.52441 31.4241C2.36715 31.4241 0 27.0172 0 23.8655C0 23.6701 0.0776217 23.4827 0.215789 23.3446C0.353957 23.2064 0.539988 23.1288 0.735387 23.1288Z" fill="url(#paint35_radial_147_108)"/>
<path fill-rule="evenodd" clip-rule="evenodd" d="M28.2784 10.8892C28.1819 10.8897 28.0861 10.8712 27.9967 10.8347C27.9073 10.7983 27.8259 10.7446 27.7572 10.6767C27.6886 10.6088 27.6339 10.528 27.5965 10.439C27.559 10.35 27.5395 10.2544 27.5389 10.1579C27.5308 8.92994 27.0232 7.28862 25.944 5.96793C24.8839 4.66906 23.2835 3.69218 21.0446 3.70583C20.8572 3.69569 20.6807 3.61442 20.5512 3.47859C20.4217 3.34276 20.3489 3.16262 20.3477 2.97494C20.3465 2.78726 20.4169 2.60619 20.5447 2.46869C20.6724 2.33119 20.8478 2.24762 21.0351 2.23505C23.7665 2.21732 25.7735 3.43432 27.0833 5.03744C28.3739 6.61736 28.9988 8.58476 29.0097 10.1483C29.0104 10.245 28.9921 10.3409 28.9557 10.4305C28.9193 10.52 28.8656 10.6016 28.7977 10.6704C28.7298 10.7392 28.649 10.7939 28.5599 10.8315C28.4708 10.869 28.3751 10.8886 28.2784 10.8892Z" fill="url(#paint36_radial_147_108)"/>
<path fill-rule="evenodd" clip-rule="evenodd" d="M28.2784 10.8892C28.1819 10.8897 28.0861 10.8712 27.9967 10.8347C27.9073 10.7983 27.8259 10.7446 27.7572 10.6767C27.6886 10.6088 27.6339 10.528 27.5965 10.439C27.559 10.35 27.5395 10.2544 27.5389 10.1579C27.5308 8.92994 27.0232 7.28862 25.944 5.96793C24.8839 4.66906 23.2835 3.69218 21.0446 3.70583C20.8572 3.69569 20.6807 3.61442 20.5512 3.47859C20.4217 3.34276 20.3489 3.16262 20.3477 2.97494C20.3465 2.78726 20.4169 2.60619 20.5447 2.46869C20.6724 2.33119 20.8478 2.24762 21.0351 2.23505C23.7665 2.21732 25.7735 3.43432 27.0833 5.03744C28.3739 6.61736 28.9988 8.58476 29.0097 10.1483C29.0104 10.245 28.9921 10.3409 28.9557 10.4305C28.9193 10.52 28.8656 10.6016 28.7977 10.6704C28.7298 10.7392 28.649 10.7939 28.5599 10.8315C28.4708 10.869 28.3751 10.8886 28.2784 10.8892Z" fill="url(#paint37_radial_147_108)"/>
<path fill-rule="evenodd" clip-rule="evenodd" d="M30.5494 8.25181C30.4529 8.25235 30.3571 8.23386 30.2677 8.1974C30.1783 8.16094 30.0969 8.10723 30.0282 8.03932C29.9596 7.97141 29.9049 7.89065 29.8675 7.80163C29.83 7.71261 29.8105 7.61709 29.8099 7.52052C29.7922 4.9146 27.818 1.44368 23.7167 1.47097C23.5217 1.47224 23.3342 1.39597 23.1953 1.25896C23.0565 1.12194 22.9778 0.935396 22.9766 0.74036C22.9753 0.545323 23.0516 0.357771 23.1886 0.218964C23.3256 0.0801566 23.5122 0.00146388 23.7072 0.00019741C28.8644 -0.0339114 31.2589 4.35931 31.2794 7.51097C31.2801 7.60754 31.2618 7.70331 31.2255 7.79281C31.1892 7.8823 31.1356 7.96378 31.0678 8.03257C31.0001 8.10136 30.9194 8.15613 30.8304 8.19375C30.7415 8.23137 30.646 8.2511 30.5494 8.25181Z" fill="url(#paint38_radial_147_108)"/>
<path fill-rule="evenodd" clip-rule="evenodd" d="M30.5494 8.25181C30.4529 8.25235 30.3571 8.23386 30.2677 8.1974C30.1783 8.16094 30.0969 8.10723 30.0282 8.03932C29.9596 7.97141 29.9049 7.89065 29.8675 7.80163C29.83 7.71261 29.8105 7.61709 29.8099 7.52052C29.7922 4.9146 27.818 1.44368 23.7167 1.47097C23.5217 1.47224 23.3342 1.39597 23.1953 1.25896C23.0565 1.12194 22.9778 0.935396 22.9766 0.74036C22.9753 0.545323 23.0516 0.357771 23.1886 0.218964C23.3256 0.0801566 23.5122 0.00146388 23.7072 0.00019741C28.8644 -0.0339114 31.2589 4.35931 31.2794 7.51097C31.2801 7.60754 31.2618 7.70331 31.2255 7.79281C31.1892 7.8823 31.1356 7.96378 31.0678 8.03257C31.0001 8.10136 30.9194 8.15613 30.8304 8.19375C30.7415 8.23137 30.646 8.2511 30.5494 8.25181Z" fill="url(#paint39_radial_147_108)"/>
<g filter="url(#filter0_f_147_108)">
<path d="M28.1173 17.7367C25.4746 18.8023 19.4946 22.3032 17.7373 30.1032" stroke="#FFC339" stroke-width="2" stroke-linecap="round"/>
</g>
<defs>
<filter id="filter0_f_147_108" x="14.7373" y="14.7365" width="16.3799" height="18.3669" filterUnits="userSpaceOnUse" color-interpolation-filters="sRGB">
<feFlood flood-opacity="0" result="BackgroundImageFix"/>
<feBlend mode="normal" in="SourceGraphic" in2="BackgroundImageFix" result="shape"/>
<feGaussianBlur stdDeviation="1" result="effect1_foregroundBlur_147_108"/>
</filter>
<radialGradient id="paint0_radial_147_108" cx="0" cy="0" r="1" gradientUnits="userSpaceOnUse" gradientTransform="translate(23.6823 16.3234) rotate(60.1006) scale(28.7224 18.764)">
<stop offset="0.003" stop-color="#FFC133"/>
<stop offset="0.698" stop-color="#FFC53F"/>
<stop offset="0.797" stop-color="#FFAD3E"/>
<stop offset="0.945" stop-color="#EC7D58"/>
</radialGradient>
<radialGradient id="paint1_radial_147_108" cx="0" cy="0" r="1" gradientUnits="userSpaceOnUse" gradientTransform="translate(38.0004 22.6335) rotate(-93.012) scale(17.0409 6.52831)">
<stop offset="0.003" stop-color="#FFE849"/>
<stop offset="1" stop-color="#FFE647" stop-opacity="0"/>
</radialGradient>
<radialGradient id="paint2_radial_147_108" cx="0" cy="0" r="1" gradientUnits="userSpaceOnUse" gradientTransform="translate(35.9545 10.4391) rotate(99.682) scale(9.12621 3.49623)">
<stop offset="0.003" stop-color="#FFE849"/>
<stop offset="1" stop-color="#FFE647" stop-opacity="0"/>
</radialGradient>
<radialGradient id="paint3_radial_147_108" cx="0" cy="0" r="1" gradientUnits="userSpaceOnUse" gradientTransform="translate(30.3863 15.9346) scale(3.69122 14.9693)">
<stop stop-color="#EE9F2C"/>
<stop offset="1" stop-color="#EE9F2C" stop-opacity="0"/>
</radialGradient>
<radialGradient id="paint4_radial_147_108" cx="0" cy="0" r="1" gradientUnits="userSpaceOnUse" gradientTransform="translate(32.0072 21.7385) rotate(-94.0856) scale(6.21288 4.31533)">
<stop stop-color="#FFC93D"/>
<stop offset="1" stop-color="#FFC33A" stop-opacity="0"/>
</radialGradient>
<radialGradient id="paint5_radial_147_108" cx="0" cy="0" r="1" gradientUnits="userSpaceOnUse" gradientTransform="translate(28.5364 12.3067) rotate(151.024) scale(6.53073 13.119)">
<stop offset="0.563" stop-color="#F09D2E" stop-opacity="0"/>
<stop offset="1" stop-color="#F09D2E"/>
</radialGradient>
<linearGradient id="paint6_linear_147_108" x1="25.2006" y1="18.9975" x2="25.2006" y2="15.4707" gradientUnits="userSpaceOnUse">
<stop stop-color="#FFC337"/>
<stop offset="1" stop-color="#FFC337" stop-opacity="0"/>
</linearGradient>
<radialGradient id="paint7_radial_147_108" cx="0" cy="0" r="1" gradientUnits="userSpaceOnUse" gradientTransform="translate(27.1721 7.11401) rotate(-13.4957) scale(4.38468 9.69615)">
<stop stop-color="#FFEC4C"/>
<stop offset="1" stop-color="#FFEC4C" stop-opacity="0"/>
</radialGradient>
<radialGradient id="paint8_radial_147_108" cx="0" cy="0" r="1" gradientUnits="userSpaceOnUse" gradientTransform="translate(20.0133 5.61595) rotate(33.3063) scale(4.28059 3.31877)">
<stop stop-color="#D99F2B"/>
<stop offset="1" stop-color="#D99F2B" stop-opacity="0"/>
</radialGradient>
<linearGradient id="paint9_linear_147_108" x1="20.6914" y1="14.2346" x2="22.8225" y2="13.2113" gradientUnits="userSpaceOnUse">
<stop stop-color="#A85300"/>
<stop offset="0.825" stop-color="#A85300" stop-opacity="0"/>
</linearGradient>
<radialGradient id="paint10_radial_147_108" cx="0" cy="0" r="1" gradientUnits="userSpaceOnUse" gradientTransform="translate(22.3804 14.3246) rotate(149.148) scale(6.29533 13.1371)">
<stop offset="0.563" stop-color="#F09D2E" stop-opacity="0"/>
<stop offset="1" stop-color="#F09D2E"/>
</radialGradient>
<linearGradient id="paint11_linear_147_108" x1="19.2246" y1="21.1532" x2="19.2246" y2="17.554" gradientUnits="userSpaceOnUse">
<stop stop-color="#FFC337"/>
<stop offset="1" stop-color="#FFC337" stop-opacity="0"/>
</linearGradient>
<radialGradient id="paint12_radial_147_108" cx="0" cy="0" r="1" gradientUnits="userSpaceOnUse" gradientTransform="translate(21.6545 10.312) rotate(-33.8929) scale(4.17785 12.7195)">
<stop stop-color="#FFEC4C"/>
<stop offset="1" stop-color="#FFEC4C" stop-opacity="0"/>
</radialGradient>
<radialGradient id="paint13_radial_147_108" cx="0" cy="0" r="1" gradientUnits="userSpaceOnUse" gradientTransform="translate(18.4728 15.4707) rotate(-24.9048) scale(5.26482 24.0398)">
<stop offset="0.598" stop-color="#F09D2E" stop-opacity="0"/>
<stop offset="1" stop-color="#F09D2E"/>
</radialGradient>
<radialGradient id="paint14_radial_147_108" cx="0" cy="0" r="1" gradientUnits="userSpaceOnUse" gradientTransform="translate(13.6976 7.49738) rotate(32.6006) scale(4.35245 3.46896)">
<stop stop-color="#D99F2B"/>
<stop offset="1" stop-color="#D99F2B" stop-opacity="0"/>
</radialGradient>
<linearGradient id="paint15_linear_147_108" x1="15.6159" y1="16.3234" x2="17.0348" y2="15.3315" gradientUnits="userSpaceOnUse">
<stop stop-color="#A85300"/>
<stop offset="0.825" stop-color="#A85300" stop-opacity="0"/>
</linearGradient>
<radialGradient id="paint16_radial_147_108" cx="0" cy="0" r="1" gradientUnits="userSpaceOnUse" gradientTransform="translate(18.7274 19.782) rotate(137.351) scale(5.21534 10.2127)">
<stop offset="0.563" stop-color="#F09D2E" stop-opacity="0"/>
<stop offset="1" stop-color="#F09D2E"/>
</radialGradient>
<linearGradient id="paint17_linear_147_108" x1="15.7354" y1="25.5109" x2="15.7354" y2="22.4916" gradientUnits="userSpaceOnUse">
<stop stop-color="#FFC337"/>
<stop offset="1" stop-color="#FFC337" stop-opacity="0"/>
</linearGradient>
<radialGradient id="paint18_radial_147_108" cx="0" cy="0" r="1" gradientUnits="userSpaceOnUse" gradientTransform="translate(17.449 15.3069) rotate(-12.2959) scale(3.9721 8.41401)">
<stop stop-color="#FFEC4C"/>
<stop offset="1" stop-color="#FFEC4C" stop-opacity="0"/>
</radialGradient>
<radialGradient id="paint19_radial_147_108" cx="0" cy="0" r="1" gradientUnits="userSpaceOnUse" gradientTransform="translate(15.0232 20.7439) rotate(-40.217) scale(5.52508 28.2461)">
<stop offset="0.598" stop-color="#F09D2E" stop-opacity="0"/>
<stop offset="1" stop-color="#F09D2E"/>
</radialGradient>
<radialGradient id="paint20_radial_147_108" cx="0" cy="0" r="1" gradientUnits="userSpaceOnUse" gradientTransform="translate(10.4935 14.0531) rotate(29.5035) scale(3.99572 3.00728)">
<stop stop-color="#D99F2B"/>
<stop offset="1" stop-color="#D99F2B" stop-opacity="0"/>
</radialGradient>
<radialGradient id="paint21_radial_147_108" cx="0" cy="0" r="1" gradientUnits="userSpaceOnUse" gradientTransform="translate(12.5892 21.909) rotate(-45.7639) scale(2.26132 10.2101)">
<stop stop-color="#A85300"/>
<stop offset="0.825" stop-color="#A85300" stop-opacity="0"/>
</radialGradient>
<radialGradient id="paint22_radial_147_108" cx="0" cy="0" r="1" gradientUnits="userSpaceOnUse" gradientTransform="translate(17.5678 25.7142) rotate(143.369) scale(5.12728 9.64725)">
<stop offset="0.563" stop-color="#F09D2E" stop-opacity="0"/>
<stop offset="1" stop-color="#F09D2E"/>
</radialGradient>
<radialGradient id="paint23_radial_147_108" cx="0" cy="0" r="1" gradientUnits="userSpaceOnUse" gradientTransform="translate(16.1953 21.8381) rotate(-9.97762) scale(4.22685 7.34307)">
<stop stop-color="#FFEC4C"/>
<stop offset="1" stop-color="#FFEC4C" stop-opacity="0"/>
</radialGradient>
<radialGradient id="paint24_radial_147_108" cx="0" cy="0" r="1" gradientUnits="userSpaceOnUse" gradientTransform="translate(13.5924 26.5464) rotate(-34.314) scale(5.47902 26.4522)">
<stop offset="0.598" stop-color="#F09D2E" stop-opacity="0"/>
<stop offset="1" stop-color="#F09D2E"/>
</radialGradient>
<radialGradient id="paint25_radial_147_108" cx="0" cy="0" r="1" gradientUnits="userSpaceOnUse" gradientTransform="translate(8.73363 20.7548) rotate(24.5479) scale(4.10084 2.72123)">
<stop stop-color="#D99F2B"/>
<stop offset="1" stop-color="#D99F2B" stop-opacity="0"/>
</radialGradient>
<linearGradient id="paint26_linear_147_108" x1="17.7916" y1="35.0833" x2="14.3575" y2="28.0596" gradientUnits="userSpaceOnUse">
<stop stop-color="#FFC337"/>
<stop offset="1" stop-color="#FFC337" stop-opacity="0"/>
</linearGradient>
<radialGradient id="paint27_radial_147_108" cx="0" cy="0" r="1" gradientUnits="userSpaceOnUse" gradientTransform="translate(30.0708 14.5334) rotate(129.014) scale(23.7052 38.3365)">
<stop offset="0.872" stop-color="#F6814F" stop-opacity="0"/>
<stop offset="1" stop-color="#F7814F"/>
</radialGradient>
<radialGradient id="paint28_radial_147_108" cx="0" cy="0" r="1" gradientUnits="userSpaceOnUse" gradientTransform="translate(25.125 14.7885) rotate(76.293) scale(25.1905 27.6395)">
<stop offset="0.853" stop-color="#F6814F" stop-opacity="0"/>
<stop offset="1" stop-color="#F7814F"/>
</radialGradient>
<radialGradient id="paint29_radial_147_108" cx="0" cy="0" r="1" gradientUnits="userSpaceOnUse" gradientTransform="translate(30.8375 8.39377) rotate(64.44) scale(4.34804 3.87622)">
<stop stop-color="#D99F2B"/>
<stop offset="1" stop-color="#D99F2B" stop-opacity="0"/>
</radialGradient>
<radialGradient id="paint30_radial_147_108" cx="0" cy="0" r="1" gradientUnits="userSpaceOnUse" gradientTransform="translate(30.7741 16.7063) rotate(149.254) scale(1.65578 5.12362)">
<stop offset="0.201" stop-color="#B4813D"/>
<stop offset="1" stop-color="#B4813D" stop-opacity="0"/>
</radialGradient>
<radialGradient id="paint31_radial_147_108" cx="0" cy="0" r="1" gradientUnits="userSpaceOnUse" gradientTransform="translate(4.07091 20.9008) rotate(62.071) scale(7.24768 10.7486)">
<stop stop-color="#419FFD"/>
<stop offset="1" stop-color="#4B6DCB"/>
</radialGradient>
<radialGradient id="paint32_radial_147_108" cx="0" cy="0" r="1" gradientUnits="userSpaceOnUse" gradientTransform="translate(2.02028 21.4397) rotate(2.38594) scale(1.02415 2.15534)">
<stop stop-color="#5486C7"/>
<stop offset="1" stop-color="#5486C7" stop-opacity="0"/>
</radialGradient>
<radialGradient id="paint33_radial_147_108" cx="0" cy="0" r="1" gradientUnits="userSpaceOnUse" gradientTransform="translate(9.69614 27.2805) rotate(111.801) scale(1.03322 3.03906)">
<stop stop-color="#5486C7"/>
<stop offset="1" stop-color="#5486C7" stop-opacity="0"/>
</radialGradient>
<radialGradient id="paint34_radial_147_108" cx="0" cy="0" r="1" gradientUnits="userSpaceOnUse" gradientTransform="translate(4.60195 24.6793) rotate(94.712) scale(5.73261 9.63882)">
<stop stop-color="#419FFD"/>
<stop offset="1" stop-color="#4B6DCB"/>
</radialGradient>
<radialGradient id="paint35_radial_147_108" cx="0" cy="0" r="1" gradientUnits="userSpaceOnUse" gradientTransform="translate(-0.255134 24.0197) rotate(2.38521) scale(0.976933 2.05497)">
<stop stop-color="#5486C7"/>
<stop offset="1" stop-color="#5486C7" stop-opacity="0"/>
</radialGradient>
<radialGradient id="paint36_radial_147_108" cx="0" cy="0" r="1" gradientUnits="userSpaceOnUse" gradientTransform="translate(22.6464 0.64831) rotate(60.196) scale(6.08938 9.03081)">
<stop stop-color="#419FFD"/>
<stop offset="1" stop-color="#4B6DCB"/>
</radialGradient>
<radialGradient id="paint37_radial_147_108" cx="0" cy="0" r="1" gradientUnits="userSpaceOnUse" gradientTransform="translate(20.1387 2.85311) rotate(18.8622) scale(0.876068 1.41007)">
<stop stop-color="#4D8AC1"/>
<stop offset="1" stop-color="#4D8AC1" stop-opacity="0"/>
</radialGradient>
<radialGradient id="paint38_radial_147_108" cx="0" cy="0" r="1" gradientUnits="userSpaceOnUse" gradientTransform="translate(25.2107 -1.51287) rotate(60.69) scale(7.56483 11.2219)">
<stop stop-color="#419FFD"/>
<stop offset="1" stop-color="#4B6DCB"/>
</radialGradient>
<radialGradient id="paint39_radial_147_108" cx="0" cy="0" r="1" gradientUnits="userSpaceOnUse" gradientTransform="translate(22.819 0.590167) rotate(18.853) scale(0.835626 1.34448)">
<stop stop-color="#4D8AC1"/>
<stop offset="1" stop-color="#4D8AC1" stop-opacity="0"/>
</radialGradient>
</defs>
</svg>
