<svg width="32" height="27" viewBox="0 0 32 27" fill="none" xmlns="http://www.w3.org/2000/svg">
<mask id="mask0_49_811" style="mask-type:luminance" maskUnits="userSpaceOnUse" x="0" y="-3" width="32" height="33">
<path d="M32 -2.5H0V29.5H32V-2.5Z" fill="white"/>
</mask>
<g mask="url(#mask0_49_811)">
<path d="M29 0H3C2.20435 0 1.44129 0.31607 0.87868 0.87868C0.31607 1.44129 0 2.20435 0 3V24C0 24.7956 0.31607 25.5587 0.87868 26.1213C1.44129 26.6839 2.20435 27 3 27H29C29.7956 27 30.5587 26.6839 31.1213 26.1213C31.6839 25.5587 32 24.7956 32 24V3C32 2.20435 31.6839 1.44129 31.1213 0.87868C30.5587 0.31607 29.7956 0 29 0ZM27 3H29V5H27V3ZM24 3H26V5H24V3ZM21 3H23V5H21V3ZM30 24C30 24.2652 29.8946 24.5196 29.7071 24.7071C29.5196 24.8946 29.2652 25 29 25H3C2.73478 25 2.48043 24.8946 2.29289 24.7071C2.10536 24.5196 2 24.2652 2 24V8H30V24Z" fill="#8116B4"/>
<path d="M11.3702 10.235L5.77023 15.835C5.59157 16.0257 5.49466 16.2788 5.50023 16.54C5.49947 16.6716 5.52469 16.8021 5.57446 16.9239C5.62422 17.0457 5.69755 17.1566 5.79023 17.25L11.3902 22.845L12.8052 21.435L7.91023 16.54L12.8052 11.65L11.3702 10.235ZM20.6302 10.235L19.2152 11.65L24.1102 16.54L19.2152 21.435L20.6302 22.845L26.2302 17.25C26.4101 17.0581 26.5071 16.803 26.5002 16.54C26.5004 16.2759 26.3962 16.0225 26.2102 15.835L20.6302 10.235Z" fill="#D06BFF"/>
<path d="M16.2686 10.3035L13.7681 22.8059L15.7292 23.1981L18.2297 10.6957L16.2686 10.3035Z" fill="#D06BFF"/>
</g>
</svg>
