<svg width="172" height="30" viewBox="0 0 172 30" fill="none" xmlns="http://www.w3.org/2000/svg">
<path d="M18.5333 9.44483C18.5333 9.3115 18.3333 8.24483 17.8666 7.77817C17.2666 7.1115 16.5999 7.04483 16.2666 7.04483H16.1999C14.1333 6.9115 11.0666 6.9115 10.9999 6.9115C10.9999 6.9115 7.86659 6.9115 5.79992 7.04483H5.73325C5.39992 7.04483 4.73325 7.1115 4.13325 7.77817C3.66659 8.3115 3.46659 9.37817 3.46659 9.5115C3.46659 9.57817 3.33325 10.7782 3.33325 12.0448V13.1782C3.33325 14.4448 3.46659 15.6448 3.46659 15.7115C3.46659 15.8448 3.66659 16.9115 4.13325 17.3782C4.66659 17.9782 5.33325 18.0448 5.73325 18.1115H5.93325C7.13325 18.2448 10.7999 18.2448 10.9333 18.2448C10.9333 18.2448 14.0666 18.2448 16.1333 18.1115H16.1999C16.5333 18.0448 17.1999 17.9782 17.7999 17.3782C18.2666 16.8448 18.4666 15.7782 18.4666 15.6448C18.4666 15.5782 18.5999 14.3782 18.5999 13.1115V11.9782C18.6666 10.7782 18.5333 9.5115 18.5333 9.44483ZM13.5999 12.7115L9.59992 14.8448C9.53325 14.8448 9.53325 14.9115 9.46659 14.9115C9.39992 14.9115 9.33325 14.9115 9.33325 14.8448C9.26659 14.7782 9.19992 14.7115 9.19992 14.5782V10.2448C9.19992 10.1115 9.26659 10.0448 9.33325 9.97817C9.39992 9.9115 9.53325 9.9115 9.66659 9.97817L13.6666 12.1115C13.7999 12.1782 13.8666 12.2448 13.8666 12.3782C13.8666 12.5115 13.7333 12.6448 13.5999 12.7115Z" fill="black"/>
<path d="M68.2202 7.02393C67.7118 7.02393 66.1792 7.64565 65.9043 7.7699C65.6293 7.89415 65.3241 8.28202 64.9778 8.92217C64.6311 9.56233 64.3528 10.3107 63.9007 11.4114C63.449 12.5122 63.3437 14.6344 63.3588 15.2821C63.3739 15.9298 63.4481 16.4358 64.1119 16.8189C64.7752 17.2016 65.3619 17.6022 65.9794 17.8432C66.5973 18.0841 67.0188 18.2575 67.3051 18.0166C67.5914 17.7756 67.7799 17.3537 67.7799 17.3537C67.7799 17.3537 68.051 16.9772 67.5389 16.7514C67.0268 16.5251 66.7707 16.3668 66.7929 16.1334C66.8156 15.9001 66.8529 15.772 66.981 15.8023C67.109 15.8325 67.4109 16.3744 68.5707 16.6229C69.7305 16.8714 70.8611 16.8341 70.8611 16.8341C70.8611 16.8341 71.9921 16.8719 73.1519 16.6229C74.3118 16.3744 74.6132 15.8325 74.7412 15.8023C74.8692 15.772 74.9066 15.9001 74.9292 16.133C74.9519 16.3668 74.6958 16.5251 74.1837 16.7514C73.6716 16.9772 73.9428 17.3537 73.9428 17.3537C73.9428 17.3537 74.1313 17.7752 74.4176 18.0166C74.7034 18.2575 75.1253 18.0841 75.7428 17.8432C76.3602 17.6022 76.9475 17.2021 77.6108 16.8189C78.2746 16.4358 78.3487 15.9298 78.3638 15.2821C78.379 14.6349 78.2736 12.5122 77.8215 11.4114C77.3698 10.3107 77.0911 9.56233 76.7443 8.92217C76.3985 8.28202 76.0928 7.89415 75.8184 7.76943C75.5434 7.64565 74.0103 7.02393 73.502 7.02393C72.9937 7.02393 72.8434 7.37825 72.8434 7.37825L72.6663 7.7699C72.6663 7.7699 71.4757 7.54361 70.8691 7.54313C70.2625 7.54313 69.0564 7.7699 69.0564 7.7699L68.8792 7.37778C68.8792 7.37778 68.729 7.02393 68.2202 7.02393ZM68.2754 11.7237H68.2943C69.0356 11.7237 69.6361 12.3724 69.6361 13.1722C69.6361 13.9725 69.0356 14.6207 68.2943 14.6207C67.5531 14.6207 66.9526 13.9725 66.9526 13.1722C66.9521 12.3799 67.5417 11.7346 68.2754 11.7237ZM73.4283 11.7237H73.4472C74.1809 11.7346 74.77 12.3804 74.77 13.1722C74.77 13.9725 74.1696 14.6207 73.4283 14.6207C72.6866 14.6207 72.0866 13.9725 72.0866 13.1722C72.0866 12.3724 72.6866 11.7237 73.4283 11.7237Z" fill="black"/>
<path fill-rule="evenodd" clip-rule="evenodd" d="M130.723 4.57812C126.305 4.57812 122.723 8.25046 122.723 12.7805C122.723 16.4048 125.015 19.4795 128.194 20.5638C128.594 20.6398 128.741 20.3861 128.741 20.1695C128.741 19.9738 128.733 19.3278 128.73 18.6425C126.504 19.1385 126.034 17.6745 126.034 17.6745C125.67 16.7265 125.146 16.4745 125.146 16.4745C124.42 15.9651 125.201 15.9758 125.201 15.9758C126.004 16.0335 126.427 16.8208 126.427 16.8208C127.141 18.0748 128.299 17.7125 128.755 17.5028C128.827 16.9728 129.034 16.6108 129.263 16.4061C127.486 16.1985 125.618 15.4951 125.618 12.3521C125.618 11.4568 125.931 10.7248 126.443 10.1505C126.359 9.94379 126.086 9.10946 126.52 7.97979C126.52 7.97979 127.192 7.75946 128.721 8.82046C129.359 8.63879 130.043 8.54779 130.723 8.54446C131.403 8.54779 132.088 8.63879 132.727 8.82046C134.254 7.75946 134.925 7.97979 134.925 7.97979C135.36 9.10979 135.086 9.94379 135.003 10.1505C135.517 10.7248 135.827 11.4568 135.827 12.3521C135.827 15.5028 133.955 16.1965 132.174 16.3995C132.461 16.6541 132.716 17.1531 132.716 17.9185C132.716 19.0158 132.707 19.8991 132.707 20.1695C132.707 20.3878 132.851 20.6435 133.257 20.5628C136.434 19.4771 138.723 16.4035 138.723 12.7805C138.723 8.25046 135.141 4.57812 130.723 4.57812Z" fill="black"/>
<path d="M47.8423 8.82976C47.3218 9.06077 46.7695 9.21214 46.204 9.27878C46.7999 8.92254 47.2457 8.36155 47.4582 7.70059C46.8983 8.03304 46.2857 8.26727 45.6469 8.39316C45.3801 8.10841 45.0576 7.88151 44.6995 7.72654C44.3413 7.57158 43.9552 7.49185 43.5649 7.49231C41.9899 7.49231 40.7128 8.76937 40.7128 10.3447C40.7128 10.568 40.7379 10.7856 40.7868 10.9947C38.4161 10.8756 36.3141 9.74021 34.9072 8.01442C34.6535 8.44975 34.5202 8.94479 34.5212 9.44867C34.5212 10.4381 35.0246 11.3113 35.79 11.8227C35.3371 11.8084 34.8941 11.6859 34.498 11.4657L34.4977 11.5018C34.4977 12.8836 35.481 14.0362 36.786 14.2987C36.3658 14.4124 35.9252 14.429 35.4976 14.3472C35.8609 15.4803 36.9141 16.3053 38.1621 16.3281C37.1518 17.1212 35.904 17.5513 34.6196 17.5493C34.3896 17.5493 34.1624 17.5357 33.9392 17.5092C35.2434 18.3474 36.7614 18.7924 38.3117 18.7908C43.5585 18.7908 46.4272 14.4446 46.4272 10.6752C46.4272 10.5516 46.4247 10.4283 46.4193 10.3058C46.9779 9.90255 47.4598 9.40267 47.8423 8.82976Z" fill="black"/>
<path d="M167.8 7.64789L165.631 17.8782C165.467 18.6002 165.04 18.7799 164.434 18.4398L161.129 16.0041L159.534 17.5381C159.357 17.7146 159.21 17.8622 158.869 17.8622L159.107 14.4959L165.233 8.96036C165.499 8.72292 165.175 8.59133 164.819 8.8288L157.246 13.5974L153.985 12.5769C153.276 12.3555 153.263 11.8677 154.133 11.5276L166.886 6.61461C167.476 6.39321 167.993 6.74614 167.8 7.64789Z" fill="black"/>
<path d="M107.762 12.6052C107.761 12.1795 107.592 11.7713 107.291 11.4703C106.99 11.1693 106.582 11 106.156 10.9995C105.766 10.9991 105.39 11.1415 105.098 11.3999C104.036 10.7204 102.619 10.2924 101.056 10.2461L102.013 6.97553L104.36 7.41179C104.36 7.43098 104.357 7.44904 104.358 7.46823C104.372 7.73687 104.492 7.98898 104.691 8.16926C104.891 8.34955 105.154 8.44329 105.423 8.42992C105.691 8.41584 105.943 8.29581 106.123 8.09618C106.304 7.89654 106.397 7.63357 106.384 7.36495C106.37 7.09631 106.25 6.8442 106.05 6.66392C105.851 6.48363 105.588 6.38989 105.319 6.40326C105.148 6.41237 104.982 6.46479 104.837 6.5556C104.691 6.64642 104.571 6.77265 104.488 6.92248L104.487 6.9222L101.658 6.39648L100.531 10.2455C98.9645 10.287 97.5431 10.7128 96.4767 11.3909C96.1861 11.138 95.8137 10.999 95.4284 10.9995C95.0027 11 94.5946 11.1694 94.2936 11.4704C93.9926 11.7714 93.8233 12.1795 93.8228 12.6052C93.8228 13.1526 94.1047 13.6577 94.5612 13.9523C94.5327 14.1135 94.5181 14.2768 94.5175 14.4405C94.5175 16.7578 97.327 18.6434 100.78 18.6434C104.234 18.6434 107.043 16.7578 107.043 14.4402C107.043 14.2799 107.028 14.1219 107.002 13.9661C107.234 13.8225 107.425 13.6221 107.558 13.384C107.691 13.1459 107.761 12.8779 107.762 12.6052ZM97.8038 13.6978C97.8039 13.5682 97.8294 13.4399 97.8791 13.3202C97.9287 13.2005 98.0014 13.0918 98.093 13.0002C98.1847 12.9086 98.2935 12.836 98.4132 12.7864C98.5329 12.7369 98.6612 12.7114 98.7908 12.7114C98.9204 12.7114 99.0487 12.737 99.1684 12.7866C99.288 12.8362 99.3968 12.9089 99.4884 13.0006C99.58 13.0922 99.6526 13.201 99.7022 13.3208C99.7517 13.4405 99.7772 13.5688 99.7772 13.6984C99.7771 13.96 99.6731 14.211 99.488 14.396C99.3029 14.5809 99.0519 14.6848 98.7902 14.6847C98.5286 14.6847 98.2776 14.5806 98.0926 14.3956C97.9077 14.2105 97.8038 13.9595 97.8038 13.6978ZM103.106 16.3667C103.077 16.3972 102.369 17.1176 100.769 17.1176C99.1603 17.1176 98.5169 16.3873 98.4907 16.3563C98.45 16.3053 98.4306 16.2406 98.4366 16.1756C98.4427 16.1107 98.4736 16.0506 98.5229 16.008C98.5723 15.9654 98.6362 15.9435 98.7013 15.947C98.7665 15.9505 98.8277 15.979 98.8722 16.0267C98.8869 16.0425 99.4236 16.6133 100.769 16.6133C102.137 16.6133 102.737 16.0222 102.743 16.0165C102.791 15.9732 102.853 15.9495 102.917 15.9504C102.981 15.9512 103.043 15.9765 103.089 16.0211C103.135 16.0657 103.163 16.1262 103.166 16.1904C103.169 16.2545 103.148 16.3178 103.106 16.3667ZM102.91 14.6846C102.78 14.6847 102.652 14.6592 102.532 14.6097C102.413 14.5601 102.304 14.4875 102.212 14.396C102.121 14.3044 102.048 14.1957 101.998 14.076C101.949 13.9563 101.923 13.828 101.923 13.6985C101.923 13.5689 101.948 13.4406 101.998 13.3209C102.048 13.2012 102.12 13.0924 102.212 13.0008C102.303 12.9091 102.412 12.8364 102.532 12.7868C102.651 12.7372 102.78 12.7116 102.909 12.7115C103.171 12.7114 103.422 12.8153 103.607 13.0002C103.792 13.1851 103.896 13.436 103.896 13.6976C103.896 13.9593 103.792 14.2103 103.607 14.3954C103.423 14.5804 103.172 14.6845 102.91 14.6846Z" fill="black"/>
</svg>
